<?xml version="1.0" encoding="us-ascii" standalone="no"?><svg xmlns="http://www.w3.org/2000/svg" xmlns:xlink="http://www.w3.org/1999/xlink" contentStyleType="text/css" height="518px" preserveAspectRatio="none" style="width:889px;height:518px;background:#FFFFFF;" version="1.1" viewBox="0 0 889 518" width="889px" zoomAndPan="magnify"><defs/><g><line style="stroke:#181818;stroke-width:0.5;stroke-dasharray:5.0,5.0;" x1="55" x2="55" y1="82.6094" y2="436.4766"/><line style="stroke:#181818;stroke-width:0.5;stroke-dasharray:5.0,5.0;" x1="224.5" x2="224.5" y1="82.6094" y2="436.4766"/><line style="stroke:#181818;stroke-width:0.5;stroke-dasharray:5.0,5.0;" x1="475" x2="475" y1="82.6094" y2="436.4766"/><line style="stroke:#181818;stroke-width:0.5;stroke-dasharray:5.0,5.0;" x1="627" x2="627" y1="82.6094" y2="436.4766"/><line style="stroke:#181818;stroke-width:0.5;stroke-dasharray:5.0,5.0;" x1="706" x2="706" y1="82.6094" y2="436.4766"/><line style="stroke:#181818;stroke-width:0.5;stroke-dasharray:5.0,5.0;" x1="798" x2="798" y1="82.6094" y2="436.4766"/><line style="stroke:#181818;stroke-width:0.5;stroke-dasharray:5.0,5.0;" x1="870" x2="870" y1="82.6094" y2="436.4766"/><text fill="#000000" font-family="sans-serif" font-size="14" lengthAdjust="spacing" textLength="94" x="5" y="79.5332">Representante</text><ellipse cx="55" cy="13.5" fill="#E2E2F0" rx="8" ry="8" style="stroke:#181818;stroke-width:0.5;"/><path d="M55,21.5 L55,48.5 M42,29.5 L68,29.5 M55,48.5 L42,63.5 M55,48.5 L68,63.5 " fill="none" style="stroke:#181818;stroke-width:0.5;"/><text fill="#000000" font-family="sans-serif" font-size="14" lengthAdjust="spacing" textLength="94" x="5" y="450.0098">Representante</text><ellipse cx="55" cy="461.5859" fill="#E2E2F0" rx="8" ry="8" style="stroke:#181818;stroke-width:0.5;"/><path d="M55,469.5859 L55,496.5859 M42,477.5859 L68,477.5859 M55,496.5859 L42,511.5859 M55,496.5859 L68,511.5859 " fill="none" style="stroke:#181818;stroke-width:0.5;"/><text fill="#000000" font-family="sans-serif" font-size="14" lengthAdjust="spacing" textLength="23" x="210.5" y="79.5332">GUI</text><path d="M204.5,37 L204.5,61 M204.5,49 L221.5,49 " fill="none" style="stroke:#181818;stroke-width:0.5;"/><ellipse cx="233.5" cy="49" fill="#E2E2F0" rx="12" ry="12" style="stroke:#181818;stroke-width:0.5;"/><text fill="#000000" font-family="sans-serif" font-size="14" lengthAdjust="spacing" textLength="23" x="210.5" y="450.0098">GUI</text><path d="M204.5,457.0859 L204.5,481.0859 M204.5,469.0859 L221.5,469.0859 " fill="none" style="stroke:#181818;stroke-width:0.5;"/><ellipse cx="233.5" cy="469.0859" fill="#E2E2F0" rx="12" ry="12" style="stroke:#181818;stroke-width:0.5;"/><text fill="#000000" font-family="sans-serif" font-size="14" lengthAdjust="spacing" textLength="84" x="430" y="79.5332">ControlTicket</text><ellipse cx="475" cy="49" fill="#E2E2F0" rx="12" ry="12" style="stroke:#181818;stroke-width:0.5;"/><polygon fill="#181818" points="471,37,477,32,475,37,477,42,471,37" style="stroke:#181818;stroke-width:1.0;"/><text fill="#000000" font-family="sans-serif" font-size="14" lengthAdjust="spacing" textLength="84" x="430" y="450.0098">ControlTicket</text><ellipse cx="475" cy="469.0859" fill="#E2E2F0" rx="12" ry="12" style="stroke:#181818;stroke-width:0.5;"/><polygon fill="#181818" points="471,457.0859,477,452.0859,475,457.0859,477,462.0859,471,457.0859" style="stroke:#181818;stroke-width:1.0;"/><text fill="#000000" font-family="sans-serif" font-size="14" lengthAdjust="spacing" textLength="70" x="589" y="79.5332">ControlHito</text><ellipse cx="627" cy="49" fill="#E2E2F0" rx="12" ry="12" style="stroke:#181818;stroke-width:0.5;"/><polygon fill="#181818" points="623,37,629,32,627,37,629,42,623,37" style="stroke:#181818;stroke-width:1.0;"/><text fill="#000000" font-family="sans-serif" font-size="14" lengthAdjust="spacing" textLength="70" x="589" y="450.0098">ControlHito</text><ellipse cx="627" cy="469.0859" fill="#E2E2F0" rx="12" ry="12" style="stroke:#181818;stroke-width:0.5;"/><polygon fill="#181818" points="623,457.0859,629,452.0859,627,457.0859,629,462.0859,623,457.0859" style="stroke:#181818;stroke-width:1.0;"/><text fill="#000000" font-family="sans-serif" font-size="14" lengthAdjust="spacing" textLength="57" x="675" y="79.5332">Producto</text><ellipse cx="706.5" cy="49" fill="#E2E2F0" rx="12" ry="12" style="stroke:#181818;stroke-width:0.5;"/><line style="stroke:#181818;stroke-width:0.5;" x1="694.5" x2="718.5" y1="63" y2="63"/><text fill="#000000" font-family="sans-serif" font-size="14" lengthAdjust="spacing" textLength="57" x="675" y="450.0098">Producto</text><ellipse cx="706.5" cy="469.0859" fill="#E2E2F0" rx="12" ry="12" style="stroke:#181818;stroke-width:0.5;"/><line style="stroke:#181818;stroke-width:0.5;" x1="694.5" x2="718.5" y1="483.0859" y2="483.0859"/><text fill="#000000" font-family="sans-serif" font-size="14" lengthAdjust="spacing" textLength="85" x="753" y="79.5332">TipoProducto</text><ellipse cx="798.5" cy="49" fill="#E2E2F0" rx="12" ry="12" style="stroke:#181818;stroke-width:0.5;"/><line style="stroke:#181818;stroke-width:0.5;" x1="786.5" x2="810.5" y1="63" y2="63"/><text fill="#000000" font-family="sans-serif" font-size="14" lengthAdjust="spacing" textLength="85" x="753" y="450.0098">TipoProducto</text><ellipse cx="798.5" cy="469.0859" fill="#E2E2F0" rx="12" ry="12" style="stroke:#181818;stroke-width:0.5;"/><line style="stroke:#181818;stroke-width:0.5;" x1="786.5" x2="810.5" y1="483.0859" y2="483.0859"/><text fill="#000000" font-family="sans-serif" font-size="14" lengthAdjust="spacing" textLength="24" x="855" y="79.5332">Hito</text><ellipse cx="870" cy="49" fill="#E2E2F0" rx="12" ry="12" style="stroke:#181818;stroke-width:0.5;"/><line style="stroke:#181818;stroke-width:0.5;" x1="858" x2="882" y1="63" y2="63"/><text fill="#000000" font-family="sans-serif" font-size="14" lengthAdjust="spacing" textLength="24" x="855" y="450.0098">Hito</text><ellipse cx="870" cy="469.0859" fill="#E2E2F0" rx="12" ry="12" style="stroke:#181818;stroke-width:0.5;"/><line style="stroke:#181818;stroke-width:0.5;" x1="858" x2="882" y1="483.0859" y2="483.0859"/><polygon fill="#181818" points="213,110.9609,223,114.9609,213,118.9609,217,114.9609" style="stroke:#181818;stroke-width:1.0;"/><line style="stroke:#181818;stroke-width:1.0;" x1="55" x2="219" y1="114.9609" y2="114.9609"/><text fill="#000000" font-family="sans-serif" font-size="13" lengthAdjust="spacing" textLength="146" x="62" y="110.1045">Asignar Tipo de Producto</text><polygon fill="#181818" points="463,141.3125,473,145.3125,463,149.3125,467,145.3125" style="stroke:#181818;stroke-width:1.0;"/><line style="stroke:#181818;stroke-width:1.0;" x1="225" x2="469" y1="145.3125" y2="145.3125"/><text fill="#000000" font-family="sans-serif" font-size="13" lengthAdjust="spacing" textLength="226" x="232" y="140.4561">asignarTipoProducto(idProducto,idTipo)</text><polygon fill="#181818" points="694.5,171.6641,704.5,175.6641,694.5,179.6641,698.5,175.6641" style="stroke:#181818;stroke-width:1.0;"/><line style="stroke:#181818;stroke-width:1.0;" x1="475" x2="700.5" y1="175.6641" y2="175.6641"/><text fill="#000000" font-family="sans-serif" font-size="13" lengthAdjust="spacing" textLength="126" x="482" y="170.8076">asignarTipoProducto()</text><polygon fill="#181818" points="786.5,202.0156,796.5,206.0156,786.5,210.0156,790.5,206.0156" style="stroke:#181818;stroke-width:1.0;"/><line style="stroke:#181818;stroke-width:1.0;" x1="706.5" x2="792.5" y1="206.0156" y2="206.0156"/><text fill="#000000" font-family="sans-serif" font-size="13" lengthAdjust="spacing" textLength="68" x="713.5" y="201.1592">validarTipo()</text><polygon fill="#181818" points="717.5,232.3672,707.5,236.3672,717.5,240.3672,713.5,236.3672" style="stroke:#181818;stroke-width:1.0;"/><line style="stroke:#181818;stroke-width:1.0;stroke-dasharray:2.0,2.0;" x1="711.5" x2="797.5" y1="236.3672" y2="236.3672"/><text fill="#000000" font-family="sans-serif" font-size="13" lengthAdjust="spacing" textLength="60" x="723.5" y="231.5107">Tipo v&#225;lido</text><polygon fill="#181818" points="486,262.7188,476,266.7188,486,270.7188,482,266.7188" style="stroke:#181818;stroke-width:1.0;"/><line style="stroke:#181818;stroke-width:1.0;stroke-dasharray:2.0,2.0;" x1="480" x2="705.5" y1="266.7188" y2="266.7188"/><text fill="#000000" font-family="sans-serif" font-size="13" lengthAdjust="spacing" textLength="122" x="492" y="261.8623">Producto actualizado</text><polygon fill="#181818" points="615,293.0703,625,297.0703,615,301.0703,619,297.0703" style="stroke:#181818;stroke-width:1.0;"/><line style="stroke:#181818;stroke-width:1.0;" x1="475" x2="621" y1="297.0703" y2="297.0703"/><text fill="#000000" font-family="sans-serif" font-size="13" lengthAdjust="spacing" textLength="128" x="482" y="292.2139">registrarHito(producto)</text><polygon fill="#181818" points="858,323.4219,868,327.4219,858,331.4219,862,327.4219" style="stroke:#181818;stroke-width:1.0;"/><line style="stroke:#181818;stroke-width:1.0;" x1="627" x2="864" y1="327.4219" y2="327.4219"/><text fill="#000000" font-family="sans-serif" font-size="13" lengthAdjust="spacing" textLength="37" x="634" y="322.5654">crear()</text><polygon fill="#181818" points="638,353.7734,628,357.7734,638,361.7734,634,357.7734" style="stroke:#181818;stroke-width:1.0;"/><line style="stroke:#181818;stroke-width:1.0;stroke-dasharray:2.0,2.0;" x1="632" x2="869" y1="357.7734" y2="357.7734"/><text fill="#000000" font-family="sans-serif" font-size="13" lengthAdjust="spacing" textLength="84" x="644" y="352.917">Hito registrado</text><polygon fill="#181818" points="236,384.125,226,388.125,236,392.125,232,388.125" style="stroke:#181818;stroke-width:1.0;"/><line style="stroke:#181818;stroke-width:1.0;stroke-dasharray:2.0,2.0;" x1="230" x2="474" y1="388.125" y2="388.125"/><text fill="#000000" font-family="sans-serif" font-size="13" lengthAdjust="spacing" textLength="75" x="242" y="383.2686">Confirmaci&#243;n</text><polygon fill="#181818" points="66,414.4766,56,418.4766,66,422.4766,62,418.4766" style="stroke:#181818;stroke-width:1.0;"/><line style="stroke:#181818;stroke-width:1.0;stroke-dasharray:2.0,2.0;" x1="60" x2="224" y1="418.4766" y2="418.4766"/><text fill="#000000" font-family="sans-serif" font-size="13" lengthAdjust="spacing" textLength="80" x="72" y="413.6201">Tipo asignado</text><!--SRC=[TP5BRW8n38RtEKMM8C45M5H2NL1s5O83c2H5LcaoydYGw6qu0qVWOZZ9lC9ZbSJ-lzzs38O3wOshoDNECtXsIkr3uotGMQzsQsM2Pmf7_PdFBPfVnu_HB-IWX4S-wsyAjZ73UujLU8mblIhAwlb7hASNUbdZmGCbK5it6AgO5rdHYW2GWN6X2ThkEaCRCrEbIawCEiaR3q5wXQZ7EI5ES4IRYQWiilFIF4rokbq426FF5xFqIJ3SI8L_YCXJvwD_5uZS0MiceFYULAt5C76I2TNA3JaWwJc7dzpIqLc-gDulIk8_I7zWy7RrxNOaMQwrdJx_hxZT0G00]--></g></svg>