<?xml version="1.0" encoding="us-ascii" standalone="no"?><svg xmlns="http://www.w3.org/2000/svg" xmlns:xlink="http://www.w3.org/1999/xlink" contentStyleType="text/css" height="275px" preserveAspectRatio="none" style="width:257px;height:275px;background:#FFFFFF;" version="1.1" viewBox="0 0 257 275" width="257px" zoomAndPan="magnify"><defs/><g><line style="stroke:#181818;stroke-width:0.5;stroke-dasharray:5.0,5.0;" x1="32" x2="32" y1="82.6094" y2="193.6641"/><line style="stroke:#181818;stroke-width:0.5;stroke-dasharray:5.0,5.0;" x1="225" x2="225" y1="82.6094" y2="193.6641"/><text fill="#000000" font-family="sans-serif" font-size="14" lengthAdjust="spacing" textLength="48" x="5" y="79.5332">Usuario</text><ellipse cx="32" cy="13.5" fill="#E2E2F0" rx="8" ry="8" style="stroke:#181818;stroke-width:0.5;"/><path d="M32,21.5 L32,48.5 M19,29.5 L45,29.5 M32,48.5 L19,63.5 M32,48.5 L45,63.5 " fill="none" style="stroke:#181818;stroke-width:0.5;"/><text fill="#000000" font-family="sans-serif" font-size="14" lengthAdjust="spacing" textLength="48" x="5" y="207.1973">Usuario</text><ellipse cx="32" cy="218.7734" fill="#E2E2F0" rx="8" ry="8" style="stroke:#181818;stroke-width:0.5;"/><path d="M32,226.7734 L32,253.7734 M19,234.7734 L45,234.7734 M32,253.7734 L19,268.7734 M32,253.7734 L45,268.7734 " fill="none" style="stroke:#181818;stroke-width:0.5;"/><rect fill="#E2E2F0" height="31.6094" rx="2.5" ry="2.5" style="stroke:#181818;stroke-width:0.5;" width="52" x="199" y="50"/><text fill="#000000" font-family="sans-serif" font-size="14" lengthAdjust="spacing" textLength="38" x="206" y="71.5332">Ticket</text><rect fill="#E2E2F0" height="31.6094" rx="2.5" ry="2.5" style="stroke:#181818;stroke-width:0.5;" width="52" x="199" y="192.6641"/><text fill="#000000" font-family="sans-serif" font-size="14" lengthAdjust="spacing" textLength="38" x="206" y="214.1973">Ticket</text><polygon fill="#181818" points="213,110.9609,223,114.9609,213,118.9609,217,114.9609" style="stroke:#181818;stroke-width:1.0;"/><line style="stroke:#181818;stroke-width:1.0;" x1="32" x2="219" y1="114.9609" y2="114.9609"/><text fill="#000000" font-family="sans-serif" font-size="13" lengthAdjust="spacing" textLength="109" x="39" y="110.1045">seleccionarTicket()</text><polygon fill="#181818" points="213,141.3125,223,145.3125,213,149.3125,217,145.3125" style="stroke:#181818;stroke-width:1.0;"/><line style="stroke:#181818;stroke-width:1.0;" x1="32" x2="219" y1="145.3125" y2="145.3125"/><text fill="#000000" font-family="sans-serif" font-size="13" lengthAdjust="spacing" textLength="169" x="39" y="140.4561">cambiarEstado(nuevoEstado)</text><polygon fill="#181818" points="43,171.6641,33,175.6641,43,179.6641,39,175.6641" style="stroke:#181818;stroke-width:1.0;"/><line style="stroke:#181818;stroke-width:1.0;stroke-dasharray:2.0,2.0;" x1="37" x2="224" y1="175.6641" y2="175.6641"/><text fill="#000000" font-family="sans-serif" font-size="13" lengthAdjust="spacing" textLength="109" x="49" y="170.8076">estado actualizado</text><!--SRC=[ROkn4S9030HpLQ7G16x00HaTG067KA2nUNdqUWAgvmS_6TdExHuaFVXM6yASQ4UaYUqeoLUJLPDeI9xFO-A5gsugObuGnpQT_eU2vzqGbvfu-5IQllpWtezexltlkh1-BKEoORDtP_e0]--></g></svg>