<?xml version="1.0" encoding="us-ascii" standalone="no"?><svg xmlns="http://www.w3.org/2000/svg" xmlns:xlink="http://www.w3.org/1999/xlink" contentStyleType="text/css" height="349px" preserveAspectRatio="none" style="width:369px;height:349px;background:#FFFFFF;" version="1.1" viewBox="0 0 369 349" width="369px" zoomAndPan="magnify"><defs/><g><line style="stroke:#181818;stroke-width:0.5;stroke-dasharray:5.0,5.0;" x1="32" x2="32" y1="82.6094" y2="267.3672"/><line style="stroke:#181818;stroke-width:0.5;stroke-dasharray:5.0,5.0;" x1="225" x2="225" y1="82.6094" y2="267.3672"/><line style="stroke:#181818;stroke-width:0.5;stroke-dasharray:5.0,5.0;" x1="344" x2="344" y1="82.6094" y2="267.3672"/><text fill="#000000" font-family="sans-serif" font-size="14" lengthAdjust="spacing" textLength="48" x="5" y="79.5332">Usuario</text><ellipse cx="32" cy="13.5" fill="#E2E2F0" rx="8" ry="8" style="stroke:#181818;stroke-width:0.5;"/><path d="M32,21.5 L32,48.5 M19,29.5 L45,29.5 M32,48.5 L19,63.5 M32,48.5 L45,63.5 " fill="none" style="stroke:#181818;stroke-width:0.5;"/><text fill="#000000" font-family="sans-serif" font-size="14" lengthAdjust="spacing" textLength="48" x="5" y="280.9004">Usuario</text><ellipse cx="32" cy="292.4766" fill="#E2E2F0" rx="8" ry="8" style="stroke:#181818;stroke-width:0.5;"/><path d="M32,300.4766 L32,327.4766 M19,308.4766 L45,308.4766 M32,327.4766 L19,342.4766 M32,327.4766 L45,342.4766 " fill="none" style="stroke:#181818;stroke-width:0.5;"/><rect fill="#E2E2F0" height="31.6094" rx="2.5" ry="2.5" style="stroke:#181818;stroke-width:0.5;" width="52" x="199" y="50"/><text fill="#000000" font-family="sans-serif" font-size="14" lengthAdjust="spacing" textLength="38" x="206" y="71.5332">Ticket</text><rect fill="#E2E2F0" height="31.6094" rx="2.5" ry="2.5" style="stroke:#181818;stroke-width:0.5;" width="52" x="199" y="266.3672"/><text fill="#000000" font-family="sans-serif" font-size="14" lengthAdjust="spacing" textLength="38" x="206" y="287.9004">Ticket</text><rect fill="#E2E2F0" height="31.6094" rx="2.5" ry="2.5" style="stroke:#181818;stroke-width:0.5;" width="38" x="325" y="50"/><text fill="#000000" font-family="sans-serif" font-size="14" lengthAdjust="spacing" textLength="24" x="332" y="71.5332">Hito</text><rect fill="#E2E2F0" height="31.6094" rx="2.5" ry="2.5" style="stroke:#181818;stroke-width:0.5;" width="38" x="325" y="266.3672"/><text fill="#000000" font-family="sans-serif" font-size="14" lengthAdjust="spacing" textLength="24" x="332" y="287.9004">Hito</text><polygon fill="#181818" points="213,110.9609,223,114.9609,213,118.9609,217,114.9609" style="stroke:#181818;stroke-width:1.0;"/><line style="stroke:#181818;stroke-width:1.0;" x1="32" x2="219" y1="114.9609" y2="114.9609"/><text fill="#000000" font-family="sans-serif" font-size="13" lengthAdjust="spacing" textLength="169" x="39" y="110.1045">cambiarEstado(nuevoEstado)</text><line style="stroke:#181818;stroke-width:1.0;" x1="225" x2="267" y1="145.3125" y2="145.3125"/><line style="stroke:#181818;stroke-width:1.0;" x1="267" x2="267" y1="145.3125" y2="158.3125"/><line style="stroke:#181818;stroke-width:1.0;" x1="226" x2="267" y1="158.3125" y2="158.3125"/><polygon fill="#181818" points="236,154.3125,226,158.3125,236,162.3125,232,158.3125" style="stroke:#181818;stroke-width:1.0;"/><text fill="#000000" font-family="sans-serif" font-size="13" lengthAdjust="spacing" textLength="105" x="232" y="140.4561">actualizarEstado()</text><polygon fill="#181818" points="332,184.6641,342,188.6641,332,192.6641,336,188.6641" style="stroke:#181818;stroke-width:1.0;"/><line style="stroke:#181818;stroke-width:1.0;" x1="225" x2="338" y1="188.6641" y2="188.6641"/><text fill="#000000" font-family="sans-serif" font-size="13" lengthAdjust="spacing" textLength="55" x="232" y="183.8076">registrar()</text><polygon fill="#181818" points="236,215.0156,226,219.0156,236,223.0156,232,219.0156" style="stroke:#181818;stroke-width:1.0;"/><line style="stroke:#181818;stroke-width:1.0;stroke-dasharray:2.0,2.0;" x1="230" x2="343" y1="219.0156" y2="219.0156"/><text fill="#000000" font-family="sans-serif" font-size="13" lengthAdjust="spacing" textLength="82" x="242" y="214.1592">hito registrado</text><polygon fill="#181818" points="43,245.3672,33,249.3672,43,253.3672,39,249.3672" style="stroke:#181818;stroke-width:1.0;"/><line style="stroke:#181818;stroke-width:1.0;stroke-dasharray:2.0,2.0;" x1="37" x2="224" y1="249.3672" y2="249.3672"/><text fill="#000000" font-family="sans-serif" font-size="13" lengthAdjust="spacing" textLength="109" x="49" y="244.5107">estado actualizado</text><!--SRC=[LSuz3i8m30NWFQVm24Clq84DYGF00HvkH2sWgHo7WTEJbFHlivw_F0TiGUaM4rI2SoFKX6N4O7GLVdhRHHUnZAgcvbGDjSHutmLwZeOk78RaF-4_7vshQCl1bl2Ix_9YnygPZDG_99f2otRAccr7NvBPT64jo6Z-Oaj-wbyFPlW3]--></g></svg>