<?xml version="1.0" encoding="us-ascii" standalone="no"?><svg xmlns="http://www.w3.org/2000/svg" xmlns:xlink="http://www.w3.org/1999/xlink" contentStyleType="text/css" height="366px" preserveAspectRatio="none" style="width:407px;height:366px;background:#FFFFFF;" version="1.1" viewBox="0 0 407 366" width="407px" zoomAndPan="magnify"><defs/><g><line style="stroke:#181818;stroke-width:0.5;stroke-dasharray:5.0,5.0;" x1="29" x2="29" y1="82.6094" y2="284.7188"/><line style="stroke:#181818;stroke-width:0.5;stroke-dasharray:5.0,5.0;" x1="236.5" x2="236.5" y1="82.6094" y2="284.7188"/><line style="stroke:#181818;stroke-width:0.5;stroke-dasharray:5.0,5.0;" x1="379.5" x2="379.5" y1="82.6094" y2="284.7188"/><text fill="#000000" font-family="sans-serif" font-size="14" lengthAdjust="spacing" textLength="23" x="15" y="79.5332">GUI</text><path d="M9,37 L9,61 M9,49 L26,49 " fill="none" style="stroke:#181818;stroke-width:0.5;"/><ellipse cx="38" cy="49" fill="#E2E2F0" rx="12" ry="12" style="stroke:#181818;stroke-width:0.5;"/><text fill="#000000" font-family="sans-serif" font-size="14" lengthAdjust="spacing" textLength="23" x="15" y="298.252">GUI</text><path d="M9,305.3281 L9,329.3281 M9,317.3281 L26,317.3281 " fill="none" style="stroke:#181818;stroke-width:0.5;"/><ellipse cx="38" cy="317.3281" fill="#E2E2F0" rx="12" ry="12" style="stroke:#181818;stroke-width:0.5;"/><text fill="#000000" font-family="sans-serif" font-size="14" lengthAdjust="spacing" textLength="84" x="191.5" y="79.5332">ControlTicket</text><ellipse cx="236.5" cy="49" fill="#E2E2F0" rx="12" ry="12" style="stroke:#181818;stroke-width:0.5;"/><polygon fill="#181818" points="232.5,37,238.5,32,236.5,37,238.5,42,232.5,37" style="stroke:#181818;stroke-width:1.0;"/><text fill="#000000" font-family="sans-serif" font-size="14" lengthAdjust="spacing" textLength="84" x="191.5" y="298.252">ControlTicket</text><ellipse cx="236.5" cy="317.3281" fill="#E2E2F0" rx="12" ry="12" style="stroke:#181818;stroke-width:0.5;"/><polygon fill="#181818" points="232.5,305.3281,238.5,300.3281,236.5,305.3281,238.5,310.3281,232.5,305.3281" style="stroke:#181818;stroke-width:1.0;"/><text fill="#000000" font-family="sans-serif" font-size="14" lengthAdjust="spacing" textLength="48" x="352.5" y="79.5332">Usuario</text><ellipse cx="379.5" cy="13.5" fill="#E2E2F0" rx="8" ry="8" style="stroke:#181818;stroke-width:0.5;"/><path d="M379.5,21.5 L379.5,48.5 M366.5,29.5 L392.5,29.5 M379.5,48.5 L366.5,63.5 M379.5,48.5 L392.5,63.5 " fill="none" style="stroke:#181818;stroke-width:0.5;"/><text fill="#000000" font-family="sans-serif" font-size="14" lengthAdjust="spacing" textLength="48" x="352.5" y="298.252">Usuario</text><ellipse cx="379.5" cy="309.8281" fill="#E2E2F0" rx="8" ry="8" style="stroke:#181818;stroke-width:0.5;"/><path d="M379.5,317.8281 L379.5,344.8281 M366.5,325.8281 L392.5,325.8281 M379.5,344.8281 L366.5,359.8281 M379.5,344.8281 L392.5,359.8281 " fill="none" style="stroke:#181818;stroke-width:0.5;"/><polygon fill="#181818" points="40.5,110.9609,30.5,114.9609,40.5,118.9609,36.5,114.9609" style="stroke:#181818;stroke-width:1.0;"/><line style="stroke:#181818;stroke-width:1.0;" x1="34.5" x2="378.5" y1="114.9609" y2="114.9609"/><text fill="#000000" font-family="sans-serif" font-size="13" lengthAdjust="spacing" textLength="171" x="46.5" y="110.1045">Ingresar usuario y contrase&#241;a</text><polygon fill="#181818" points="224.5,141.3125,234.5,145.3125,224.5,149.3125,228.5,145.3125" style="stroke:#181818;stroke-width:1.0;"/><line style="stroke:#181818;stroke-width:1.0;" x1="29.5" x2="230.5" y1="145.3125" y2="145.3125"/><text fill="#000000" font-family="sans-serif" font-size="13" lengthAdjust="spacing" textLength="183" x="36.5" y="140.4561">iniciarSesion(usuario,password)</text><polygon fill="#181818" points="367.5,171.6641,377.5,175.6641,367.5,179.6641,371.5,175.6641" style="stroke:#181818;stroke-width:1.0;"/><line style="stroke:#181818;stroke-width:1.0;" x1="236.5" x2="373.5" y1="175.6641" y2="175.6641"/><text fill="#000000" font-family="sans-serif" font-size="13" lengthAdjust="spacing" textLength="119" x="243.5" y="170.8076">validarCredenciales()</text><polygon fill="#181818" points="247.5,202.0156,237.5,206.0156,247.5,210.0156,243.5,206.0156" style="stroke:#181818;stroke-width:1.0;"/><line style="stroke:#181818;stroke-width:1.0;stroke-dasharray:2.0,2.0;" x1="241.5" x2="378.5" y1="206.0156" y2="206.0156"/><text fill="#000000" font-family="sans-serif" font-size="13" lengthAdjust="spacing" textLength="80" x="253.5" y="201.1592">Usuario v&#225;lido</text><polygon fill="#181818" points="40.5,232.3672,30.5,236.3672,40.5,240.3672,36.5,236.3672" style="stroke:#181818;stroke-width:1.0;"/><line style="stroke:#181818;stroke-width:1.0;stroke-dasharray:2.0,2.0;" x1="34.5" x2="235.5" y1="236.3672" y2="236.3672"/><text fill="#000000" font-family="sans-serif" font-size="13" lengthAdjust="spacing" textLength="101" x="46.5" y="231.5107">Acceso permitido</text><polygon fill="#181818" points="367.5,262.7188,377.5,266.7188,367.5,270.7188,371.5,266.7188" style="stroke:#181818;stroke-width:1.0;"/><line style="stroke:#181818;stroke-width:1.0;stroke-dasharray:2.0,2.0;" x1="29.5" x2="373.5" y1="266.7188" y2="266.7188"/><text fill="#000000" font-family="sans-serif" font-size="13" lengthAdjust="spacing" textLength="132" x="36.5" y="261.8623">Mostrar men&#250; principal</text><!--SRC=[ROyzZi9038Lxdy8bI7012YH4WIYeTZc0cLZ8sZ2Ex0aen-48jBIv64C8i15KCvBVztue93NSUaqc2h3JEXPa3QwsQmWQasc9oyVxA-6F4t1CafetqdzmEhz3ECDrt1ix6TRzfS7EYPpR2m7SLLaySCsOH0b2ziCk6aSzEwd8_QHMZ066G7Pu9i_mIANasalZWcDsATb7ut_LliGzRyVsd5dzi7_DMOJ0hbYn7IHrocx087-ZdlSP7ZYsLwnCSecAIhW1]--></g></svg>