<?xml version="1.0" encoding="us-ascii" standalone="no"?><svg xmlns="http://www.w3.org/2000/svg" xmlns:xlink="http://www.w3.org/1999/xlink" contentStyleType="text/css" height="488px" preserveAspectRatio="none" style="width:671px;height:488px;background:#FFFFFF;" version="1.1" viewBox="0 0 671 488" width="671px" zoomAndPan="magnify"><defs/><g><line style="stroke:#181818;stroke-width:0.5;stroke-dasharray:5.0,5.0;" x1="30" x2="30" y1="82.6094" y2="406.125"/><line style="stroke:#181818;stroke-width:0.5;stroke-dasharray:5.0,5.0;" x1="198.5" x2="198.5" y1="82.6094" y2="406.125"/><line style="stroke:#181818;stroke-width:0.5;stroke-dasharray:5.0,5.0;" x1="327" x2="327" y1="82.6094" y2="406.125"/><line style="stroke:#181818;stroke-width:0.5;stroke-dasharray:5.0,5.0;" x1="461" x2="461" y1="82.6094" y2="406.125"/><line style="stroke:#181818;stroke-width:0.5;stroke-dasharray:5.0,5.0;" x1="531" x2="531" y1="82.6094" y2="406.125"/><line style="stroke:#181818;stroke-width:0.5;stroke-dasharray:5.0,5.0;" x1="594" x2="594" y1="82.6094" y2="406.125"/><line style="stroke:#181818;stroke-width:0.5;stroke-dasharray:5.0,5.0;" x1="652" x2="652" y1="82.6094" y2="406.125"/><text fill="#000000" font-family="sans-serif" font-size="14" lengthAdjust="spacing" textLength="44" x="5" y="79.5332">Cliente</text><ellipse cx="30" cy="13.5" fill="#E2E2F0" rx="8" ry="8" style="stroke:#181818;stroke-width:0.5;"/><path d="M30,21.5 L30,48.5 M17,29.5 L43,29.5 M30,48.5 L17,63.5 M30,48.5 L43,63.5 " fill="none" style="stroke:#181818;stroke-width:0.5;"/><text fill="#000000" font-family="sans-serif" font-size="14" lengthAdjust="spacing" textLength="44" x="5" y="419.6582">Cliente</text><ellipse cx="30" cy="431.2344" fill="#E2E2F0" rx="8" ry="8" style="stroke:#181818;stroke-width:0.5;"/><path d="M30,439.2344 L30,466.2344 M17,447.2344 L43,447.2344 M30,466.2344 L17,481.2344 M30,466.2344 L43,481.2344 " fill="none" style="stroke:#181818;stroke-width:0.5;"/><text fill="#000000" font-family="sans-serif" font-size="14" lengthAdjust="spacing" textLength="23" x="184.5" y="79.5332">GUI</text><path d="M178.5,37 L178.5,61 M178.5,49 L195.5,49 " fill="none" style="stroke:#181818;stroke-width:0.5;"/><ellipse cx="207.5" cy="49" fill="#E2E2F0" rx="12" ry="12" style="stroke:#181818;stroke-width:0.5;"/><text fill="#000000" font-family="sans-serif" font-size="14" lengthAdjust="spacing" textLength="23" x="184.5" y="419.6582">GUI</text><path d="M178.5,426.7344 L178.5,450.7344 M178.5,438.7344 L195.5,438.7344 " fill="none" style="stroke:#181818;stroke-width:0.5;"/><ellipse cx="207.5" cy="438.7344" fill="#E2E2F0" rx="12" ry="12" style="stroke:#181818;stroke-width:0.5;"/><text fill="#000000" font-family="sans-serif" font-size="14" lengthAdjust="spacing" textLength="84" x="282" y="79.5332">ControlTicket</text><ellipse cx="327" cy="49" fill="#E2E2F0" rx="12" ry="12" style="stroke:#181818;stroke-width:0.5;"/><polygon fill="#181818" points="323,37,329,32,327,37,329,42,323,37" style="stroke:#181818;stroke-width:1.0;"/><text fill="#000000" font-family="sans-serif" font-size="14" lengthAdjust="spacing" textLength="84" x="282" y="419.6582">ControlTicket</text><ellipse cx="327" cy="438.7344" fill="#E2E2F0" rx="12" ry="12" style="stroke:#181818;stroke-width:0.5;"/><polygon fill="#181818" points="323,426.7344,329,421.7344,327,426.7344,329,431.7344,323,426.7344" style="stroke:#181818;stroke-width:1.0;"/><text fill="#000000" font-family="sans-serif" font-size="14" lengthAdjust="spacing" textLength="70" x="423" y="79.5332">ControlHito</text><ellipse cx="461" cy="49" fill="#E2E2F0" rx="12" ry="12" style="stroke:#181818;stroke-width:0.5;"/><polygon fill="#181818" points="457,37,463,32,461,37,463,42,457,37" style="stroke:#181818;stroke-width:1.0;"/><text fill="#000000" font-family="sans-serif" font-size="14" lengthAdjust="spacing" textLength="70" x="423" y="419.6582">ControlHito</text><ellipse cx="461" cy="438.7344" fill="#E2E2F0" rx="12" ry="12" style="stroke:#181818;stroke-width:0.5;"/><polygon fill="#181818" points="457,426.7344,463,421.7344,461,426.7344,463,431.7344,457,426.7344" style="stroke:#181818;stroke-width:1.0;"/><text fill="#000000" font-family="sans-serif" font-size="14" lengthAdjust="spacing" textLength="38" x="509" y="79.5332">Ticket</text><ellipse cx="531" cy="49" fill="#E2E2F0" rx="12" ry="12" style="stroke:#181818;stroke-width:0.5;"/><line style="stroke:#181818;stroke-width:0.5;" x1="519" x2="543" y1="63" y2="63"/><text fill="#000000" font-family="sans-serif" font-size="14" lengthAdjust="spacing" textLength="38" x="509" y="419.6582">Ticket</text><ellipse cx="531" cy="438.7344" fill="#E2E2F0" rx="12" ry="12" style="stroke:#181818;stroke-width:0.5;"/><line style="stroke:#181818;stroke-width:0.5;" x1="519" x2="543" y1="452.7344" y2="452.7344"/><text fill="#000000" font-family="sans-serif" font-size="14" lengthAdjust="spacing" textLength="57" x="563" y="79.5332">Producto</text><ellipse cx="594.5" cy="49" fill="#E2E2F0" rx="12" ry="12" style="stroke:#181818;stroke-width:0.5;"/><line style="stroke:#181818;stroke-width:0.5;" x1="582.5" x2="606.5" y1="63" y2="63"/><text fill="#000000" font-family="sans-serif" font-size="14" lengthAdjust="spacing" textLength="57" x="563" y="419.6582">Producto</text><ellipse cx="594.5" cy="438.7344" fill="#E2E2F0" rx="12" ry="12" style="stroke:#181818;stroke-width:0.5;"/><line style="stroke:#181818;stroke-width:0.5;" x1="582.5" x2="606.5" y1="452.7344" y2="452.7344"/><text fill="#000000" font-family="sans-serif" font-size="14" lengthAdjust="spacing" textLength="24" x="637" y="79.5332">Hito</text><ellipse cx="652" cy="49" fill="#E2E2F0" rx="12" ry="12" style="stroke:#181818;stroke-width:0.5;"/><line style="stroke:#181818;stroke-width:0.5;" x1="640" x2="664" y1="63" y2="63"/><text fill="#000000" font-family="sans-serif" font-size="14" lengthAdjust="spacing" textLength="24" x="637" y="419.6582">Hito</text><ellipse cx="652" cy="438.7344" fill="#E2E2F0" rx="12" ry="12" style="stroke:#181818;stroke-width:0.5;"/><line style="stroke:#181818;stroke-width:0.5;" x1="640" x2="664" y1="452.7344" y2="452.7344"/><polygon fill="#181818" points="187,110.9609,197,114.9609,187,118.9609,191,114.9609" style="stroke:#181818;stroke-width:1.0;"/><line style="stroke:#181818;stroke-width:1.0;" x1="30" x2="193" y1="114.9609" y2="114.9609"/><text fill="#000000" font-family="sans-serif" font-size="13" lengthAdjust="spacing" textLength="70" x="37" y="110.1045">Crear Ticket</text><polygon fill="#181818" points="315,141.3125,325,145.3125,315,149.3125,319,145.3125" style="stroke:#181818;stroke-width:1.0;"/><line style="stroke:#181818;stroke-width:1.0;" x1="199" x2="321" y1="145.3125" y2="145.3125"/><text fill="#000000" font-family="sans-serif" font-size="13" lengthAdjust="spacing" textLength="104" x="206" y="140.4561">crearTicket(datos)</text><polygon fill="#181818" points="519,171.6641,529,175.6641,519,179.6641,523,175.6641" style="stroke:#181818;stroke-width:1.0;"/><line style="stroke:#181818;stroke-width:1.0;" x1="327" x2="525" y1="175.6641" y2="175.6641"/><text fill="#000000" font-family="sans-serif" font-size="13" lengthAdjust="spacing" textLength="37" x="334" y="170.8076">crear()</text><polygon fill="#181818" points="582.5,202.0156,592.5,206.0156,582.5,210.0156,586.5,206.0156" style="stroke:#181818;stroke-width:1.0;"/><line style="stroke:#181818;stroke-width:1.0;" x1="327" x2="588.5" y1="206.0156" y2="206.0156"/><text fill="#000000" font-family="sans-serif" font-size="13" lengthAdjust="spacing" textLength="102" x="334" y="201.1592">asociarProducto()</text><polygon fill="#181818" points="338,232.3672,328,236.3672,338,240.3672,334,236.3672" style="stroke:#181818;stroke-width:1.0;"/><line style="stroke:#181818;stroke-width:1.0;stroke-dasharray:2.0,2.0;" x1="332" x2="593.5" y1="236.3672" y2="236.3672"/><text fill="#000000" font-family="sans-serif" font-size="13" lengthAdjust="spacing" textLength="108" x="344" y="231.5107">Producto asociado</text><polygon fill="#181818" points="449,262.7188,459,266.7188,449,270.7188,453,266.7188" style="stroke:#181818;stroke-width:1.0;"/><line style="stroke:#181818;stroke-width:1.0;" x1="327" x2="455" y1="266.7188" y2="266.7188"/><text fill="#000000" font-family="sans-serif" font-size="13" lengthAdjust="spacing" textLength="110" x="334" y="261.8623">registrarHito(ticket)</text><polygon fill="#181818" points="640,293.0703,650,297.0703,640,301.0703,644,297.0703" style="stroke:#181818;stroke-width:1.0;"/><line style="stroke:#181818;stroke-width:1.0;" x1="461" x2="646" y1="297.0703" y2="297.0703"/><text fill="#000000" font-family="sans-serif" font-size="13" lengthAdjust="spacing" textLength="37" x="468" y="292.2139">crear()</text><polygon fill="#181818" points="472,323.4219,462,327.4219,472,331.4219,468,327.4219" style="stroke:#181818;stroke-width:1.0;"/><line style="stroke:#181818;stroke-width:1.0;stroke-dasharray:2.0,2.0;" x1="466" x2="651" y1="327.4219" y2="327.4219"/><text fill="#000000" font-family="sans-serif" font-size="13" lengthAdjust="spacing" textLength="84" x="478" y="322.5654">Hito registrado</text><polygon fill="#181818" points="210,353.7734,200,357.7734,210,361.7734,206,357.7734" style="stroke:#181818;stroke-width:1.0;"/><line style="stroke:#181818;stroke-width:1.0;stroke-dasharray:2.0,2.0;" x1="204" x2="326" y1="357.7734" y2="357.7734"/><text fill="#000000" font-family="sans-serif" font-size="13" lengthAdjust="spacing" textLength="78" x="216" y="352.917">Ticket creado</text><polygon fill="#181818" points="41,384.125,31,388.125,41,392.125,37,388.125" style="stroke:#181818;stroke-width:1.0;"/><line style="stroke:#181818;stroke-width:1.0;stroke-dasharray:2.0,2.0;" x1="35" x2="198" y1="388.125" y2="388.125"/><text fill="#000000" font-family="sans-serif" font-size="13" lengthAdjust="spacing" textLength="145" x="47" y="383.2686">Mostrar n&#250;mero de ticket</text><!--SRC=[RP0z3i8m38NtdC9Z6Ng13YmTW0690GuGaWX5b5XopT2hiN8nybyAdIpRttj-ibIC1FrWZMCZn1MVJakQO7Sv28ME2GVeKprRTJVyEzrRHk75bYV8HEvEXFgfvcqaHJu5xJRSW0vwCfAAL8IPNorEUaW5A7MDbepZnZij62zQqiqQKZ9vI8wehAGo2NZTjYiHwZ89DQxOV_t4AyZSxCWaAVGDHseE5I6loN3DdEP_Ph4KnvNZzPzv4Fm25XyQtFBVEpXY30Nk_NeOGj06KZRn0G00]--></g></svg>