<?xml version="1.0" encoding="us-ascii" standalone="no"?><svg xmlns="http://www.w3.org/2000/svg" xmlns:xlink="http://www.w3.org/1999/xlink" contentStyleType="text/css" height="548px" preserveAspectRatio="none" style="width:1065px;height:548px;background:#FFFFFF;" version="1.1" viewBox="0 0 1065 548" width="1065px" zoomAndPan="magnify"><defs/><g><line style="stroke:#181818;stroke-width:0.5;stroke-dasharray:5.0,5.0;" x1="55" x2="55" y1="82.6094" y2="466.8281"/><line style="stroke:#181818;stroke-width:0.5;stroke-dasharray:5.0,5.0;" x1="253.5" x2="253.5" y1="82.6094" y2="466.8281"/><line style="stroke:#181818;stroke-width:0.5;stroke-dasharray:5.0,5.0;" x1="496" x2="496" y1="82.6094" y2="466.8281"/><line style="stroke:#181818;stroke-width:0.5;stroke-dasharray:5.0,5.0;" x1="712" x2="712" y1="82.6094" y2="466.8281"/><line style="stroke:#181818;stroke-width:0.5;stroke-dasharray:5.0,5.0;" x1="829" x2="829" y1="82.6094" y2="466.8281"/><line style="stroke:#181818;stroke-width:0.5;stroke-dasharray:5.0,5.0;" x1="931" x2="931" y1="82.6094" y2="466.8281"/><line style="stroke:#181818;stroke-width:0.5;stroke-dasharray:5.0,5.0;" x1="979" x2="979" y1="82.6094" y2="466.8281"/><line style="stroke:#181818;stroke-width:0.5;stroke-dasharray:5.0,5.0;" x1="1034" x2="1034" y1="82.6094" y2="466.8281"/><text fill="#000000" font-family="sans-serif" font-size="14" lengthAdjust="spacing" textLength="94" x="5" y="79.5332">Representante</text><ellipse cx="55" cy="13.5" fill="#E2E2F0" rx="8" ry="8" style="stroke:#181818;stroke-width:0.5;"/><path d="M55,21.5 L55,48.5 M42,29.5 L68,29.5 M55,48.5 L42,63.5 M55,48.5 L68,63.5 " fill="none" style="stroke:#181818;stroke-width:0.5;"/><text fill="#000000" font-family="sans-serif" font-size="14" lengthAdjust="spacing" textLength="94" x="5" y="480.3613">Representante</text><ellipse cx="55" cy="491.9375" fill="#E2E2F0" rx="8" ry="8" style="stroke:#181818;stroke-width:0.5;"/><path d="M55,499.9375 L55,526.9375 M42,507.9375 L68,507.9375 M55,526.9375 L42,541.9375 M55,526.9375 L68,541.9375 " fill="none" style="stroke:#181818;stroke-width:0.5;"/><text fill="#000000" font-family="sans-serif" font-size="14" lengthAdjust="spacing" textLength="23" x="239.5" y="79.5332">GUI</text><path d="M233.5,37 L233.5,61 M233.5,49 L250.5,49 " fill="none" style="stroke:#181818;stroke-width:0.5;"/><ellipse cx="262.5" cy="49" fill="#E2E2F0" rx="12" ry="12" style="stroke:#181818;stroke-width:0.5;"/><text fill="#000000" font-family="sans-serif" font-size="14" lengthAdjust="spacing" textLength="23" x="239.5" y="480.3613">GUI</text><path d="M233.5,487.4375 L233.5,511.4375 M233.5,499.4375 L250.5,499.4375 " fill="none" style="stroke:#181818;stroke-width:0.5;"/><ellipse cx="262.5" cy="499.4375" fill="#E2E2F0" rx="12" ry="12" style="stroke:#181818;stroke-width:0.5;"/><text fill="#000000" font-family="sans-serif" font-size="14" lengthAdjust="spacing" textLength="84" x="451" y="79.5332">ControlTicket</text><ellipse cx="496" cy="49" fill="#E2E2F0" rx="12" ry="12" style="stroke:#181818;stroke-width:0.5;"/><polygon fill="#181818" points="492,37,498,32,496,37,498,42,492,37" style="stroke:#181818;stroke-width:1.0;"/><text fill="#000000" font-family="sans-serif" font-size="14" lengthAdjust="spacing" textLength="84" x="451" y="480.3613">ControlTicket</text><ellipse cx="496" cy="499.4375" fill="#E2E2F0" rx="12" ry="12" style="stroke:#181818;stroke-width:0.5;"/><polygon fill="#181818" points="492,487.4375,498,482.4375,496,487.4375,498,492.4375,492,487.4375" style="stroke:#181818;stroke-width:1.0;"/><text fill="#000000" font-family="sans-serif" font-size="14" lengthAdjust="spacing" textLength="70" x="674" y="79.5332">ControlHito</text><ellipse cx="712" cy="49" fill="#E2E2F0" rx="12" ry="12" style="stroke:#181818;stroke-width:0.5;"/><polygon fill="#181818" points="708,37,714,32,712,37,714,42,708,37" style="stroke:#181818;stroke-width:1.0;"/><text fill="#000000" font-family="sans-serif" font-size="14" lengthAdjust="spacing" textLength="70" x="674" y="480.3613">ControlHito</text><ellipse cx="712" cy="499.4375" fill="#E2E2F0" rx="12" ry="12" style="stroke:#181818;stroke-width:0.5;"/><polygon fill="#181818" points="708,487.4375,714,482.4375,712,487.4375,714,492.4375,708,487.4375" style="stroke:#181818;stroke-width:1.0;"/><text fill="#000000" font-family="sans-serif" font-size="14" lengthAdjust="spacing" textLength="133" x="760" y="79.5332">ControlNotificaciones</text><ellipse cx="829.5" cy="49" fill="#E2E2F0" rx="12" ry="12" style="stroke:#181818;stroke-width:0.5;"/><polygon fill="#181818" points="825.5,37,831.5,32,829.5,37,831.5,42,825.5,37" style="stroke:#181818;stroke-width:1.0;"/><text fill="#000000" font-family="sans-serif" font-size="14" lengthAdjust="spacing" textLength="133" x="760" y="480.3613">ControlNotificaciones</text><ellipse cx="829.5" cy="499.4375" fill="#E2E2F0" rx="12" ry="12" style="stroke:#181818;stroke-width:0.5;"/><polygon fill="#181818" points="825.5,487.4375,831.5,482.4375,829.5,487.4375,831.5,492.4375,825.5,487.4375" style="stroke:#181818;stroke-width:1.0;"/><text fill="#000000" font-family="sans-serif" font-size="14" lengthAdjust="spacing" textLength="38" x="909" y="79.5332">Ticket</text><ellipse cx="931" cy="49" fill="#E2E2F0" rx="12" ry="12" style="stroke:#181818;stroke-width:0.5;"/><line style="stroke:#181818;stroke-width:0.5;" x1="919" x2="943" y1="63" y2="63"/><text fill="#000000" font-family="sans-serif" font-size="14" lengthAdjust="spacing" textLength="38" x="909" y="480.3613">Ticket</text><ellipse cx="931" cy="499.4375" fill="#E2E2F0" rx="12" ry="12" style="stroke:#181818;stroke-width:0.5;"/><line style="stroke:#181818;stroke-width:0.5;" x1="919" x2="943" y1="513.4375" y2="513.4375"/><text fill="#000000" font-family="sans-serif" font-size="14" lengthAdjust="spacing" textLength="24" x="964" y="79.5332">Hito</text><ellipse cx="979" cy="49" fill="#E2E2F0" rx="12" ry="12" style="stroke:#181818;stroke-width:0.5;"/><line style="stroke:#181818;stroke-width:0.5;" x1="967" x2="991" y1="63" y2="63"/><text fill="#000000" font-family="sans-serif" font-size="14" lengthAdjust="spacing" textLength="24" x="964" y="480.3613">Hito</text><ellipse cx="979" cy="499.4375" fill="#E2E2F0" rx="12" ry="12" style="stroke:#181818;stroke-width:0.5;"/><line style="stroke:#181818;stroke-width:0.5;" x1="967" x2="991" y1="513.4375" y2="513.4375"/><text fill="#000000" font-family="sans-serif" font-size="14" lengthAdjust="spacing" textLength="53" x="1005" y="79.5332">Mensaje</text><ellipse cx="1034.5" cy="49" fill="#E2E2F0" rx="12" ry="12" style="stroke:#181818;stroke-width:0.5;"/><line style="stroke:#181818;stroke-width:0.5;" x1="1022.5" x2="1046.5" y1="63" y2="63"/><text fill="#000000" font-family="sans-serif" font-size="14" lengthAdjust="spacing" textLength="53" x="1005" y="480.3613">Mensaje</text><ellipse cx="1034.5" cy="499.4375" fill="#E2E2F0" rx="12" ry="12" style="stroke:#181818;stroke-width:0.5;"/><line style="stroke:#181818;stroke-width:0.5;" x1="1022.5" x2="1046.5" y1="513.4375" y2="513.4375"/><polygon fill="#181818" points="242,110.9609,252,114.9609,242,118.9609,246,114.9609" style="stroke:#181818;stroke-width:1.0;"/><line style="stroke:#181818;stroke-width:1.0;" x1="55" x2="248" y1="114.9609" y2="114.9609"/><text fill="#000000" font-family="sans-serif" font-size="13" lengthAdjust="spacing" textLength="175" x="62" y="110.1045">Seleccionar "Cambiar Estado"</text><polygon fill="#181818" points="484,141.3125,494,145.3125,484,149.3125,488,145.3125" style="stroke:#181818;stroke-width:1.0;"/><line style="stroke:#181818;stroke-width:1.0;" x1="254" x2="490" y1="145.3125" y2="145.3125"/><text fill="#000000" font-family="sans-serif" font-size="13" lengthAdjust="spacing" textLength="218" x="261" y="140.4561">cambiarEstado(idTicket,nuevoEstado)</text><polygon fill="#181818" points="919,171.6641,929,175.6641,919,179.6641,923,175.6641" style="stroke:#181818;stroke-width:1.0;"/><line style="stroke:#181818;stroke-width:1.0;" x1="496" x2="925" y1="175.6641" y2="175.6641"/><text fill="#000000" font-family="sans-serif" font-size="13" lengthAdjust="spacing" textLength="169" x="503" y="170.8076">cambiarEstado(nuevoEstado)</text><polygon fill="#181818" points="507,202.0156,497,206.0156,507,210.0156,503,206.0156" style="stroke:#181818;stroke-width:1.0;"/><line style="stroke:#181818;stroke-width:1.0;stroke-dasharray:2.0,2.0;" x1="501" x2="930" y1="206.0156" y2="206.0156"/><text fill="#000000" font-family="sans-serif" font-size="13" lengthAdjust="spacing" textLength="111" x="513" y="201.1592">Estado actualizado</text><polygon fill="#181818" points="700,232.3672,710,236.3672,700,240.3672,704,236.3672" style="stroke:#181818;stroke-width:1.0;"/><line style="stroke:#181818;stroke-width:1.0;" x1="496" x2="706" y1="236.3672" y2="236.3672"/><text fill="#000000" font-family="sans-serif" font-size="13" lengthAdjust="spacing" textLength="192" x="503" y="231.5107">registrarHito(ticket, nuevoEstado)</text><polygon fill="#181818" points="967,262.7188,977,266.7188,967,270.7188,971,266.7188" style="stroke:#181818;stroke-width:1.0;"/><line style="stroke:#181818;stroke-width:1.0;" x1="712" x2="973" y1="266.7188" y2="266.7188"/><text fill="#000000" font-family="sans-serif" font-size="13" lengthAdjust="spacing" textLength="37" x="719" y="261.8623">crear()</text><polygon fill="#181818" points="723,293.0703,713,297.0703,723,301.0703,719,297.0703" style="stroke:#181818;stroke-width:1.0;"/><line style="stroke:#181818;stroke-width:1.0;stroke-dasharray:2.0,2.0;" x1="717" x2="978" y1="297.0703" y2="297.0703"/><text fill="#000000" font-family="sans-serif" font-size="13" lengthAdjust="spacing" textLength="84" x="729" y="292.2139">Hito registrado</text><polygon fill="#181818" points="817.5,323.4219,827.5,327.4219,817.5,331.4219,821.5,327.4219" style="stroke:#181818;stroke-width:1.0;"/><line style="stroke:#181818;stroke-width:1.0;" x1="496" x2="823.5" y1="327.4219" y2="327.4219"/><text fill="#000000" font-family="sans-serif" font-size="13" lengthAdjust="spacing" textLength="125" x="503" y="322.5654">notificarCliente(ticket)</text><polygon fill="#181818" points="1022.5,353.7734,1032.5,357.7734,1022.5,361.7734,1026.5,357.7734" style="stroke:#181818;stroke-width:1.0;"/><line style="stroke:#181818;stroke-width:1.0;" x1="829.5" x2="1028.5" y1="357.7734" y2="357.7734"/><text fill="#000000" font-family="sans-serif" font-size="13" lengthAdjust="spacing" textLength="86" x="836.5" y="352.917">crearMensaje()</text><polygon fill="#181818" points="840.5,384.125,830.5,388.125,840.5,392.125,836.5,388.125" style="stroke:#181818;stroke-width:1.0;"/><line style="stroke:#181818;stroke-width:1.0;stroke-dasharray:2.0,2.0;" x1="834.5" x2="1033.5" y1="388.125" y2="388.125"/><text fill="#000000" font-family="sans-serif" font-size="13" lengthAdjust="spacing" textLength="106" x="846.5" y="383.2686">Mensaje generado</text><polygon fill="#181818" points="265,414.4766,255,418.4766,265,422.4766,261,418.4766" style="stroke:#181818;stroke-width:1.0;"/><line style="stroke:#181818;stroke-width:1.0;stroke-dasharray:2.0,2.0;" x1="259" x2="495" y1="418.4766" y2="418.4766"/><text fill="#000000" font-family="sans-serif" font-size="13" lengthAdjust="spacing" textLength="75" x="271" y="413.6201">Confirmaci&#243;n</text><polygon fill="#181818" points="66,444.8281,56,448.8281,66,452.8281,62,448.8281" style="stroke:#181818;stroke-width:1.0;"/><line style="stroke:#181818;stroke-width:1.0;stroke-dasharray:2.0,2.0;" x1="60" x2="253" y1="448.8281" y2="448.8281"/><text fill="#000000" font-family="sans-serif" font-size="13" lengthAdjust="spacing" textLength="111" x="72" y="443.9717">Estado actualizado</text><!--SRC=[VL9BJiGm3Dtd5D6iEX9p0HPiAWGiOC7d09xKCp9q4kIuICErE08NmsqI8ANCAixpUyzFSS19O7kFhumHlO0ND6OR1jy17-tLqurnmGk7thRfV2JtWZ97hqd27BiBGZjou2XuZ4RTIOusw_DjqkNw5ds4PnrVfR6RYp66FRSFsACRpO3jgeN3bhIuZ09TM1apSfHQfLIHIxn4QwXBZJC_u5j8uDgOMgGk_yWhLM4l34qK2qu6wEbTwuKPlrvE9OnxYiB0uxsHbD8knfmKQf2LZX6uMPi4_p6UZk9-AaYzBbNw373Raou3SwgV83E5MkKLbbJvgk5AOtDYNk7iqUDYrE-VeFYE-A3Ipm-VLw_D-jyihk4B]--></g></svg>