<?xml version="1.0" encoding="us-ascii" standalone="no"?><svg xmlns="http://www.w3.org/2000/svg" xmlns:xlink="http://www.w3.org/1999/xlink" contentStyleType="text/css" height="1008px" preserveAspectRatio="none" style="width:751px;height:1008px;background:#FFFFFF;" version="1.1" viewBox="0 0 751 1008" width="751px" zoomAndPan="magnify"><defs/><g><!--class GUI--><g id="elem_GUI"><rect codeLine="7" fill="#F1F1F1" height="93.9219" id="GUI" rx="2.5" ry="2.5" style="stroke:#181818;stroke-width:0.5;" width="129" x="371" y="33.5"/><ellipse cx="401.3" cy="54.8516" fill="#ADD1B2" rx="11" ry="11" style="stroke:#181818;stroke-width:1.0;"/><path d="M404.0656,50.7266 Q404.2219,50.5078 404.4094,50.3984 Q404.5969,50.2891 404.8156,50.2891 Q405.1906,50.2891 405.425,50.5547 Q405.6594,50.8047 405.6594,51.4141 L405.6594,52.8672 Q405.6594,53.4766 405.425,53.7422 Q405.1906,54.0078 404.8156,54.0078 Q404.4719,54.0078 404.2688,53.8047 Q404.0656,53.6172 403.9563,53.1016 Q403.9094,52.7422 403.7219,52.5547 Q403.3938,52.1797 402.7844,51.9609 Q402.175,51.7422 401.55,51.7422 Q400.7844,51.7422 400.1438,52.0703 Q399.5188,52.3984 399.0188,53.1484 Q398.5344,53.8984 398.5344,54.9297 L398.5344,56.0234 Q398.5344,57.2578 399.425,58.0859 Q400.3156,58.8984 401.9094,58.8984 Q402.8469,58.8984 403.5031,58.6484 Q403.8938,58.4922 404.3156,58.0547 Q404.5813,57.7891 404.7219,57.7109 Q404.8781,57.6328 405.0813,57.6328 Q405.4094,57.6328 405.6594,57.8984 Q405.925,58.1484 405.925,58.4922 Q405.925,58.8359 405.5813,59.2422 Q405.0813,59.8203 404.2844,60.1484 Q403.2063,60.6016 401.9094,60.6016 Q400.3938,60.6016 399.1906,59.9766 Q398.2063,59.4766 397.5188,58.4141 Q396.8313,57.3359 396.8313,56.0547 L396.8313,54.8984 Q396.8313,53.5703 397.4406,52.4297 Q398.0656,51.2734 399.1594,50.6641 Q400.2531,50.0391 401.4875,50.0391 Q402.2219,50.0391 402.8625,50.2109 Q403.5188,50.3672 404.0656,50.7266 Z " fill="#000000"/><text fill="#000000" font-family="sans-serif" font-size="12" font-style="italic" lengthAdjust="spacing" textLength="67" x="416.7" y="50.957">&#171;boundary&#187;</text><text fill="#000000" font-family="sans-serif" font-size="14" lengthAdjust="spacing" textLength="23" x="438.7" y="68.127">GUI</text><line style="stroke:#181818;stroke-width:0.5;" x1="372" x2="499" y1="76.2031" y2="76.2031"/><line style="stroke:#181818;stroke-width:0.5;" x1="372" x2="499" y1="84.2031" y2="84.2031"/><text fill="#000000" font-family="sans-serif" font-size="14" lengthAdjust="spacing" textLength="117" x="377" y="102.7363">+mostrarPantalla()</text><text fill="#000000" font-family="sans-serif" font-size="14" lengthAdjust="spacing" textLength="108" x="377" y="120.3457">+capturarDatos()</text></g><!--class ControlTicket--><g id="elem_ControlTicket"><rect codeLine="16" fill="#F1F1F1" height="129.1406" id="ControlTicket" rx="2.5" ry="2.5" style="stroke:#181818;stroke-width:0.5;" width="162" x="354.5" y="215"/><ellipse cx="390.2" cy="236.3516" fill="#ADD1B2" rx="11" ry="11" style="stroke:#181818;stroke-width:1.0;"/><path d="M392.9656,232.2266 Q393.1219,232.0078 393.3094,231.8984 Q393.4969,231.7891 393.7156,231.7891 Q394.0906,231.7891 394.325,232.0547 Q394.5594,232.3047 394.5594,232.9141 L394.5594,234.3672 Q394.5594,234.9766 394.325,235.2422 Q394.0906,235.5078 393.7156,235.5078 Q393.3719,235.5078 393.1688,235.3047 Q392.9656,235.1172 392.8563,234.6016 Q392.8094,234.2422 392.6219,234.0547 Q392.2938,233.6797 391.6844,233.4609 Q391.075,233.2422 390.45,233.2422 Q389.6844,233.2422 389.0438,233.5703 Q388.4188,233.8984 387.9188,234.6484 Q387.4344,235.3984 387.4344,236.4297 L387.4344,237.5234 Q387.4344,238.7578 388.325,239.5859 Q389.2156,240.3984 390.8094,240.3984 Q391.7469,240.3984 392.4031,240.1484 Q392.7938,239.9922 393.2156,239.5547 Q393.4813,239.2891 393.6219,239.2109 Q393.7781,239.1328 393.9813,239.1328 Q394.3094,239.1328 394.5594,239.3984 Q394.825,239.6484 394.825,239.9922 Q394.825,240.3359 394.4813,240.7422 Q393.9813,241.3203 393.1844,241.6484 Q392.1063,242.1016 390.8094,242.1016 Q389.2938,242.1016 388.0906,241.4766 Q387.1063,240.9766 386.4188,239.9141 Q385.7313,238.8359 385.7313,237.5547 L385.7313,236.3984 Q385.7313,235.0703 386.3406,233.9297 Q386.9656,232.7734 388.0594,232.1641 Q389.1531,231.5391 390.3875,231.5391 Q391.1219,231.5391 391.7625,231.7109 Q392.4188,231.8672 392.9656,232.2266 Z " fill="#000000"/><text fill="#000000" font-family="sans-serif" font-size="12" font-style="italic" lengthAdjust="spacing" textLength="51" x="425.3" y="232.457">&#171;control&#187;</text><text fill="#000000" font-family="sans-serif" font-size="14" lengthAdjust="spacing" textLength="84" x="408.8" y="249.627">ControlTicket</text><line style="stroke:#181818;stroke-width:0.5;" x1="355.5" x2="515.5" y1="257.7031" y2="257.7031"/><line style="stroke:#181818;stroke-width:0.5;" x1="355.5" x2="515.5" y1="265.7031" y2="265.7031"/><text fill="#000000" font-family="sans-serif" font-size="14" lengthAdjust="spacing" textLength="89" x="360.5" y="284.2363">+crearTicket()</text><text fill="#000000" font-family="sans-serif" font-size="14" lengthAdjust="spacing" textLength="112" x="360.5" y="301.8457">+cambiarEstado()</text><text fill="#000000" font-family="sans-serif" font-size="14" lengthAdjust="spacing" textLength="150" x="360.5" y="319.4551">+asignarTipoProducto()</text><text fill="#000000" font-family="sans-serif" font-size="14" lengthAdjust="spacing" textLength="114" x="360.5" y="337.0645">+consultarTicket()</text></g><!--class ControlHito--><g id="elem_ControlHito"><rect codeLine="23" fill="#F1F1F1" height="93.9219" id="ControlHito" rx="2.5" ry="2.5" style="stroke:#181818;stroke-width:0.5;" width="138" x="397.5" y="483.5"/><ellipse cx="428.7" cy="504.8516" fill="#ADD1B2" rx="11" ry="11" style="stroke:#181818;stroke-width:1.0;"/><path d="M431.4656,500.7266 Q431.6219,500.5078 431.8094,500.3984 Q431.9969,500.2891 432.2156,500.2891 Q432.5906,500.2891 432.825,500.5547 Q433.0594,500.8047 433.0594,501.4141 L433.0594,502.8672 Q433.0594,503.4766 432.825,503.7422 Q432.5906,504.0078 432.2156,504.0078 Q431.8719,504.0078 431.6688,503.8047 Q431.4656,503.6172 431.3563,503.1016 Q431.3094,502.7422 431.1219,502.5547 Q430.7938,502.1797 430.1844,501.9609 Q429.575,501.7422 428.95,501.7422 Q428.1844,501.7422 427.5438,502.0703 Q426.9188,502.3984 426.4188,503.1484 Q425.9344,503.8984 425.9344,504.9297 L425.9344,506.0234 Q425.9344,507.2578 426.825,508.0859 Q427.7156,508.8984 429.3094,508.8984 Q430.2469,508.8984 430.9031,508.6484 Q431.2938,508.4922 431.7156,508.0547 Q431.9813,507.7891 432.1219,507.7109 Q432.2781,507.6328 432.4813,507.6328 Q432.8094,507.6328 433.0594,507.8984 Q433.325,508.1484 433.325,508.4922 Q433.325,508.8359 432.9813,509.2422 Q432.4813,509.8203 431.6844,510.1484 Q430.6063,510.6016 429.3094,510.6016 Q427.7938,510.6016 426.5906,509.9766 Q425.6063,509.4766 424.9188,508.4141 Q424.2313,507.3359 424.2313,506.0547 L424.2313,504.8984 Q424.2313,503.5703 424.8406,502.4297 Q425.4656,501.2734 426.5594,500.6641 Q427.6531,500.0391 428.8875,500.0391 Q429.6219,500.0391 430.2625,500.2109 Q430.9188,500.3672 431.4656,500.7266 Z " fill="#000000"/><text fill="#000000" font-family="sans-serif" font-size="12" font-style="italic" lengthAdjust="spacing" textLength="51" x="455.8" y="500.957">&#171;control&#187;</text><text fill="#000000" font-family="sans-serif" font-size="14" lengthAdjust="spacing" textLength="70" x="446.3" y="518.127">ControlHito</text><line style="stroke:#181818;stroke-width:0.5;" x1="398.5" x2="534.5" y1="526.2031" y2="526.2031"/><line style="stroke:#181818;stroke-width:0.5;" x1="398.5" x2="534.5" y1="534.2031" y2="534.2031"/><text fill="#000000" font-family="sans-serif" font-size="14" lengthAdjust="spacing" textLength="95" x="403.5" y="552.7363">+registrarHito()</text><text fill="#000000" font-family="sans-serif" font-size="14" lengthAdjust="spacing" textLength="126" x="403.5" y="570.3457">+consultarHistorial()</text></g><!--class ControlNotificaciones--><g id="elem_ControlNotificaciones"><rect codeLine="28" fill="#F1F1F1" height="111.5313" id="ControlNotificaciones" rx="2.5" ry="2.5" style="stroke:#181818;stroke-width:0.5;" width="174" x="570.5" y="474.5"/><ellipse cx="589.55" cy="495.8516" fill="#ADD1B2" rx="11" ry="11" style="stroke:#181818;stroke-width:1.0;"/><path d="M592.3156,491.7266 Q592.4719,491.5078 592.6594,491.3984 Q592.8469,491.2891 593.0656,491.2891 Q593.4406,491.2891 593.675,491.5547 Q593.9094,491.8047 593.9094,492.4141 L593.9094,493.8672 Q593.9094,494.4766 593.675,494.7422 Q593.4406,495.0078 593.0656,495.0078 Q592.7219,495.0078 592.5188,494.8047 Q592.3156,494.6172 592.2063,494.1016 Q592.1594,493.7422 591.9719,493.5547 Q591.6438,493.1797 591.0344,492.9609 Q590.425,492.7422 589.8,492.7422 Q589.0344,492.7422 588.3938,493.0703 Q587.7688,493.3984 587.2688,494.1484 Q586.7844,494.8984 586.7844,495.9297 L586.7844,497.0234 Q586.7844,498.2578 587.675,499.0859 Q588.5656,499.8984 590.1594,499.8984 Q591.0969,499.8984 591.7531,499.6484 Q592.1438,499.4922 592.5656,499.0547 Q592.8313,498.7891 592.9719,498.7109 Q593.1281,498.6328 593.3313,498.6328 Q593.6594,498.6328 593.9094,498.8984 Q594.175,499.1484 594.175,499.4922 Q594.175,499.8359 593.8313,500.2422 Q593.3313,500.8203 592.5344,501.1484 Q591.4563,501.6016 590.1594,501.6016 Q588.6438,501.6016 587.4406,500.9766 Q586.4563,500.4766 585.7688,499.4141 Q585.0813,498.3359 585.0813,497.0547 L585.0813,495.8984 Q585.0813,494.5703 585.6906,493.4297 Q586.3156,492.2734 587.4094,491.6641 Q588.5031,491.0391 589.7375,491.0391 Q590.4719,491.0391 591.1125,491.2109 Q591.7688,491.3672 592.3156,491.7266 Z " fill="#000000"/><text fill="#000000" font-family="sans-serif" font-size="12" font-style="italic" lengthAdjust="spacing" textLength="51" x="645.45" y="491.957">&#171;control&#187;</text><text fill="#000000" font-family="sans-serif" font-size="14" lengthAdjust="spacing" textLength="133" x="604.45" y="509.127">ControlNotificaciones</text><line style="stroke:#181818;stroke-width:0.5;" x1="571.5" x2="743.5" y1="517.2031" y2="517.2031"/><line style="stroke:#181818;stroke-width:0.5;" x1="571.5" x2="743.5" y1="525.2031" y2="525.2031"/><text fill="#000000" font-family="sans-serif" font-size="14" lengthAdjust="spacing" textLength="110" x="576.5" y="543.7363">+enviarMensaje()</text><text fill="#000000" font-family="sans-serif" font-size="14" lengthAdjust="spacing" textLength="112" x="576.5" y="561.3457">+notificarCliente()</text><text fill="#000000" font-family="sans-serif" font-size="14" lengthAdjust="spacing" textLength="162" x="576.5" y="578.9551">+notificarRepresentante()</text></g><!--class Usuario--><g id="elem_Usuario"><rect codeLine="38" fill="#F1F1F1" height="146.75" id="Usuario" rx="2.5" ry="2.5" style="stroke:#181818;stroke-width:0.5;" width="135" x="97" y="7"/><ellipse cx="136.3" cy="28.3516" fill="#A9DCDF" rx="11" ry="11" style="stroke:#181818;stroke-width:1.0;"/><path d="M138.4875,30.1172 L134.3469,30.1172 L133.925,31.1484 L134.3469,31.1484 Q134.9563,31.1484 135.2219,31.3828 Q135.4875,31.6172 135.4875,32.0078 Q135.4875,32.3828 135.2219,32.6172 Q134.9563,32.8516 134.3469,32.8516 L132.05,32.8516 Q131.4406,32.8516 131.1906,32.6172 Q130.925,32.3828 130.925,31.9922 Q130.925,31.6172 131.2063,31.3828 Q131.4719,31.1328 132.0969,31.1484 L134.7688,24.4922 L133.6594,24.4922 Q133.05,24.4922 132.7844,24.2578 Q132.5188,24.0234 132.5188,23.6328 Q132.5188,23.2578 132.7844,23.0234 Q133.05,22.7891 133.6594,22.7891 L137.3313,22.7891 L140.7219,31.1484 Q141.3156,31.1484 141.5031,31.2891 Q141.8938,31.5547 141.8938,32.0078 Q141.8938,32.3828 141.6281,32.6172 Q141.3781,32.8516 140.7688,32.8516 L138.4719,32.8516 Q137.8625,32.8516 137.5969,32.6172 Q137.3313,32.3828 137.3313,31.9922 Q137.3313,31.6172 137.5969,31.3828 Q137.8625,31.1484 138.4719,31.1484 L138.8938,31.1484 L138.4875,30.1172 Z M137.7688,28.4141 L136.4094,25.0391 L135.0344,28.4141 L137.7688,28.4141 Z " fill="#000000"/><text fill="#000000" font-family="sans-serif" font-size="12" font-style="italic" lengthAdjust="spacing" textLength="43" x="158.7" y="24.457">&#171;entity&#187;</text><text fill="#000000" font-family="sans-serif" font-size="14" font-style="italic" lengthAdjust="spacing" textLength="49" x="155.7" y="41.627">Usuario</text><line style="stroke:#181818;stroke-width:0.5;" x1="98" x2="231" y1="49.7031" y2="49.7031"/><text fill="#000000" font-family="sans-serif" font-size="14" lengthAdjust="spacing" textLength="43" x="103" y="68.2363">-id : int</text><text fill="#000000" font-family="sans-serif" font-size="14" lengthAdjust="spacing" textLength="100" x="103" y="85.8457">-nombre : string</text><text fill="#000000" font-family="sans-serif" font-size="14" lengthAdjust="spacing" textLength="85" x="103" y="103.4551">-email : string</text><text fill="#000000" font-family="sans-serif" font-size="14" lengthAdjust="spacing" textLength="123" x="103" y="121.0645">-contrase&#241;a : string</text><line style="stroke:#181818;stroke-width:0.5;" x1="98" x2="231" y1="128.1406" y2="128.1406"/><text fill="#000000" font-family="sans-serif" font-size="14" lengthAdjust="spacing" textLength="98" x="103" y="146.6738">+iniciarSesion()</text></g><!--class Cliente--><g id="elem_Cliente"><rect codeLine="47" fill="#F1F1F1" height="93.9219" id="Cliente" rx="2.5" ry="2.5" style="stroke:#181818;stroke-width:0.5;" width="126" x="185.5" y="232.5"/><ellipse cx="223" cy="253.8516" fill="#ADD1B2" rx="11" ry="11" style="stroke:#181818;stroke-width:1.0;"/><path d="M225.7656,249.7266 Q225.9219,249.5078 226.1094,249.3984 Q226.2969,249.2891 226.5156,249.2891 Q226.8906,249.2891 227.125,249.5547 Q227.3594,249.8047 227.3594,250.4141 L227.3594,251.8672 Q227.3594,252.4766 227.125,252.7422 Q226.8906,253.0078 226.5156,253.0078 Q226.1719,253.0078 225.9688,252.8047 Q225.7656,252.6172 225.6563,252.1016 Q225.6094,251.7422 225.4219,251.5547 Q225.0938,251.1797 224.4844,250.9609 Q223.875,250.7422 223.25,250.7422 Q222.4844,250.7422 221.8438,251.0703 Q221.2188,251.3984 220.7188,252.1484 Q220.2344,252.8984 220.2344,253.9297 L220.2344,255.0234 Q220.2344,256.2578 221.125,257.0859 Q222.0156,257.8984 223.6094,257.8984 Q224.5469,257.8984 225.2031,257.6484 Q225.5938,257.4922 226.0156,257.0547 Q226.2813,256.7891 226.4219,256.7109 Q226.5781,256.6328 226.7813,256.6328 Q227.1094,256.6328 227.3594,256.8984 Q227.625,257.1484 227.625,257.4922 Q227.625,257.8359 227.2813,258.2422 Q226.7813,258.8203 225.9844,259.1484 Q224.9063,259.6016 223.6094,259.6016 Q222.0938,259.6016 220.8906,258.9766 Q219.9063,258.4766 219.2188,257.4141 Q218.5313,256.3359 218.5313,255.0547 L218.5313,253.8984 Q218.5313,252.5703 219.1406,251.4297 Q219.7656,250.2734 220.8594,249.6641 Q221.9531,249.0391 223.1875,249.0391 Q223.9219,249.0391 224.5625,249.2109 Q225.2188,249.3672 225.7656,249.7266 Z " fill="#000000"/><text fill="#000000" font-family="sans-serif" font-size="12" font-style="italic" lengthAdjust="spacing" textLength="43" x="242.5" y="249.957">&#171;entity&#187;</text><text fill="#000000" font-family="sans-serif" font-size="14" lengthAdjust="spacing" textLength="44" x="242" y="267.127">Cliente</text><line style="stroke:#181818;stroke-width:0.5;" x1="186.5" x2="310.5" y1="275.2031" y2="275.2031"/><line style="stroke:#181818;stroke-width:0.5;" x1="186.5" x2="310.5" y1="283.2031" y2="283.2031"/><text fill="#000000" font-family="sans-serif" font-size="14" lengthAdjust="spacing" textLength="89" x="191.5" y="301.7363">+crearTicket()</text><text fill="#000000" font-family="sans-serif" font-size="14" lengthAdjust="spacing" textLength="114" x="191.5" y="319.3457">+consultarTicket()</text></g><!--class Representante--><g id="elem_Representante"><rect codeLine="52" fill="#F1F1F1" height="111.5313" id="Representante" rx="2.5" ry="2.5" style="stroke:#181818;stroke-width:0.5;" width="143" x="7" y="223.5"/><ellipse cx="29.65" cy="244.8516" fill="#ADD1B2" rx="11" ry="11" style="stroke:#181818;stroke-width:1.0;"/><path d="M32.4156,240.7266 Q32.5719,240.5078 32.7594,240.3984 Q32.9469,240.2891 33.1656,240.2891 Q33.5406,240.2891 33.775,240.5547 Q34.0094,240.8047 34.0094,241.4141 L34.0094,242.8672 Q34.0094,243.4766 33.775,243.7422 Q33.5406,244.0078 33.1656,244.0078 Q32.8219,244.0078 32.6188,243.8047 Q32.4156,243.6172 32.3063,243.1016 Q32.2594,242.7422 32.0719,242.5547 Q31.7438,242.1797 31.1344,241.9609 Q30.525,241.7422 29.9,241.7422 Q29.1344,241.7422 28.4938,242.0703 Q27.8688,242.3984 27.3688,243.1484 Q26.8844,243.8984 26.8844,244.9297 L26.8844,246.0234 Q26.8844,247.2578 27.775,248.0859 Q28.6656,248.8984 30.2594,248.8984 Q31.1969,248.8984 31.8531,248.6484 Q32.2438,248.4922 32.6656,248.0547 Q32.9313,247.7891 33.0719,247.7109 Q33.2281,247.6328 33.4313,247.6328 Q33.7594,247.6328 34.0094,247.8984 Q34.275,248.1484 34.275,248.4922 Q34.275,248.8359 33.9313,249.2422 Q33.4313,249.8203 32.6344,250.1484 Q31.5563,250.6016 30.2594,250.6016 Q28.7438,250.6016 27.5406,249.9766 Q26.5563,249.4766 25.8688,248.4141 Q25.1813,247.3359 25.1813,246.0547 L25.1813,244.8984 Q25.1813,243.5703 25.7906,242.4297 Q26.4156,241.2734 27.5094,240.6641 Q28.6031,240.0391 29.8375,240.0391 Q30.5719,240.0391 31.2125,240.2109 Q31.8688,240.3672 32.4156,240.7266 Z " fill="#000000"/><text fill="#000000" font-family="sans-serif" font-size="12" font-style="italic" lengthAdjust="spacing" textLength="43" x="70.85" y="240.957">&#171;entity&#187;</text><text fill="#000000" font-family="sans-serif" font-size="14" lengthAdjust="spacing" textLength="94" x="45.35" y="258.127">Representante</text><line style="stroke:#181818;stroke-width:0.5;" x1="8" x2="149" y1="266.2031" y2="266.2031"/><text fill="#000000" font-family="sans-serif" font-size="14" lengthAdjust="spacing" textLength="131" x="13" y="284.7363">-especialidad : string</text><line style="stroke:#181818;stroke-width:0.5;" x1="8" x2="149" y1="291.8125" y2="291.8125"/><text fill="#000000" font-family="sans-serif" font-size="14" lengthAdjust="spacing" textLength="121" x="13" y="310.3457">+responderTicket()</text><text fill="#000000" font-family="sans-serif" font-size="14" lengthAdjust="spacing" textLength="95" x="13" y="327.9551">+registrarHito()</text></g><!--class Ticket--><g id="elem_Ticket"><rect codeLine="59" fill="#F1F1F1" height="217.1875" id="Ticket" rx="2.5" ry="2.5" style="stroke:#181818;stroke-width:0.5;" width="136" x="155.5" y="422"/><ellipse cx="199.75" cy="443.3516" fill="#ADD1B2" rx="11" ry="11" style="stroke:#181818;stroke-width:1.0;"/><path d="M202.5156,439.2266 Q202.6719,439.0078 202.8594,438.8984 Q203.0469,438.7891 203.2656,438.7891 Q203.6406,438.7891 203.875,439.0547 Q204.1094,439.3047 204.1094,439.9141 L204.1094,441.3672 Q204.1094,441.9766 203.875,442.2422 Q203.6406,442.5078 203.2656,442.5078 Q202.9219,442.5078 202.7188,442.3047 Q202.5156,442.1172 202.4063,441.6016 Q202.3594,441.2422 202.1719,441.0547 Q201.8438,440.6797 201.2344,440.4609 Q200.625,440.2422 200,440.2422 Q199.2344,440.2422 198.5938,440.5703 Q197.9688,440.8984 197.4688,441.6484 Q196.9844,442.3984 196.9844,443.4297 L196.9844,444.5234 Q196.9844,445.7578 197.875,446.5859 Q198.7656,447.3984 200.3594,447.3984 Q201.2969,447.3984 201.9531,447.1484 Q202.3438,446.9922 202.7656,446.5547 Q203.0313,446.2891 203.1719,446.2109 Q203.3281,446.1328 203.5313,446.1328 Q203.8594,446.1328 204.1094,446.3984 Q204.375,446.6484 204.375,446.9922 Q204.375,447.3359 204.0313,447.7422 Q203.5313,448.3203 202.7344,448.6484 Q201.6563,449.1016 200.3594,449.1016 Q198.8438,449.1016 197.6406,448.4766 Q196.6563,447.9766 195.9688,446.9141 Q195.2813,445.8359 195.2813,444.5547 L195.2813,443.3984 Q195.2813,442.0703 195.8906,440.9297 Q196.5156,439.7734 197.6094,439.1641 Q198.7031,438.5391 199.9375,438.5391 Q200.6719,438.5391 201.3125,438.7109 Q201.9688,438.8672 202.5156,439.2266 Z " fill="#000000"/><text fill="#000000" font-family="sans-serif" font-size="12" font-style="italic" lengthAdjust="spacing" textLength="43" x="218.25" y="439.457">&#171;entity&#187;</text><text fill="#000000" font-family="sans-serif" font-size="14" lengthAdjust="spacing" textLength="38" x="220.75" y="456.627">Ticket</text><line style="stroke:#181818;stroke-width:0.5;" x1="156.5" x2="290.5" y1="464.7031" y2="464.7031"/><text fill="#000000" font-family="sans-serif" font-size="14" lengthAdjust="spacing" textLength="43" x="161.5" y="483.2363">-id : int</text><text fill="#000000" font-family="sans-serif" font-size="14" lengthAdjust="spacing" textLength="124" x="161.5" y="500.8457">-descripcion : string</text><text fill="#000000" font-family="sans-serif" font-size="14" lengthAdjust="spacing" textLength="95" x="161.5" y="518.4551">-estado : string</text><text fill="#000000" font-family="sans-serif" font-size="14" lengthAdjust="spacing" textLength="80" x="161.5" y="536.0645">-fecha : date</text><line style="stroke:#181818;stroke-width:0.5;" x1="156.5" x2="290.5" y1="543.1406" y2="543.1406"/><text fill="#000000" font-family="sans-serif" font-size="14" lengthAdjust="spacing" textLength="47" x="161.5" y="561.6738">+abrir()</text><text fill="#000000" font-family="sans-serif" font-size="14" lengthAdjust="spacing" textLength="56" x="161.5" y="579.2832">+cerrar()</text><text fill="#000000" font-family="sans-serif" font-size="14" lengthAdjust="spacing" textLength="112" x="161.5" y="596.8926">+cambiarEstado()</text><text fill="#000000" font-family="sans-serif" font-size="14" lengthAdjust="spacing" textLength="92" x="161.5" y="614.502">+agregarHito()</text><text fill="#000000" font-family="sans-serif" font-size="14" lengthAdjust="spacing" textLength="121" x="161.5" y="632.1113">+agregarMensaje()</text></g><!--class Producto--><g id="elem_Producto"><rect codeLine="72" fill="#F1F1F1" height="129.1406" id="Producto" rx="2.5" ry="2.5" style="stroke:#181818;stroke-width:0.5;" width="162" x="170.5" y="700"/><ellipse cx="218.75" cy="721.3516" fill="#ADD1B2" rx="11" ry="11" style="stroke:#181818;stroke-width:1.0;"/><path d="M221.5156,717.2266 Q221.6719,717.0078 221.8594,716.8984 Q222.0469,716.7891 222.2656,716.7891 Q222.6406,716.7891 222.875,717.0547 Q223.1094,717.3047 223.1094,717.9141 L223.1094,719.3672 Q223.1094,719.9766 222.875,720.2422 Q222.6406,720.5078 222.2656,720.5078 Q221.9219,720.5078 221.7188,720.3047 Q221.5156,720.1172 221.4063,719.6016 Q221.3594,719.2422 221.1719,719.0547 Q220.8438,718.6797 220.2344,718.4609 Q219.625,718.2422 219,718.2422 Q218.2344,718.2422 217.5938,718.5703 Q216.9688,718.8984 216.4688,719.6484 Q215.9844,720.3984 215.9844,721.4297 L215.9844,722.5234 Q215.9844,723.7578 216.875,724.5859 Q217.7656,725.3984 219.3594,725.3984 Q220.2969,725.3984 220.9531,725.1484 Q221.3438,724.9922 221.7656,724.5547 Q222.0313,724.2891 222.1719,724.2109 Q222.3281,724.1328 222.5313,724.1328 Q222.8594,724.1328 223.1094,724.3984 Q223.375,724.6484 223.375,724.9922 Q223.375,725.3359 223.0313,725.7422 Q222.5313,726.3203 221.7344,726.6484 Q220.6563,727.1016 219.3594,727.1016 Q217.8438,727.1016 216.6406,726.4766 Q215.6563,725.9766 214.9688,724.9141 Q214.2813,723.8359 214.2813,722.5547 L214.2813,721.3984 Q214.2813,720.0703 214.8906,718.9297 Q215.5156,717.7734 216.6094,717.1641 Q217.7031,716.5391 218.9375,716.5391 Q219.6719,716.5391 220.3125,716.7109 Q220.9688,716.8672 221.5156,717.2266 Z " fill="#000000"/><text fill="#000000" font-family="sans-serif" font-size="12" font-style="italic" lengthAdjust="spacing" textLength="43" x="246.25" y="717.457">&#171;entity&#187;</text><text fill="#000000" font-family="sans-serif" font-size="14" lengthAdjust="spacing" textLength="57" x="239.25" y="734.627">Producto</text><line style="stroke:#181818;stroke-width:0.5;" x1="171.5" x2="331.5" y1="742.7031" y2="742.7031"/><text fill="#000000" font-family="sans-serif" font-size="14" lengthAdjust="spacing" textLength="100" x="176.5" y="761.2363">-idProducto : int</text><text fill="#000000" font-family="sans-serif" font-size="14" lengthAdjust="spacing" textLength="100" x="176.5" y="778.8457">-nombre : string</text><text fill="#000000" font-family="sans-serif" font-size="14" lengthAdjust="spacing" textLength="91" x="176.5" y="796.4551">-marca : string</text><line style="stroke:#181818;stroke-width:0.5;" x1="171.5" x2="331.5" y1="803.5313" y2="803.5313"/><text fill="#000000" font-family="sans-serif" font-size="14" lengthAdjust="spacing" textLength="150" x="176.5" y="822.0645">+asignarTipoProducto()</text></g><!--class TipoProducto--><g id="elem_TipoProducto"><rect codeLine="80" fill="#F1F1F1" height="111.5313" id="TipoProducto" rx="2.5" ry="2.5" style="stroke:#181818;stroke-width:0.5;" width="140" x="181.5" y="890"/><ellipse cx="206.85" cy="911.3516" fill="#ADD1B2" rx="11" ry="11" style="stroke:#181818;stroke-width:1.0;"/><path d="M209.6156,907.2266 Q209.7719,907.0078 209.9594,906.8984 Q210.1469,906.7891 210.3656,906.7891 Q210.7406,906.7891 210.975,907.0547 Q211.2094,907.3047 211.2094,907.9141 L211.2094,909.3672 Q211.2094,909.9766 210.975,910.2422 Q210.7406,910.5078 210.3656,910.5078 Q210.0219,910.5078 209.8188,910.3047 Q209.6156,910.1172 209.5063,909.6016 Q209.4594,909.2422 209.2719,909.0547 Q208.9438,908.6797 208.3344,908.4609 Q207.725,908.2422 207.1,908.2422 Q206.3344,908.2422 205.6938,908.5703 Q205.0688,908.8984 204.5688,909.6484 Q204.0844,910.3984 204.0844,911.4297 L204.0844,912.5234 Q204.0844,913.7578 204.975,914.5859 Q205.8656,915.3984 207.4594,915.3984 Q208.3969,915.3984 209.0531,915.1484 Q209.4438,914.9922 209.8656,914.5547 Q210.1313,914.2891 210.2719,914.2109 Q210.4281,914.1328 210.6313,914.1328 Q210.9594,914.1328 211.2094,914.3984 Q211.475,914.6484 211.475,914.9922 Q211.475,915.3359 211.1313,915.7422 Q210.6313,916.3203 209.8344,916.6484 Q208.7563,917.1016 207.4594,917.1016 Q205.9438,917.1016 204.7406,916.4766 Q203.7563,915.9766 203.0688,914.9141 Q202.3813,913.8359 202.3813,912.5547 L202.3813,911.3984 Q202.3813,910.0703 202.9906,908.9297 Q203.6156,907.7734 204.7094,907.1641 Q205.8031,906.5391 207.0375,906.5391 Q207.7719,906.5391 208.4125,906.7109 Q209.0688,906.8672 209.6156,907.2266 Z " fill="#000000"/><text fill="#000000" font-family="sans-serif" font-size="12" font-style="italic" lengthAdjust="spacing" textLength="43" x="244.15" y="907.457">&#171;entity&#187;</text><text fill="#000000" font-family="sans-serif" font-size="14" lengthAdjust="spacing" textLength="85" x="223.15" y="924.627">TipoProducto</text><line style="stroke:#181818;stroke-width:0.5;" x1="182.5" x2="320.5" y1="932.7031" y2="932.7031"/><text fill="#000000" font-family="sans-serif" font-size="14" lengthAdjust="spacing" textLength="71" x="187.5" y="951.2363">-idTipo : int</text><text fill="#000000" font-family="sans-serif" font-size="14" lengthAdjust="spacing" textLength="128" x="187.5" y="968.8457">-nombreTipo : string</text><line style="stroke:#181818;stroke-width:0.5;" x1="182.5" x2="320.5" y1="975.9219" y2="975.9219"/><text fill="#000000" font-family="sans-serif" font-size="14" lengthAdjust="spacing" textLength="88" x="187.5" y="994.4551">+validarTipo()</text></g><!--class Hito--><g id="elem_Hito"><rect codeLine="87" fill="#F1F1F1" height="129.1406" id="Hito" rx="2.5" ry="2.5" style="stroke:#181818;stroke-width:0.5;" width="136" x="382.5" y="700"/><ellipse cx="426.75" cy="721.3516" fill="#ADD1B2" rx="11" ry="11" style="stroke:#181818;stroke-width:1.0;"/><path d="M429.5156,717.2266 Q429.6719,717.0078 429.8594,716.8984 Q430.0469,716.7891 430.2656,716.7891 Q430.6406,716.7891 430.875,717.0547 Q431.1094,717.3047 431.1094,717.9141 L431.1094,719.3672 Q431.1094,719.9766 430.875,720.2422 Q430.6406,720.5078 430.2656,720.5078 Q429.9219,720.5078 429.7188,720.3047 Q429.5156,720.1172 429.4063,719.6016 Q429.3594,719.2422 429.1719,719.0547 Q428.8438,718.6797 428.2344,718.4609 Q427.625,718.2422 427,718.2422 Q426.2344,718.2422 425.5938,718.5703 Q424.9688,718.8984 424.4688,719.6484 Q423.9844,720.3984 423.9844,721.4297 L423.9844,722.5234 Q423.9844,723.7578 424.875,724.5859 Q425.7656,725.3984 427.3594,725.3984 Q428.2969,725.3984 428.9531,725.1484 Q429.3438,724.9922 429.7656,724.5547 Q430.0313,724.2891 430.1719,724.2109 Q430.3281,724.1328 430.5313,724.1328 Q430.8594,724.1328 431.1094,724.3984 Q431.375,724.6484 431.375,724.9922 Q431.375,725.3359 431.0313,725.7422 Q430.5313,726.3203 429.7344,726.6484 Q428.6563,727.1016 427.3594,727.1016 Q425.8438,727.1016 424.6406,726.4766 Q423.6563,725.9766 422.9688,724.9141 Q422.2813,723.8359 422.2813,722.5547 L422.2813,721.3984 Q422.2813,720.0703 422.8906,718.9297 Q423.5156,717.7734 424.6094,717.1641 Q425.7031,716.5391 426.9375,716.5391 Q427.6719,716.5391 428.3125,716.7109 Q428.9688,716.8672 429.5156,717.2266 Z " fill="#000000"/><text fill="#000000" font-family="sans-serif" font-size="12" font-style="italic" lengthAdjust="spacing" textLength="43" x="445.25" y="717.457">&#171;entity&#187;</text><text fill="#000000" font-family="sans-serif" font-size="14" lengthAdjust="spacing" textLength="24" x="454.75" y="734.627">Hito</text><line style="stroke:#181818;stroke-width:0.5;" x1="383.5" x2="517.5" y1="742.7031" y2="742.7031"/><text fill="#000000" font-family="sans-serif" font-size="14" lengthAdjust="spacing" textLength="43" x="388.5" y="761.2363">-id : int</text><text fill="#000000" font-family="sans-serif" font-size="14" lengthAdjust="spacing" textLength="124" x="388.5" y="778.8457">-descripcion : string</text><text fill="#000000" font-family="sans-serif" font-size="14" lengthAdjust="spacing" textLength="80" x="388.5" y="796.4551">-fecha : date</text><line style="stroke:#181818;stroke-width:0.5;" x1="383.5" x2="517.5" y1="803.5313" y2="803.5313"/><text fill="#000000" font-family="sans-serif" font-size="14" lengthAdjust="spacing" textLength="71" x="388.5" y="822.0645">+registrar()</text></g><!--class Mensaje--><g id="elem_Mensaje"><rect codeLine="95" fill="#F1F1F1" height="129.1406" id="Mensaje" rx="2.5" ry="2.5" style="stroke:#181818;stroke-width:0.5;" width="126" x="573.5" y="700"/><ellipse cx="606.95" cy="721.3516" fill="#ADD1B2" rx="11" ry="11" style="stroke:#181818;stroke-width:1.0;"/><path d="M609.7156,717.2266 Q609.8719,717.0078 610.0594,716.8984 Q610.2469,716.7891 610.4656,716.7891 Q610.8406,716.7891 611.075,717.0547 Q611.3094,717.3047 611.3094,717.9141 L611.3094,719.3672 Q611.3094,719.9766 611.075,720.2422 Q610.8406,720.5078 610.4656,720.5078 Q610.1219,720.5078 609.9188,720.3047 Q609.7156,720.1172 609.6063,719.6016 Q609.5594,719.2422 609.3719,719.0547 Q609.0438,718.6797 608.4344,718.4609 Q607.825,718.2422 607.2,718.2422 Q606.4344,718.2422 605.7938,718.5703 Q605.1688,718.8984 604.6688,719.6484 Q604.1844,720.3984 604.1844,721.4297 L604.1844,722.5234 Q604.1844,723.7578 605.075,724.5859 Q605.9656,725.3984 607.5594,725.3984 Q608.4969,725.3984 609.1531,725.1484 Q609.5438,724.9922 609.9656,724.5547 Q610.2313,724.2891 610.3719,724.2109 Q610.5281,724.1328 610.7313,724.1328 Q611.0594,724.1328 611.3094,724.3984 Q611.575,724.6484 611.575,724.9922 Q611.575,725.3359 611.2313,725.7422 Q610.7313,726.3203 609.9344,726.6484 Q608.8563,727.1016 607.5594,727.1016 Q606.0438,727.1016 604.8406,726.4766 Q603.8563,725.9766 603.1688,724.9141 Q602.4813,723.8359 602.4813,722.5547 L602.4813,721.3984 Q602.4813,720.0703 603.0906,718.9297 Q603.7156,717.7734 604.8094,717.1641 Q605.9031,716.5391 607.1375,716.5391 Q607.8719,716.5391 608.5125,716.7109 Q609.1688,716.8672 609.7156,717.2266 Z " fill="#000000"/><text fill="#000000" font-family="sans-serif" font-size="12" font-style="italic" lengthAdjust="spacing" textLength="43" x="630.05" y="717.457">&#171;entity&#187;</text><text fill="#000000" font-family="sans-serif" font-size="14" lengthAdjust="spacing" textLength="53" x="625.05" y="734.627">Mensaje</text><line style="stroke:#181818;stroke-width:0.5;" x1="574.5" x2="698.5" y1="742.7031" y2="742.7031"/><text fill="#000000" font-family="sans-serif" font-size="14" lengthAdjust="spacing" textLength="43" x="579.5" y="761.2363">-id : int</text><text fill="#000000" font-family="sans-serif" font-size="14" lengthAdjust="spacing" textLength="114" x="579.5" y="778.8457">-contenido : string</text><text fill="#000000" font-family="sans-serif" font-size="14" lengthAdjust="spacing" textLength="80" x="579.5" y="796.4551">-fecha : date</text><line style="stroke:#181818;stroke-width:0.5;" x1="574.5" x2="698.5" y1="803.5313" y2="803.5313"/><text fill="#000000" font-family="sans-serif" font-size="14" lengthAdjust="spacing" textLength="57" x="579.5" y="822.0645">+enviar()</text></g><!--reverse link Usuario to Cliente--><g id="link_Usuario_Cliente"><path codeLine="107" d="M202.48,170.5776 C213.66,196.7976 218.91,209.1 228.86,232.43 " fill="none" id="Usuario-backto-Cliente" style="stroke:#181818;stroke-width:1.0;"/><polygon fill="none" points="195.42,154.02,196.9608,172.931,207.9993,168.2243,195.42,154.02" style="stroke:#181818;stroke-width:1.0;"/></g><!--reverse link Usuario to Representante--><g id="link_Usuario_Representante"><path codeLine="108" d="M125.6385,170.5166 C115.6285,193.4466 111.94,201.9 102.55,223.4 " fill="none" id="Usuario-backto-Representante" style="stroke:#181818;stroke-width:1.0;"/><polygon fill="none" points="132.84,154.02,120.1396,168.1161,131.1373,172.9171,132.84,154.02" style="stroke:#181818;stroke-width:1.0;"/></g><!--link Cliente to Ticket--><g id="link_Cliente_Ticket"><path codeLine="114" d="M243.86,326.75 C241.17,353.54 238.259,382.5 234.919,415.79 " fill="none" id="Cliente-to-Ticket" style="stroke:#181818;stroke-width:1.0;"/><polygon fill="#181818" points="234.32,421.76,239.1985,413.2043,234.8191,416.785,231.2384,412.4056,234.32,421.76" style="stroke:#181818;stroke-width:1.0;"/><text fill="#000000" font-family="sans-serif" font-size="13" lengthAdjust="spacing" textLength="25" x="239.5" y="388.4951">crea</text><text fill="#000000" font-family="sans-serif" font-size="13" lengthAdjust="spacing" textLength="7" x="235.7153" y="348.0449">1</text><text fill="#000000" font-family="sans-serif" font-size="13" lengthAdjust="spacing" textLength="5" x="229.905" y="411.0526">*</text></g><!--link Representante to Ticket--><g id="link_Representante_Ticket"><path codeLine="115" d="M110.68,335.76 C125.45,361.12 140.4711,386.9148 157.7511,416.5948 " fill="none" id="Representante-to-Ticket" style="stroke:#181818;stroke-width:1.0;"/><polygon fill="#181818" points="160.77,421.78,159.6985,411.9896,158.2543,417.459,152.7849,416.0148,160.77,421.78" style="stroke:#181818;stroke-width:1.0;"/><text fill="#000000" font-family="sans-serif" font-size="13" lengthAdjust="spacing" textLength="42" x="143.5" y="388.4951">atiende</text><text fill="#000000" font-family="sans-serif" font-size="13" lengthAdjust="spacing" textLength="7" x="106.8169" y="356.3284">1</text><text fill="#000000" font-family="sans-serif" font-size="13" lengthAdjust="spacing" textLength="5" x="151.1835" y="411.074">*</text></g><!--reverse link Ticket to Hito--><g id="link_Ticket_Hito"><path codeLine="117" d="M267.2447,649.4233 C273.9247,660.6533 275.54,660.94 284.5,670 C307.15,692.92 322.16,684.66 350.5,700 C360.99,705.68 371.86,712.04 382.4,718.49 " fill="none" id="Ticket-backto-Hito" style="stroke:#181818;stroke-width:1.0;"/><polygon fill="#181818" points="261.11,639.11,260.7396,646.3116,267.2447,649.4233,267.6151,642.2218,261.11,639.11" style="stroke:#181818;stroke-width:1.0;"/></g><!--reverse link Ticket to Mensaje--><g id="link_Ticket_Mensaje"><path codeLine="118" d="M301.4965,590.1302 C328.3265,609.1102 350.13,622.94 380.5,639 C446.31,673.81 470.1,666.33 536.5,700 C548.7,706.18 561.31,713.44 573.29,720.79 " fill="none" id="Ticket-backto-Mensaje" style="stroke:#181818;stroke-width:1.0;"/><polygon fill="#181818" points="291.7,583.2,294.2882,589.9306,301.4965,590.1302,298.9083,583.3996,291.7,583.2" style="stroke:#181818;stroke-width:1.0;"/></g><!--reverse link Ticket to Producto--><g id="link_Ticket_Producto"><path codeLine="120" d="M237.9136,650.9241 C240.4236,671.7841 241.56,681.1 243.83,699.98 " fill="none" id="Ticket-backto-Producto" style="stroke:#181818;stroke-width:1.0;"/><polygon fill="#181818" points="236.48,639.01,233.2254,645.4449,237.9136,650.9241,241.1681,644.4892,236.48,639.01" style="stroke:#181818;stroke-width:1.0;"/></g><!--reverse link Producto to TipoProducto--><g id="link_Producto_TipoProducto"><path codeLine="121" d="M251.5,841.04 C251.5,860.91 251.5,870.65 251.5,889.89 " fill="none" id="Producto-backto-TipoProducto" style="stroke:#181818;stroke-width:1.0;"/><polygon fill="none" points="251.5,829.04,247.5,835.04,251.5,841.04,255.5,835.04,251.5,829.04" style="stroke:#181818;stroke-width:1.0;"/></g><!--link GUI to ControlTicket--><g id="link_GUI_ControlTicket"><path codeLine="127" d="M435.5,127.69 C435.5,153.62 435.5,180.36 435.5,208.71 " fill="none" id="GUI-to-ControlTicket" style="stroke:#181818;stroke-width:1.0;"/><polygon fill="#181818" points="435.5,214.71,439.5,205.71,435.5,209.71,431.5,205.71,435.5,214.71" style="stroke:#181818;stroke-width:1.0;"/></g><!--link ControlTicket to Ticket--><g id="link_ControlTicket_Ticket"><path codeLine="129" d="M354.43,339.11 C341.72,350 329.25,361.81 318.5,374 C305.63,388.6 296.7775,400.1439 285.7175,416.8839 " fill="none" id="ControlTicket-to-Ticket" style="stroke:#181818;stroke-width:1.0;"/><polygon fill="#181818" points="282.41,421.89,290.7086,416.5859,285.1662,417.7183,284.0338,412.1759,282.41,421.89" style="stroke:#181818;stroke-width:1.0;"/></g><!--link ControlTicket to Producto--><g id="link_ControlTicket_Producto"><path codeLine="130" d="M409.84,344.32 C400.33,368.54 389.64,396.44 380.5,422 C346.33,517.55 346.77,544.62 309.5,639 C301.57,659.07 294.5464,675.0771 285.4864,694.4071 " fill="none" id="ControlTicket-to-Producto" style="stroke:#181818;stroke-width:1.0;"/><polygon fill="#181818" points="282.94,699.84,290.3815,693.3883,285.062,695.3126,283.1377,689.9931,282.94,699.84" style="stroke:#181818;stroke-width:1.0;"/></g><!--link ControlTicket to ControlHito--><g id="link_ControlTicket_ControlHito"><path codeLine="131" d="M443.44,344.3 C448.84,387.67 455.1184,438.106 459.9884,477.206 " fill="none" id="ControlTicket-to-ControlHito" style="stroke:#181818;stroke-width:1.0;"/><polygon fill="#181818" points="460.73,483.16,463.587,473.7346,460.112,478.1983,455.6483,474.7234,460.73,483.16" style="stroke:#181818;stroke-width:1.0;"/></g><!--link ControlTicket to ControlNotificaciones--><g id="link_ControlTicket_ControlNotificaciones"><path codeLine="132" d="M492.38,344.3 C528.22,384.5 570.0366,431.402 604.3166,469.842 " fill="none" id="ControlTicket-to-ControlNotificaciones" style="stroke:#181818;stroke-width:1.0;"/><polygon fill="#181818" points="608.31,474.32,605.3052,464.9407,604.9822,470.5883,599.3345,470.2652,608.31,474.32" style="stroke:#181818;stroke-width:1.0;"/></g><!--link ControlHito to Hito--><g id="link_ControlHito_Hito"><path codeLine="134" d="M463.32,577.61 C460.9,612.63 457.9729,655.2142 455.3029,693.9242 " fill="none" id="ControlHito-to-Hito" style="stroke:#181818;stroke-width:1.0;"/><polygon fill="#181818" points="454.89,699.91,459.4998,691.2066,455.2341,694.9219,451.5188,690.6561,454.89,699.91" style="stroke:#181818;stroke-width:1.0;"/></g><!--link ControlNotificaciones to Mensaje--><g id="link_ControlNotificaciones_Mensaje"><path codeLine="135" d="M652.5,586.78 C649.43,620.68 646.032,658.2545 642.822,693.6445 " fill="none" id="ControlNotificaciones-to-Mensaje" style="stroke:#181818;stroke-width:1.0;"/><polygon fill="#181818" points="642.28,699.62,647.0766,691.0181,642.7317,694.6404,639.1093,690.2955,642.28,699.62" style="stroke:#181818;stroke-width:1.0;"/></g><!--SRC=[fLLBRjim4Dth58GtQLCOQBT1Qi2rX5Y0AmLslEXoJ37kD38fa5I0VdA87gLdoCLAIfIidoqNrOupevatRzwGwWbv1X8EXAQWr5nhYRjSiv0Ali4VZBptlAkFfpxlYdoAjv4_Ntyv5-KLkSdTDYItjpkHymJazzcC_FI8-TwHWr1QWhm7hY5DuSrRPwUGwTmuVD126UlB29P573siuzNSZzV1vW902y6r5Ea3qYUc3JHQdXl8g6GWIty3rM6780Eb8H6r5HJkkOtDnBqKIKxrqMVogZpLZKml7GXBr68GW6HxBCYn4Vs4I-CK4Y4To1a9ZOz8WQBWJ0rcP_pPTFAPSGNVM9sTkn_b8aN6zO1ZpJB9bF51wHuRJ10zXFxS7naAx6odL9TI95kLWqHBYoc4-YYOAS64t13asXsvEEmaCoRpF_Azix83ODer5Xo0Ogz_uEXoxI57QkZOC6KOQn5Qyj17Sa8WfyVT8cweCwOoPa2ac43I0sX-pGHFMBTWLoHrkLhPOmmcJ569cPLAZyP2vrth8wDVBOC9Q5R1Wvr4UMI1IODeR6ls1dj7tCvsL6NTJhLOmmtLtd5f743I_lo7LxX1vj4-ZC1635HtvdQnvsB6HR5c4NSH_CUyXYPJ2wHPoX5yGJMxD8pZPIeexvGBBeLbi0wYHJW_UoVKby2lwRJQmxQnjL8Z9TV1Qhu8uoZO43zOaIYuYytnB81gzoSV9cGwdP79zQHQgvjY-xtsJW_6WJP94eFEMQuDRZlfvjcDenLJoSshTIUCjId4VscO-E4cUFrzlb_xI5lyhRVHqD1wAcs0y_GTDRI-g_7QdVQstwswTB4PDgpvT-UDi-wAnxy0]--></g></svg>