<?xml version="1.0" encoding="us-ascii" standalone="no"?><svg xmlns="http://www.w3.org/2000/svg" xmlns:xlink="http://www.w3.org/1999/xlink" contentStyleType="text/css" height="901px" preserveAspectRatio="none" style="width:532px;height:901px;background:#FFFFFF;" version="1.1" viewBox="0 0 532 901" width="532px" zoomAndPan="magnify"><defs/><g><!--class Usuario--><g id="elem_Usuario"><rect codeLine="2" fill="#F1F1F1" height="136.0469" id="Usuario" rx="2.5" ry="2.5" style="stroke:#181818;stroke-width:0.5;" width="144" x="211" y="7"/><ellipse cx="254.35" cy="23" fill="#A9DCDF" rx="11" ry="11" style="stroke:#181818;stroke-width:1.0;"/><path d="M256.5375,24.7656 L252.3969,24.7656 L251.975,25.7969 L252.3969,25.7969 Q253.0063,25.7969 253.2719,26.0313 Q253.5375,26.2656 253.5375,26.6563 Q253.5375,27.0313 253.2719,27.2656 Q253.0063,27.5 252.3969,27.5 L250.1,27.5 Q249.4906,27.5 249.2406,27.2656 Q248.975,27.0313 248.975,26.6406 Q248.975,26.2656 249.2563,26.0313 Q249.5219,25.7813 250.1469,25.7969 L252.8188,19.1406 L251.7094,19.1406 Q251.1,19.1406 250.8344,18.9063 Q250.5688,18.6719 250.5688,18.2813 Q250.5688,17.9063 250.8344,17.6719 Q251.1,17.4375 251.7094,17.4375 L255.3813,17.4375 L258.7719,25.7969 Q259.3656,25.7969 259.5531,25.9375 Q259.9438,26.2031 259.9438,26.6563 Q259.9438,27.0313 259.6781,27.2656 Q259.4281,27.5 258.8188,27.5 L256.5219,27.5 Q255.9125,27.5 255.6469,27.2656 Q255.3813,27.0313 255.3813,26.6406 Q255.3813,26.2656 255.6469,26.0313 Q255.9125,25.7969 256.5219,25.7969 L256.9438,25.7969 L256.5375,24.7656 Z M255.8188,23.0625 L254.4594,19.6875 L253.0844,23.0625 L255.8188,23.0625 Z " fill="#000000"/><text fill="#000000" font-family="sans-serif" font-size="14" font-style="italic" lengthAdjust="spacing" textLength="49" x="274.65" y="28.7285">Usuario</text><line style="stroke:#181818;stroke-width:0.5;" x1="212" x2="354" y1="39" y2="39"/><rect fill="none" height="6" style="stroke:#C82930;stroke-width:1.0;" width="6" x="219" y="50.3047"/><text fill="#000000" font-family="sans-serif" font-size="14" lengthAdjust="spacing" textLength="38" x="231" y="57.5332">id : int</text><rect fill="none" height="6" style="stroke:#C82930;stroke-width:1.0;" width="6" x="219" y="67.9141"/><text fill="#000000" font-family="sans-serif" font-size="14" lengthAdjust="spacing" textLength="95" x="231" y="75.1426">nombre : string</text><rect fill="none" height="6" style="stroke:#C82930;stroke-width:1.0;" width="6" x="219" y="85.5234"/><text fill="#000000" font-family="sans-serif" font-size="14" lengthAdjust="spacing" textLength="80" x="231" y="92.752">email : string</text><rect fill="none" height="6" style="stroke:#C82930;stroke-width:1.0;" width="6" x="219" y="103.1328"/><text fill="#000000" font-family="sans-serif" font-size="14" lengthAdjust="spacing" textLength="118" x="231" y="110.3613">contrase&#241;a : string</text><line style="stroke:#181818;stroke-width:0.5;" x1="212" x2="354" y1="117.4375" y2="117.4375"/><ellipse cx="222" cy="131.7422" fill="#84BE84" rx="3" ry="3" style="stroke:#038048;stroke-width:1.0;"/><text fill="#000000" font-family="sans-serif" font-size="14" lengthAdjust="spacing" textLength="90" x="231" y="135.9707">iniciarSesion()</text></g><!--class Cliente--><g id="elem_Cliente"><rect codeLine="10" fill="#F1F1F1" height="83.2188" id="Cliente" rx="2.5" ry="2.5" style="stroke:#181818;stroke-width:0.5;" width="132" x="129" y="213"/><ellipse cx="169.2" cy="229" fill="#ADD1B2" rx="11" ry="11" style="stroke:#181818;stroke-width:1.0;"/><path d="M171.9656,224.875 Q172.1219,224.6563 172.3094,224.5469 Q172.4969,224.4375 172.7156,224.4375 Q173.0906,224.4375 173.325,224.7031 Q173.5594,224.9531 173.5594,225.5625 L173.5594,227.0156 Q173.5594,227.625 173.325,227.8906 Q173.0906,228.1563 172.7156,228.1563 Q172.3719,228.1563 172.1688,227.9531 Q171.9656,227.7656 171.8563,227.25 Q171.8094,226.8906 171.6219,226.7031 Q171.2938,226.3281 170.6844,226.1094 Q170.075,225.8906 169.45,225.8906 Q168.6844,225.8906 168.0438,226.2188 Q167.4188,226.5469 166.9188,227.2969 Q166.4344,228.0469 166.4344,229.0781 L166.4344,230.1719 Q166.4344,231.4063 167.325,232.2344 Q168.2156,233.0469 169.8094,233.0469 Q170.7469,233.0469 171.4031,232.7969 Q171.7938,232.6406 172.2156,232.2031 Q172.4813,231.9375 172.6219,231.8594 Q172.7781,231.7813 172.9813,231.7813 Q173.3094,231.7813 173.5594,232.0469 Q173.825,232.2969 173.825,232.6406 Q173.825,232.9844 173.4813,233.3906 Q172.9813,233.9688 172.1844,234.2969 Q171.1063,234.75 169.8094,234.75 Q168.2938,234.75 167.0906,234.125 Q166.1063,233.625 165.4188,232.5625 Q164.7313,231.4844 164.7313,230.2031 L164.7313,229.0469 Q164.7313,227.7188 165.3406,226.5781 Q165.9656,225.4219 167.0594,224.8125 Q168.1531,224.1875 169.3875,224.1875 Q170.1219,224.1875 170.7625,224.3594 Q171.4188,224.5156 171.9656,224.875 Z " fill="#000000"/><text fill="#000000" font-family="sans-serif" font-size="14" lengthAdjust="spacing" textLength="44" x="188.8" y="234.7285">Cliente</text><line style="stroke:#181818;stroke-width:0.5;" x1="130" x2="260" y1="245" y2="245"/><line style="stroke:#181818;stroke-width:0.5;" x1="130" x2="260" y1="253" y2="253"/><ellipse cx="140" cy="267.3047" fill="#84BE84" rx="3" ry="3" style="stroke:#038048;stroke-width:1.0;"/><text fill="#000000" font-family="sans-serif" font-size="14" lengthAdjust="spacing" textLength="81" x="149" y="271.5332">crearTicket()</text><ellipse cx="140" cy="284.9141" fill="#84BE84" rx="3" ry="3" style="stroke:#038048;stroke-width:1.0;"/><text fill="#000000" font-family="sans-serif" font-size="14" lengthAdjust="spacing" textLength="106" x="149" y="289.1426">consultarTicket()</text></g><!--class Representante--><g id="elem_Representante"><rect codeLine="15" fill="#F1F1F1" height="100.8281" id="Representante" rx="2.5" ry="2.5" style="stroke:#181818;stroke-width:0.5;" width="152" x="296" y="204"/><ellipse cx="322.7" cy="220" fill="#ADD1B2" rx="11" ry="11" style="stroke:#181818;stroke-width:1.0;"/><path d="M325.4656,215.875 Q325.6219,215.6563 325.8094,215.5469 Q325.9969,215.4375 326.2156,215.4375 Q326.5906,215.4375 326.825,215.7031 Q327.0594,215.9531 327.0594,216.5625 L327.0594,218.0156 Q327.0594,218.625 326.825,218.8906 Q326.5906,219.1563 326.2156,219.1563 Q325.8719,219.1563 325.6688,218.9531 Q325.4656,218.7656 325.3563,218.25 Q325.3094,217.8906 325.1219,217.7031 Q324.7938,217.3281 324.1844,217.1094 Q323.575,216.8906 322.95,216.8906 Q322.1844,216.8906 321.5438,217.2188 Q320.9188,217.5469 320.4188,218.2969 Q319.9344,219.0469 319.9344,220.0781 L319.9344,221.1719 Q319.9344,222.4063 320.825,223.2344 Q321.7156,224.0469 323.3094,224.0469 Q324.2469,224.0469 324.9031,223.7969 Q325.2938,223.6406 325.7156,223.2031 Q325.9813,222.9375 326.1219,222.8594 Q326.2781,222.7813 326.4813,222.7813 Q326.8094,222.7813 327.0594,223.0469 Q327.325,223.2969 327.325,223.6406 Q327.325,223.9844 326.9813,224.3906 Q326.4813,224.9688 325.6844,225.2969 Q324.6063,225.75 323.3094,225.75 Q321.7938,225.75 320.5906,225.125 Q319.6063,224.625 318.9188,223.5625 Q318.2313,222.4844 318.2313,221.2031 L318.2313,220.0469 Q318.2313,218.7188 318.8406,217.5781 Q319.4656,216.4219 320.5594,215.8125 Q321.6531,215.1875 322.8875,215.1875 Q323.6219,215.1875 324.2625,215.3594 Q324.9188,215.5156 325.4656,215.875 Z " fill="#000000"/><text fill="#000000" font-family="sans-serif" font-size="14" lengthAdjust="spacing" textLength="94" x="339.3" y="225.7285">Representante</text><line style="stroke:#181818;stroke-width:0.5;" x1="297" x2="447" y1="236" y2="236"/><rect fill="none" height="6" style="stroke:#C82930;stroke-width:1.0;" width="6" x="304" y="247.3047"/><text fill="#000000" font-family="sans-serif" font-size="14" lengthAdjust="spacing" textLength="126" x="316" y="254.5332">especialidad : string</text><line style="stroke:#181818;stroke-width:0.5;" x1="297" x2="447" y1="261.6094" y2="261.6094"/><ellipse cx="307" cy="275.9141" fill="#84BE84" rx="3" ry="3" style="stroke:#038048;stroke-width:1.0;"/><text fill="#000000" font-family="sans-serif" font-size="14" lengthAdjust="spacing" textLength="113" x="316" y="280.1426">responderTicket()</text><ellipse cx="307" cy="293.5234" fill="#84BE84" rx="3" ry="3" style="stroke:#038048;stroke-width:1.0;"/><text fill="#000000" font-family="sans-serif" font-size="14" lengthAdjust="spacing" textLength="87" x="316" y="297.752">registrarHito()</text></g><!--class Ticket--><g id="elem_Ticket"><rect codeLine="21" fill="#F1F1F1" height="171.2656" id="Ticket" rx="2.5" ry="2.5" style="stroke:#181818;stroke-width:0.5;" width="145" x="210.5" y="383"/><ellipse cx="259.75" cy="399" fill="#ADD1B2" rx="11" ry="11" style="stroke:#181818;stroke-width:1.0;"/><path d="M262.5156,394.875 Q262.6719,394.6563 262.8594,394.5469 Q263.0469,394.4375 263.2656,394.4375 Q263.6406,394.4375 263.875,394.7031 Q264.1094,394.9531 264.1094,395.5625 L264.1094,397.0156 Q264.1094,397.625 263.875,397.8906 Q263.6406,398.1563 263.2656,398.1563 Q262.9219,398.1563 262.7188,397.9531 Q262.5156,397.7656 262.4063,397.25 Q262.3594,396.8906 262.1719,396.7031 Q261.8438,396.3281 261.2344,396.1094 Q260.625,395.8906 260,395.8906 Q259.2344,395.8906 258.5938,396.2188 Q257.9688,396.5469 257.4688,397.2969 Q256.9844,398.0469 256.9844,399.0781 L256.9844,400.1719 Q256.9844,401.4063 257.875,402.2344 Q258.7656,403.0469 260.3594,403.0469 Q261.2969,403.0469 261.9531,402.7969 Q262.3438,402.6406 262.7656,402.2031 Q263.0313,401.9375 263.1719,401.8594 Q263.3281,401.7813 263.5313,401.7813 Q263.8594,401.7813 264.1094,402.0469 Q264.375,402.2969 264.375,402.6406 Q264.375,402.9844 264.0313,403.3906 Q263.5313,403.9688 262.7344,404.2969 Q261.6563,404.75 260.3594,404.75 Q258.8438,404.75 257.6406,404.125 Q256.6563,403.625 255.9688,402.5625 Q255.2813,401.4844 255.2813,400.2031 L255.2813,399.0469 Q255.2813,397.7188 255.8906,396.5781 Q256.5156,395.4219 257.6094,394.8125 Q258.7031,394.1875 259.9375,394.1875 Q260.6719,394.1875 261.3125,394.3594 Q261.9688,394.5156 262.5156,394.875 Z " fill="#000000"/><text fill="#000000" font-family="sans-serif" font-size="14" lengthAdjust="spacing" textLength="38" x="280.25" y="404.7285">Ticket</text><line style="stroke:#181818;stroke-width:0.5;" x1="211.5" x2="354.5" y1="415" y2="415"/><rect fill="none" height="6" style="stroke:#C82930;stroke-width:1.0;" width="6" x="218.5" y="426.3047"/><text fill="#000000" font-family="sans-serif" font-size="14" lengthAdjust="spacing" textLength="38" x="230.5" y="433.5332">id : int</text><rect fill="none" height="6" style="stroke:#C82930;stroke-width:1.0;" width="6" x="218.5" y="443.9141"/><text fill="#000000" font-family="sans-serif" font-size="14" lengthAdjust="spacing" textLength="119" x="230.5" y="451.1426">descripcion : string</text><rect fill="none" height="6" style="stroke:#C82930;stroke-width:1.0;" width="6" x="218.5" y="461.5234"/><text fill="#000000" font-family="sans-serif" font-size="14" lengthAdjust="spacing" textLength="90" x="230.5" y="468.752">estado : string</text><rect fill="none" height="6" style="stroke:#C82930;stroke-width:1.0;" width="6" x="218.5" y="479.1328"/><text fill="#000000" font-family="sans-serif" font-size="14" lengthAdjust="spacing" textLength="75" x="230.5" y="486.3613">fecha : date</text><line style="stroke:#181818;stroke-width:0.5;" x1="211.5" x2="354.5" y1="493.4375" y2="493.4375"/><ellipse cx="221.5" cy="507.7422" fill="#84BE84" rx="3" ry="3" style="stroke:#038048;stroke-width:1.0;"/><text fill="#000000" font-family="sans-serif" font-size="14" lengthAdjust="spacing" textLength="39" x="230.5" y="511.9707">abrir()</text><ellipse cx="221.5" cy="525.3516" fill="#84BE84" rx="3" ry="3" style="stroke:#038048;stroke-width:1.0;"/><text fill="#000000" font-family="sans-serif" font-size="14" lengthAdjust="spacing" textLength="48" x="230.5" y="529.5801">cerrar()</text><ellipse cx="221.5" cy="542.9609" fill="#84BE84" rx="3" ry="3" style="stroke:#038048;stroke-width:1.0;"/><text fill="#000000" font-family="sans-serif" font-size="14" lengthAdjust="spacing" textLength="104" x="230.5" y="547.1895">cambiarEstado()</text></g><!--class Producto--><g id="elem_Producto"><rect codeLine="31" fill="#F1F1F1" height="118.4375" id="Producto" rx="2.5" ry="2.5" style="stroke:#181818;stroke-width:0.5;" width="168" x="7" y="615"/><ellipse cx="58.25" cy="631" fill="#ADD1B2" rx="11" ry="11" style="stroke:#181818;stroke-width:1.0;"/><path d="M61.0156,626.875 Q61.1719,626.6563 61.3594,626.5469 Q61.5469,626.4375 61.7656,626.4375 Q62.1406,626.4375 62.375,626.7031 Q62.6094,626.9531 62.6094,627.5625 L62.6094,629.0156 Q62.6094,629.625 62.375,629.8906 Q62.1406,630.1563 61.7656,630.1563 Q61.4219,630.1563 61.2188,629.9531 Q61.0156,629.7656 60.9063,629.25 Q60.8594,628.8906 60.6719,628.7031 Q60.3438,628.3281 59.7344,628.1094 Q59.125,627.8906 58.5,627.8906 Q57.7344,627.8906 57.0938,628.2188 Q56.4688,628.5469 55.9688,629.2969 Q55.4844,630.0469 55.4844,631.0781 L55.4844,632.1719 Q55.4844,633.4063 56.375,634.2344 Q57.2656,635.0469 58.8594,635.0469 Q59.7969,635.0469 60.4531,634.7969 Q60.8438,634.6406 61.2656,634.2031 Q61.5313,633.9375 61.6719,633.8594 Q61.8281,633.7813 62.0313,633.7813 Q62.3594,633.7813 62.6094,634.0469 Q62.875,634.2969 62.875,634.6406 Q62.875,634.9844 62.5313,635.3906 Q62.0313,635.9688 61.2344,636.2969 Q60.1563,636.75 58.8594,636.75 Q57.3438,636.75 56.1406,636.125 Q55.1563,635.625 54.4688,634.5625 Q53.7813,633.4844 53.7813,632.2031 L53.7813,631.0469 Q53.7813,629.7188 54.3906,628.5781 Q55.0156,627.4219 56.1094,626.8125 Q57.2031,626.1875 58.4375,626.1875 Q59.1719,626.1875 59.8125,626.3594 Q60.4688,626.5156 61.0156,626.875 Z " fill="#000000"/><text fill="#000000" font-family="sans-serif" font-size="14" lengthAdjust="spacing" textLength="57" x="78.75" y="636.7285">Producto</text><line style="stroke:#181818;stroke-width:0.5;" x1="8" x2="174" y1="647" y2="647"/><rect fill="none" height="6" style="stroke:#C82930;stroke-width:1.0;" width="6" x="15" y="658.3047"/><text fill="#000000" font-family="sans-serif" font-size="14" lengthAdjust="spacing" textLength="95" x="27" y="665.5332">idProducto : int</text><rect fill="none" height="6" style="stroke:#C82930;stroke-width:1.0;" width="6" x="15" y="675.9141"/><text fill="#000000" font-family="sans-serif" font-size="14" lengthAdjust="spacing" textLength="95" x="27" y="683.1426">nombre : string</text><rect fill="none" height="6" style="stroke:#C82930;stroke-width:1.0;" width="6" x="15" y="693.5234"/><text fill="#000000" font-family="sans-serif" font-size="14" lengthAdjust="spacing" textLength="86" x="27" y="700.752">marca : string</text><line style="stroke:#181818;stroke-width:0.5;" x1="8" x2="174" y1="707.8281" y2="707.8281"/><ellipse cx="18" cy="722.1328" fill="#84BE84" rx="3" ry="3" style="stroke:#038048;stroke-width:1.0;"/><text fill="#000000" font-family="sans-serif" font-size="14" lengthAdjust="spacing" textLength="142" x="27" y="726.3613">asignarTipoProducto()</text></g><!--class TipoProducto--><g id="elem_TipoProducto"><rect codeLine="38" fill="#F1F1F1" height="100.8281" id="TipoProducto" rx="2.5" ry="2.5" style="stroke:#181818;stroke-width:0.5;" width="168" x="7" y="794"/><ellipse cx="44.95" cy="810" fill="#ADD1B2" rx="11" ry="11" style="stroke:#181818;stroke-width:1.0;"/><path d="M47.7156,805.875 Q47.8719,805.6563 48.0594,805.5469 Q48.2469,805.4375 48.4656,805.4375 Q48.8406,805.4375 49.075,805.7031 Q49.3094,805.9531 49.3094,806.5625 L49.3094,808.0156 Q49.3094,808.625 49.075,808.8906 Q48.8406,809.1563 48.4656,809.1563 Q48.1219,809.1563 47.9188,808.9531 Q47.7156,808.7656 47.6063,808.25 Q47.5594,807.8906 47.3719,807.7031 Q47.0438,807.3281 46.4344,807.1094 Q45.825,806.8906 45.2,806.8906 Q44.4344,806.8906 43.7938,807.2188 Q43.1688,807.5469 42.6688,808.2969 Q42.1844,809.0469 42.1844,810.0781 L42.1844,811.1719 Q42.1844,812.4063 43.075,813.2344 Q43.9656,814.0469 45.5594,814.0469 Q46.4969,814.0469 47.1531,813.7969 Q47.5438,813.6406 47.9656,813.2031 Q48.2313,812.9375 48.3719,812.8594 Q48.5281,812.7813 48.7313,812.7813 Q49.0594,812.7813 49.3094,813.0469 Q49.575,813.2969 49.575,813.6406 Q49.575,813.9844 49.2313,814.3906 Q48.7313,814.9688 47.9344,815.2969 Q46.8563,815.75 45.5594,815.75 Q44.0438,815.75 42.8406,815.125 Q41.8563,814.625 41.1688,813.5625 Q40.4813,812.4844 40.4813,811.2031 L40.4813,810.0469 Q40.4813,808.7188 41.0906,807.5781 Q41.7156,806.4219 42.8094,805.8125 Q43.9031,805.1875 45.1375,805.1875 Q45.8719,805.1875 46.5125,805.3594 Q47.1688,805.5156 47.7156,805.875 Z " fill="#000000"/><text fill="#000000" font-family="sans-serif" font-size="14" lengthAdjust="spacing" textLength="85" x="64.05" y="815.7285">TipoProducto</text><line style="stroke:#181818;stroke-width:0.5;" x1="8" x2="174" y1="826" y2="826"/><rect fill="none" height="6" style="stroke:#C82930;stroke-width:1.0;" width="6" x="15" y="837.3047"/><text fill="#000000" font-family="sans-serif" font-size="14" lengthAdjust="spacing" textLength="66" x="27" y="844.5332">idTipo : int</text><rect fill="none" height="6" style="stroke:#C82930;stroke-width:1.0;" width="6" x="15" y="854.9141"/><text fill="#000000" font-family="sans-serif" font-size="14" lengthAdjust="spacing" textLength="123" x="27" y="862.1426">nombreTipo : string</text><line style="stroke:#181818;stroke-width:0.5;" x1="8" x2="174" y1="869.2188" y2="869.2188"/><ellipse cx="18" cy="883.5234" fill="#84BE84" rx="3" ry="3" style="stroke:#038048;stroke-width:1.0;"/><text fill="#000000" font-family="sans-serif" font-size="14" lengthAdjust="spacing" textLength="142" x="27" y="887.752">asignarTipoProducto()</text></g><!--class Hito--><g id="elem_Hito"><rect codeLine="44" fill="#F1F1F1" height="118.4375" id="Hito" rx="2.5" ry="2.5" style="stroke:#181818;stroke-width:0.5;" width="145" x="210.5" y="615"/><ellipse cx="266.75" cy="631" fill="#ADD1B2" rx="11" ry="11" style="stroke:#181818;stroke-width:1.0;"/><path d="M269.5156,626.875 Q269.6719,626.6563 269.8594,626.5469 Q270.0469,626.4375 270.2656,626.4375 Q270.6406,626.4375 270.875,626.7031 Q271.1094,626.9531 271.1094,627.5625 L271.1094,629.0156 Q271.1094,629.625 270.875,629.8906 Q270.6406,630.1563 270.2656,630.1563 Q269.9219,630.1563 269.7188,629.9531 Q269.5156,629.7656 269.4063,629.25 Q269.3594,628.8906 269.1719,628.7031 Q268.8438,628.3281 268.2344,628.1094 Q267.625,627.8906 267,627.8906 Q266.2344,627.8906 265.5938,628.2188 Q264.9688,628.5469 264.4688,629.2969 Q263.9844,630.0469 263.9844,631.0781 L263.9844,632.1719 Q263.9844,633.4063 264.875,634.2344 Q265.7656,635.0469 267.3594,635.0469 Q268.2969,635.0469 268.9531,634.7969 Q269.3438,634.6406 269.7656,634.2031 Q270.0313,633.9375 270.1719,633.8594 Q270.3281,633.7813 270.5313,633.7813 Q270.8594,633.7813 271.1094,634.0469 Q271.375,634.2969 271.375,634.6406 Q271.375,634.9844 271.0313,635.3906 Q270.5313,635.9688 269.7344,636.2969 Q268.6563,636.75 267.3594,636.75 Q265.8438,636.75 264.6406,636.125 Q263.6563,635.625 262.9688,634.5625 Q262.2813,633.4844 262.2813,632.2031 L262.2813,631.0469 Q262.2813,629.7188 262.8906,628.5781 Q263.5156,627.4219 264.6094,626.8125 Q265.7031,626.1875 266.9375,626.1875 Q267.6719,626.1875 268.3125,626.3594 Q268.9688,626.5156 269.5156,626.875 Z " fill="#000000"/><text fill="#000000" font-family="sans-serif" font-size="14" lengthAdjust="spacing" textLength="24" x="287.25" y="636.7285">Hito</text><line style="stroke:#181818;stroke-width:0.5;" x1="211.5" x2="354.5" y1="647" y2="647"/><rect fill="none" height="6" style="stroke:#C82930;stroke-width:1.0;" width="6" x="218.5" y="658.3047"/><text fill="#000000" font-family="sans-serif" font-size="14" lengthAdjust="spacing" textLength="38" x="230.5" y="665.5332">id : int</text><rect fill="none" height="6" style="stroke:#C82930;stroke-width:1.0;" width="6" x="218.5" y="675.9141"/><text fill="#000000" font-family="sans-serif" font-size="14" lengthAdjust="spacing" textLength="119" x="230.5" y="683.1426">descripcion : string</text><rect fill="none" height="6" style="stroke:#C82930;stroke-width:1.0;" width="6" x="218.5" y="693.5234"/><text fill="#000000" font-family="sans-serif" font-size="14" lengthAdjust="spacing" textLength="75" x="230.5" y="700.752">fecha : date</text><line style="stroke:#181818;stroke-width:0.5;" x1="211.5" x2="354.5" y1="707.8281" y2="707.8281"/><ellipse cx="221.5" cy="722.1328" fill="#84BE84" rx="3" ry="3" style="stroke:#038048;stroke-width:1.0;"/><text fill="#000000" font-family="sans-serif" font-size="14" lengthAdjust="spacing" textLength="63" x="230.5" y="726.3613">registrar()</text></g><!--class Mensaje--><g id="elem_Mensaje"><rect codeLine="51" fill="#F1F1F1" height="118.4375" id="Mensaje" rx="2.5" ry="2.5" style="stroke:#181818;stroke-width:0.5;" width="135" x="390.5" y="615"/><ellipse cx="428" cy="631" fill="#ADD1B2" rx="11" ry="11" style="stroke:#181818;stroke-width:1.0;"/><path d="M430.7656,626.875 Q430.9219,626.6563 431.1094,626.5469 Q431.2969,626.4375 431.5156,626.4375 Q431.8906,626.4375 432.125,626.7031 Q432.3594,626.9531 432.3594,627.5625 L432.3594,629.0156 Q432.3594,629.625 432.125,629.8906 Q431.8906,630.1563 431.5156,630.1563 Q431.1719,630.1563 430.9688,629.9531 Q430.7656,629.7656 430.6563,629.25 Q430.6094,628.8906 430.4219,628.7031 Q430.0938,628.3281 429.4844,628.1094 Q428.875,627.8906 428.25,627.8906 Q427.4844,627.8906 426.8438,628.2188 Q426.2188,628.5469 425.7188,629.2969 Q425.2344,630.0469 425.2344,631.0781 L425.2344,632.1719 Q425.2344,633.4063 426.125,634.2344 Q427.0156,635.0469 428.6094,635.0469 Q429.5469,635.0469 430.2031,634.7969 Q430.5938,634.6406 431.0156,634.2031 Q431.2813,633.9375 431.4219,633.8594 Q431.5781,633.7813 431.7813,633.7813 Q432.1094,633.7813 432.3594,634.0469 Q432.625,634.2969 432.625,634.6406 Q432.625,634.9844 432.2813,635.3906 Q431.7813,635.9688 430.9844,636.2969 Q429.9063,636.75 428.6094,636.75 Q427.0938,636.75 425.8906,636.125 Q424.9063,635.625 424.2188,634.5625 Q423.5313,633.4844 423.5313,632.2031 L423.5313,631.0469 Q423.5313,629.7188 424.1406,628.5781 Q424.7656,627.4219 425.8594,626.8125 Q426.9531,626.1875 428.1875,626.1875 Q428.9219,626.1875 429.5625,626.3594 Q430.2188,626.5156 430.7656,626.875 Z " fill="#000000"/><text fill="#000000" font-family="sans-serif" font-size="14" lengthAdjust="spacing" textLength="53" x="447" y="636.7285">Mensaje</text><line style="stroke:#181818;stroke-width:0.5;" x1="391.5" x2="524.5" y1="647" y2="647"/><rect fill="none" height="6" style="stroke:#C82930;stroke-width:1.0;" width="6" x="398.5" y="658.3047"/><text fill="#000000" font-family="sans-serif" font-size="14" lengthAdjust="spacing" textLength="38" x="410.5" y="665.5332">id : int</text><rect fill="none" height="6" style="stroke:#C82930;stroke-width:1.0;" width="6" x="398.5" y="675.9141"/><text fill="#000000" font-family="sans-serif" font-size="14" lengthAdjust="spacing" textLength="109" x="410.5" y="683.1426">contenido : string</text><rect fill="none" height="6" style="stroke:#C82930;stroke-width:1.0;" width="6" x="398.5" y="693.5234"/><text fill="#000000" font-family="sans-serif" font-size="14" lengthAdjust="spacing" textLength="75" x="410.5" y="700.752">fecha : date</text><line style="stroke:#181818;stroke-width:0.5;" x1="391.5" x2="524.5" y1="707.8281" y2="707.8281"/><ellipse cx="401.5" cy="722.1328" fill="#84BE84" rx="3" ry="3" style="stroke:#038048;stroke-width:1.0;"/><text fill="#000000" font-family="sans-serif" font-size="14" lengthAdjust="spacing" textLength="49" x="410.5" y="726.3613">enviar()</text></g><!--reverse link Usuario to Cliente--><g id="link_Usuario_Cliente"><path codeLine="58" d="M241.7352,159.2371 C230.1052,182.6971 225.4,192.18 215.17,212.82 " fill="none" id="Usuario-backto-Cliente" style="stroke:#181818;stroke-width:1.0;"/><polygon fill="none" points="249.73,143.11,236.3595,156.5722,247.1109,161.902,249.73,143.11" style="stroke:#181818;stroke-width:1.0;"/></g><!--reverse link Usuario to Representante--><g id="link_Usuario_Representante"><path codeLine="59" d="M324.719,159.2001 C334.809,179.3201 337.62,184.94 347.05,203.73 " fill="none" id="Usuario-backto-Representante" style="stroke:#181818;stroke-width:1.0;"/><polygon fill="none" points="316.65,143.11,319.3557,161.8898,330.0824,156.5104,316.65,143.11" style="stroke:#181818;stroke-width:1.0;"/></g><!--link Cliente to Ticket--><g id="link_Cliente_Ticket"><path codeLine="61" d="M211.97,296.38 C222.16,320.92 233.1997,347.5285 245.5697,377.3285 " fill="none" id="Cliente-to-Ticket" style="stroke:#181818;stroke-width:1.0;"/><polygon fill="#181818" points="247.87,382.87,248.1139,373.0242,245.9531,378.2521,240.7252,376.0912,247.87,382.87" style="stroke:#181818;stroke-width:1.0;"/><text fill="#000000" font-family="sans-serif" font-size="13" lengthAdjust="spacing" textLength="25" x="235" y="349.4951">crea</text><text fill="#000000" font-family="sans-serif" font-size="13" lengthAdjust="spacing" textLength="7" x="207.1168" y="317.8353">1</text><text fill="#000000" font-family="sans-serif" font-size="13" lengthAdjust="spacing" textLength="5" x="239.5186" y="372.03">*</text></g><!--link Representante to Ticket--><g id="link_Representante_Ticket"><path codeLine="62" d="M351.13,305.2 C341.42,328.34 331.9229,350.9679 320.8629,377.3079 " fill="none" id="Representante-to-Ticket" style="stroke:#181818;stroke-width:1.0;"/><polygon fill="#181818" points="318.54,382.84,325.7124,376.0904,320.4757,378.2299,318.3363,372.9932,318.54,382.84" style="stroke:#181818;stroke-width:1.0;"/><text fill="#000000" font-family="sans-serif" font-size="13" lengthAdjust="spacing" textLength="42" x="340" y="349.4951">atiende</text><text fill="#000000" font-family="sans-serif" font-size="13" lengthAdjust="spacing" textLength="7" x="341.0076" y="326.2496">1</text><text fill="#000000" font-family="sans-serif" font-size="13" lengthAdjust="spacing" textLength="5" x="316.4826" y="371.9974">*</text></g><!--link Ticket to Producto--><g id="link_Ticket_Producto"><path codeLine="64" d="M210.41,546.43 C188.96,569.17 169.967,589.3054 149.847,610.6354 " fill="none" id="Ticket-to-Producto" style="stroke:#181818;stroke-width:1.0;"/><polygon fill="#181818" points="145.73,615,154.8153,611.1977,149.1609,611.3628,148.9958,605.7084,145.73,615" style="stroke:#181818;stroke-width:1.0;"/><text fill="#000000" font-family="sans-serif" font-size="13" lengthAdjust="spacing" textLength="7" x="195.5632" y="551.1411">1</text><text fill="#000000" font-family="sans-serif" font-size="13" lengthAdjust="spacing" textLength="7" x="144.9737" y="604.3243">1</text></g><!--reverse link Producto to TipoProducto--><g id="link_Producto_TipoProducto"><path codeLine="65" d="M91,745.46 C91,765.14 91,774.89 91,793.82 " fill="none" id="Producto-backto-TipoProducto" style="stroke:#181818;stroke-width:1.0;"/><polygon fill="none" points="91,733.46,87,739.46,91,745.46,95,739.46,91,733.46" style="stroke:#181818;stroke-width:1.0;"/><text fill="#000000" font-family="sans-serif" font-size="13" lengthAdjust="spacing" textLength="7" x="83.5078" y="783.1">1</text></g><!--reverse link Ticket to Hito--><g id="link_Ticket_Hito"><path codeLine="67" d="M283,566.03 C283,586.46 283,595.83 283,614.74 " fill="none" id="Ticket-backto-Hito" style="stroke:#181818;stroke-width:1.0;"/><polygon fill="#181818" points="283,554.03,279,560.03,283,566.03,287,560.03,283,554.03" style="stroke:#181818;stroke-width:1.0;"/></g><!--reverse link Ticket to Mensaje--><g id="link_Ticket_Mensaje"><path codeLine="68" d="M363.522,563.1304 C381.082,583.5604 391.64,595.83 407.9,614.74 " fill="none" id="Ticket-backto-Mensaje" style="stroke:#181818;stroke-width:1.0;"/><polygon fill="#181818" points="355.7,554.03,356.5775,561.1875,363.522,563.1304,362.6444,555.9729,355.7,554.03" style="stroke:#181818;stroke-width:1.0;"/></g><!--SRC=[dLDBJiGm3Dtd555NCAWBjYF41Y6nGK9y3k0cPZ2qIPLas027uWnS36ScQTFEZFXqK-NPVizvTg3nmO4AKhNWlNpmQt1avPkG_DMIj5nACY4TZUqQXmnn4PbLGh43QkUWieQ9FNvzmZHqmdoa2DmTUhBcw5Xy2B5LlsW9JS2aVYALGt3tf5umS5h2hF7hDXJuK7wBlKFF332IS7U-HvPhIOEUTyBflJKQvo8ELnHzSLSKR2cnpJjaZqQl7FMAhxNZaG-WxHnzHFKKxT4GC4b3uyYDjqN7NOn7w1fsxd93LlPruwnUgr0ERe1-7c07JkrC2JojJBIvjvbgwiI85weHtgEOuBy8HEl_OVGUIuTfblJNQ3myuo65kBvew5SZG_DAcJm_eBFtkixxF0KdMof4tldgj99rVIwhHPMtRBbv06Awrdlp8329PhQ434dypzwAOLgMkuYHqlcXTC71Q7rvJbw9Rm00]--></g></svg>