<?xml version="1.0" encoding="us-ascii" standalone="no"?><svg xmlns="http://www.w3.org/2000/svg" xmlns:xlink="http://www.w3.org/1999/xlink" contentStyleType="text/css" height="964px" preserveAspectRatio="none" style="width:757px;height:964px;background:#FFFFFF;" version="1.1" viewBox="0 0 757 964" width="757px" zoomAndPan="magnify"><defs/><g><!--class Usuario--><g id="elem_Usuario"><rect codeLine="7" fill="#F1F1F1" height="136.0469" id="Usuario" rx="2.5" ry="2.5" style="stroke:#181818;stroke-width:0.5;" width="135" x="86.5" y="7"/><ellipse cx="125.8" cy="23" fill="#A9DCDF" rx="11" ry="11" style="stroke:#181818;stroke-width:1.0;"/><path d="M127.9875,24.7656 L123.8469,24.7656 L123.425,25.7969 L123.8469,25.7969 Q124.4563,25.7969 124.7219,26.0313 Q124.9875,26.2656 124.9875,26.6563 Q124.9875,27.0313 124.7219,27.2656 Q124.4563,27.5 123.8469,27.5 L121.55,27.5 Q120.9406,27.5 120.6906,27.2656 Q120.425,27.0313 120.425,26.6406 Q120.425,26.2656 120.7063,26.0313 Q120.9719,25.7813 121.5969,25.7969 L124.2688,19.1406 L123.1594,19.1406 Q122.55,19.1406 122.2844,18.9063 Q122.0188,18.6719 122.0188,18.2813 Q122.0188,17.9063 122.2844,17.6719 Q122.55,17.4375 123.1594,17.4375 L126.8313,17.4375 L130.2219,25.7969 Q130.8156,25.7969 131.0031,25.9375 Q131.3938,26.2031 131.3938,26.6563 Q131.3938,27.0313 131.1281,27.2656 Q130.8781,27.5 130.2688,27.5 L127.9719,27.5 Q127.3625,27.5 127.0969,27.2656 Q126.8313,27.0313 126.8313,26.6406 Q126.8313,26.2656 127.0969,26.0313 Q127.3625,25.7969 127.9719,25.7969 L128.3938,25.7969 L127.9875,24.7656 Z M127.2688,23.0625 L125.9094,19.6875 L124.5344,23.0625 L127.2688,23.0625 Z " fill="#000000"/><text fill="#000000" font-family="sans-serif" font-size="14" font-style="italic" lengthAdjust="spacing" textLength="49" x="145.2" y="28.7285">Usuario</text><line style="stroke:#181818;stroke-width:0.5;" x1="87.5" x2="220.5" y1="39" y2="39"/><text fill="#000000" font-family="sans-serif" font-size="14" lengthAdjust="spacing" textLength="43" x="92.5" y="57.5332">-id : int</text><text fill="#000000" font-family="sans-serif" font-size="14" lengthAdjust="spacing" textLength="100" x="92.5" y="75.1426">-nombre : string</text><text fill="#000000" font-family="sans-serif" font-size="14" lengthAdjust="spacing" textLength="85" x="92.5" y="92.752">-email : string</text><text fill="#000000" font-family="sans-serif" font-size="14" lengthAdjust="spacing" textLength="123" x="92.5" y="110.3613">-contrase&#241;a : string</text><line style="stroke:#181818;stroke-width:0.5;" x1="87.5" x2="220.5" y1="117.4375" y2="117.4375"/><text fill="#000000" font-family="sans-serif" font-size="14" lengthAdjust="spacing" textLength="98" x="92.5" y="135.9707">+iniciarSesion()</text></g><!--class Cliente--><g id="elem_Cliente"><rect codeLine="15" fill="#F1F1F1" height="83.2188" id="Cliente" rx="2.5" ry="2.5" style="stroke:#181818;stroke-width:0.5;" width="126" x="7" y="227"/><ellipse cx="44.5" cy="243" fill="#ADD1B2" rx="11" ry="11" style="stroke:#181818;stroke-width:1.0;"/><path d="M47.2656,238.875 Q47.4219,238.6563 47.6094,238.5469 Q47.7969,238.4375 48.0156,238.4375 Q48.3906,238.4375 48.625,238.7031 Q48.8594,238.9531 48.8594,239.5625 L48.8594,241.0156 Q48.8594,241.625 48.625,241.8906 Q48.3906,242.1563 48.0156,242.1563 Q47.6719,242.1563 47.4688,241.9531 Q47.2656,241.7656 47.1563,241.25 Q47.1094,240.8906 46.9219,240.7031 Q46.5938,240.3281 45.9844,240.1094 Q45.375,239.8906 44.75,239.8906 Q43.9844,239.8906 43.3438,240.2188 Q42.7188,240.5469 42.2188,241.2969 Q41.7344,242.0469 41.7344,243.0781 L41.7344,244.1719 Q41.7344,245.4063 42.625,246.2344 Q43.5156,247.0469 45.1094,247.0469 Q46.0469,247.0469 46.7031,246.7969 Q47.0938,246.6406 47.5156,246.2031 Q47.7813,245.9375 47.9219,245.8594 Q48.0781,245.7813 48.2813,245.7813 Q48.6094,245.7813 48.8594,246.0469 Q49.125,246.2969 49.125,246.6406 Q49.125,246.9844 48.7813,247.3906 Q48.2813,247.9688 47.4844,248.2969 Q46.4063,248.75 45.1094,248.75 Q43.5938,248.75 42.3906,248.125 Q41.4063,247.625 40.7188,246.5625 Q40.0313,245.4844 40.0313,244.2031 L40.0313,243.0469 Q40.0313,241.7188 40.6406,240.5781 Q41.2656,239.4219 42.3594,238.8125 Q43.4531,238.1875 44.6875,238.1875 Q45.4219,238.1875 46.0625,238.3594 Q46.7188,238.5156 47.2656,238.875 Z " fill="#000000"/><text fill="#000000" font-family="sans-serif" font-size="14" lengthAdjust="spacing" textLength="44" x="63.5" y="248.7285">Cliente</text><line style="stroke:#181818;stroke-width:0.5;" x1="8" x2="132" y1="259" y2="259"/><line style="stroke:#181818;stroke-width:0.5;" x1="8" x2="132" y1="267" y2="267"/><text fill="#000000" font-family="sans-serif" font-size="14" lengthAdjust="spacing" textLength="89" x="13" y="285.5332">+crearTicket()</text><text fill="#000000" font-family="sans-serif" font-size="14" lengthAdjust="spacing" textLength="114" x="13" y="303.1426">+consultarTicket()</text></g><!--class Representante--><g id="elem_Representante"><rect codeLine="20" fill="#F1F1F1" height="100.8281" id="Representante" rx="2.5" ry="2.5" style="stroke:#181818;stroke-width:0.5;" width="143" x="168.5" y="218"/><ellipse cx="191.15" cy="234" fill="#ADD1B2" rx="11" ry="11" style="stroke:#181818;stroke-width:1.0;"/><path d="M193.9156,229.875 Q194.0719,229.6563 194.2594,229.5469 Q194.4469,229.4375 194.6656,229.4375 Q195.0406,229.4375 195.275,229.7031 Q195.5094,229.9531 195.5094,230.5625 L195.5094,232.0156 Q195.5094,232.625 195.275,232.8906 Q195.0406,233.1563 194.6656,233.1563 Q194.3219,233.1563 194.1188,232.9531 Q193.9156,232.7656 193.8063,232.25 Q193.7594,231.8906 193.5719,231.7031 Q193.2438,231.3281 192.6344,231.1094 Q192.025,230.8906 191.4,230.8906 Q190.6344,230.8906 189.9938,231.2188 Q189.3688,231.5469 188.8688,232.2969 Q188.3844,233.0469 188.3844,234.0781 L188.3844,235.1719 Q188.3844,236.4063 189.275,237.2344 Q190.1656,238.0469 191.7594,238.0469 Q192.6969,238.0469 193.3531,237.7969 Q193.7438,237.6406 194.1656,237.2031 Q194.4313,236.9375 194.5719,236.8594 Q194.7281,236.7813 194.9313,236.7813 Q195.2594,236.7813 195.5094,237.0469 Q195.775,237.2969 195.775,237.6406 Q195.775,237.9844 195.4313,238.3906 Q194.9313,238.9688 194.1344,239.2969 Q193.0563,239.75 191.7594,239.75 Q190.2438,239.75 189.0406,239.125 Q188.0563,238.625 187.3688,237.5625 Q186.6813,236.4844 186.6813,235.2031 L186.6813,234.0469 Q186.6813,232.7188 187.2906,231.5781 Q187.9156,230.4219 189.0094,229.8125 Q190.1031,229.1875 191.3375,229.1875 Q192.0719,229.1875 192.7125,229.3594 Q193.3688,229.5156 193.9156,229.875 Z " fill="#000000"/><text fill="#000000" font-family="sans-serif" font-size="14" lengthAdjust="spacing" textLength="94" x="206.85" y="239.7285">Representante</text><line style="stroke:#181818;stroke-width:0.5;" x1="169.5" x2="310.5" y1="250" y2="250"/><text fill="#000000" font-family="sans-serif" font-size="14" lengthAdjust="spacing" textLength="131" x="174.5" y="268.5332">-especialidad : string</text><line style="stroke:#181818;stroke-width:0.5;" x1="169.5" x2="310.5" y1="275.6094" y2="275.6094"/><text fill="#000000" font-family="sans-serif" font-size="14" lengthAdjust="spacing" textLength="121" x="174.5" y="294.1426">+responderTicket()</text><text fill="#000000" font-family="sans-serif" font-size="14" lengthAdjust="spacing" textLength="95" x="174.5" y="311.752">+registrarHito()</text></g><!--class Ticket--><g id="elem_Ticket"><rect codeLine="26" fill="#F1F1F1" height="206.4844" id="Ticket" rx="2.5" ry="2.5" style="stroke:#181818;stroke-width:0.5;" width="136" x="161" y="411"/><ellipse cx="205.75" cy="427" fill="#ADD1B2" rx="11" ry="11" style="stroke:#181818;stroke-width:1.0;"/><path d="M208.5156,422.875 Q208.6719,422.6563 208.8594,422.5469 Q209.0469,422.4375 209.2656,422.4375 Q209.6406,422.4375 209.875,422.7031 Q210.1094,422.9531 210.1094,423.5625 L210.1094,425.0156 Q210.1094,425.625 209.875,425.8906 Q209.6406,426.1563 209.2656,426.1563 Q208.9219,426.1563 208.7188,425.9531 Q208.5156,425.7656 208.4063,425.25 Q208.3594,424.8906 208.1719,424.7031 Q207.8438,424.3281 207.2344,424.1094 Q206.625,423.8906 206,423.8906 Q205.2344,423.8906 204.5938,424.2188 Q203.9688,424.5469 203.4688,425.2969 Q202.9844,426.0469 202.9844,427.0781 L202.9844,428.1719 Q202.9844,429.4063 203.875,430.2344 Q204.7656,431.0469 206.3594,431.0469 Q207.2969,431.0469 207.9531,430.7969 Q208.3438,430.6406 208.7656,430.2031 Q209.0313,429.9375 209.1719,429.8594 Q209.3281,429.7813 209.5313,429.7813 Q209.8594,429.7813 210.1094,430.0469 Q210.375,430.2969 210.375,430.6406 Q210.375,430.9844 210.0313,431.3906 Q209.5313,431.9688 208.7344,432.2969 Q207.6563,432.75 206.3594,432.75 Q204.8438,432.75 203.6406,432.125 Q202.6563,431.625 201.9688,430.5625 Q201.2813,429.4844 201.2813,428.2031 L201.2813,427.0469 Q201.2813,425.7188 201.8906,424.5781 Q202.5156,423.4219 203.6094,422.8125 Q204.7031,422.1875 205.9375,422.1875 Q206.6719,422.1875 207.3125,422.3594 Q207.9688,422.5156 208.5156,422.875 Z " fill="#000000"/><text fill="#000000" font-family="sans-serif" font-size="14" lengthAdjust="spacing" textLength="38" x="226.25" y="432.7285">Ticket</text><line style="stroke:#181818;stroke-width:0.5;" x1="162" x2="296" y1="443" y2="443"/><text fill="#000000" font-family="sans-serif" font-size="14" lengthAdjust="spacing" textLength="43" x="167" y="461.5332">-id : int</text><text fill="#000000" font-family="sans-serif" font-size="14" lengthAdjust="spacing" textLength="124" x="167" y="479.1426">-descripcion : string</text><text fill="#000000" font-family="sans-serif" font-size="14" lengthAdjust="spacing" textLength="95" x="167" y="496.752">-estado : string</text><text fill="#000000" font-family="sans-serif" font-size="14" lengthAdjust="spacing" textLength="80" x="167" y="514.3613">-fecha : date</text><line style="stroke:#181818;stroke-width:0.5;" x1="162" x2="296" y1="521.4375" y2="521.4375"/><text fill="#000000" font-family="sans-serif" font-size="14" lengthAdjust="spacing" textLength="47" x="167" y="539.9707">+abrir()</text><text fill="#000000" font-family="sans-serif" font-size="14" lengthAdjust="spacing" textLength="56" x="167" y="557.5801">+cerrar()</text><text fill="#000000" font-family="sans-serif" font-size="14" lengthAdjust="spacing" textLength="112" x="167" y="575.1895">+cambiarEstado()</text><text fill="#000000" font-family="sans-serif" font-size="14" lengthAdjust="spacing" textLength="92" x="167" y="592.7988">+agregarHito()</text><text fill="#000000" font-family="sans-serif" font-size="14" lengthAdjust="spacing" textLength="121" x="167" y="610.4082">+agregarMensaje()</text></g><!--class Producto--><g id="elem_Producto"><rect codeLine="39" fill="#F1F1F1" height="118.4375" id="Producto" rx="2.5" ry="2.5" style="stroke:#181818;stroke-width:0.5;" width="162" x="161" y="678"/><ellipse cx="209.25" cy="694" fill="#ADD1B2" rx="11" ry="11" style="stroke:#181818;stroke-width:1.0;"/><path d="M212.0156,689.875 Q212.1719,689.6563 212.3594,689.5469 Q212.5469,689.4375 212.7656,689.4375 Q213.1406,689.4375 213.375,689.7031 Q213.6094,689.9531 213.6094,690.5625 L213.6094,692.0156 Q213.6094,692.625 213.375,692.8906 Q213.1406,693.1563 212.7656,693.1563 Q212.4219,693.1563 212.2188,692.9531 Q212.0156,692.7656 211.9063,692.25 Q211.8594,691.8906 211.6719,691.7031 Q211.3438,691.3281 210.7344,691.1094 Q210.125,690.8906 209.5,690.8906 Q208.7344,690.8906 208.0938,691.2188 Q207.4688,691.5469 206.9688,692.2969 Q206.4844,693.0469 206.4844,694.0781 L206.4844,695.1719 Q206.4844,696.4063 207.375,697.2344 Q208.2656,698.0469 209.8594,698.0469 Q210.7969,698.0469 211.4531,697.7969 Q211.8438,697.6406 212.2656,697.2031 Q212.5313,696.9375 212.6719,696.8594 Q212.8281,696.7813 213.0313,696.7813 Q213.3594,696.7813 213.6094,697.0469 Q213.875,697.2969 213.875,697.6406 Q213.875,697.9844 213.5313,698.3906 Q213.0313,698.9688 212.2344,699.2969 Q211.1563,699.75 209.8594,699.75 Q208.3438,699.75 207.1406,699.125 Q206.1563,698.625 205.4688,697.5625 Q204.7813,696.4844 204.7813,695.2031 L204.7813,694.0469 Q204.7813,692.7188 205.3906,691.5781 Q206.0156,690.4219 207.1094,689.8125 Q208.2031,689.1875 209.4375,689.1875 Q210.1719,689.1875 210.8125,689.3594 Q211.4688,689.5156 212.0156,689.875 Z " fill="#000000"/><text fill="#000000" font-family="sans-serif" font-size="14" lengthAdjust="spacing" textLength="57" x="229.75" y="699.7285">Producto</text><line style="stroke:#181818;stroke-width:0.5;" x1="162" x2="322" y1="710" y2="710"/><text fill="#000000" font-family="sans-serif" font-size="14" lengthAdjust="spacing" textLength="100" x="167" y="728.5332">-idProducto : int</text><text fill="#000000" font-family="sans-serif" font-size="14" lengthAdjust="spacing" textLength="100" x="167" y="746.1426">-nombre : string</text><text fill="#000000" font-family="sans-serif" font-size="14" lengthAdjust="spacing" textLength="91" x="167" y="763.752">-marca : string</text><line style="stroke:#181818;stroke-width:0.5;" x1="162" x2="322" y1="770.8281" y2="770.8281"/><text fill="#000000" font-family="sans-serif" font-size="14" lengthAdjust="spacing" textLength="150" x="167" y="789.3613">+asignarTipoProducto()</text></g><!--class TipoProducto--><g id="elem_TipoProducto"><rect codeLine="47" fill="#F1F1F1" height="100.8281" id="TipoProducto" rx="2.5" ry="2.5" style="stroke:#181818;stroke-width:0.5;" width="140" x="172" y="857"/><ellipse cx="197.35" cy="873" fill="#ADD1B2" rx="11" ry="11" style="stroke:#181818;stroke-width:1.0;"/><path d="M200.1156,868.875 Q200.2719,868.6563 200.4594,868.5469 Q200.6469,868.4375 200.8656,868.4375 Q201.2406,868.4375 201.475,868.7031 Q201.7094,868.9531 201.7094,869.5625 L201.7094,871.0156 Q201.7094,871.625 201.475,871.8906 Q201.2406,872.1563 200.8656,872.1563 Q200.5219,872.1563 200.3188,871.9531 Q200.1156,871.7656 200.0063,871.25 Q199.9594,870.8906 199.7719,870.7031 Q199.4438,870.3281 198.8344,870.1094 Q198.225,869.8906 197.6,869.8906 Q196.8344,869.8906 196.1938,870.2188 Q195.5688,870.5469 195.0688,871.2969 Q194.5844,872.0469 194.5844,873.0781 L194.5844,874.1719 Q194.5844,875.4063 195.475,876.2344 Q196.3656,877.0469 197.9594,877.0469 Q198.8969,877.0469 199.5531,876.7969 Q199.9438,876.6406 200.3656,876.2031 Q200.6313,875.9375 200.7719,875.8594 Q200.9281,875.7813 201.1313,875.7813 Q201.4594,875.7813 201.7094,876.0469 Q201.975,876.2969 201.975,876.6406 Q201.975,876.9844 201.6313,877.3906 Q201.1313,877.9688 200.3344,878.2969 Q199.2563,878.75 197.9594,878.75 Q196.4438,878.75 195.2406,878.125 Q194.2563,877.625 193.5688,876.5625 Q192.8813,875.4844 192.8813,874.2031 L192.8813,873.0469 Q192.8813,871.7188 193.4906,870.5781 Q194.1156,869.4219 195.2094,868.8125 Q196.3031,868.1875 197.5375,868.1875 Q198.2719,868.1875 198.9125,868.3594 Q199.5688,868.5156 200.1156,868.875 Z " fill="#000000"/><text fill="#000000" font-family="sans-serif" font-size="14" lengthAdjust="spacing" textLength="85" x="213.65" y="878.7285">TipoProducto</text><line style="stroke:#181818;stroke-width:0.5;" x1="173" x2="311" y1="889" y2="889"/><text fill="#000000" font-family="sans-serif" font-size="14" lengthAdjust="spacing" textLength="71" x="178" y="907.5332">-idTipo : int</text><text fill="#000000" font-family="sans-serif" font-size="14" lengthAdjust="spacing" textLength="128" x="178" y="925.1426">-nombreTipo : string</text><line style="stroke:#181818;stroke-width:0.5;" x1="173" x2="311" y1="932.2188" y2="932.2188"/><text fill="#000000" font-family="sans-serif" font-size="14" lengthAdjust="spacing" textLength="88" x="178" y="950.752">+validarTipo()</text></g><!--class Hito--><g id="elem_Hito"><rect codeLine="54" fill="#F1F1F1" height="118.4375" id="Hito" rx="2.5" ry="2.5" style="stroke:#181818;stroke-width:0.5;" width="136" x="360" y="678"/><ellipse cx="411.75" cy="694" fill="#ADD1B2" rx="11" ry="11" style="stroke:#181818;stroke-width:1.0;"/><path d="M414.5156,689.875 Q414.6719,689.6563 414.8594,689.5469 Q415.0469,689.4375 415.2656,689.4375 Q415.6406,689.4375 415.875,689.7031 Q416.1094,689.9531 416.1094,690.5625 L416.1094,692.0156 Q416.1094,692.625 415.875,692.8906 Q415.6406,693.1563 415.2656,693.1563 Q414.9219,693.1563 414.7188,692.9531 Q414.5156,692.7656 414.4063,692.25 Q414.3594,691.8906 414.1719,691.7031 Q413.8438,691.3281 413.2344,691.1094 Q412.625,690.8906 412,690.8906 Q411.2344,690.8906 410.5938,691.2188 Q409.9688,691.5469 409.4688,692.2969 Q408.9844,693.0469 408.9844,694.0781 L408.9844,695.1719 Q408.9844,696.4063 409.875,697.2344 Q410.7656,698.0469 412.3594,698.0469 Q413.2969,698.0469 413.9531,697.7969 Q414.3438,697.6406 414.7656,697.2031 Q415.0313,696.9375 415.1719,696.8594 Q415.3281,696.7813 415.5313,696.7813 Q415.8594,696.7813 416.1094,697.0469 Q416.375,697.2969 416.375,697.6406 Q416.375,697.9844 416.0313,698.3906 Q415.5313,698.9688 414.7344,699.2969 Q413.6563,699.75 412.3594,699.75 Q410.8438,699.75 409.6406,699.125 Q408.6563,698.625 407.9688,697.5625 Q407.2813,696.4844 407.2813,695.2031 L407.2813,694.0469 Q407.2813,692.7188 407.8906,691.5781 Q408.5156,690.4219 409.6094,689.8125 Q410.7031,689.1875 411.9375,689.1875 Q412.6719,689.1875 413.3125,689.3594 Q413.9688,689.5156 414.5156,689.875 Z " fill="#000000"/><text fill="#000000" font-family="sans-serif" font-size="14" lengthAdjust="spacing" textLength="24" x="432.25" y="699.7285">Hito</text><line style="stroke:#181818;stroke-width:0.5;" x1="361" x2="495" y1="710" y2="710"/><text fill="#000000" font-family="sans-serif" font-size="14" lengthAdjust="spacing" textLength="43" x="366" y="728.5332">-id : int</text><text fill="#000000" font-family="sans-serif" font-size="14" lengthAdjust="spacing" textLength="124" x="366" y="746.1426">-descripcion : string</text><text fill="#000000" font-family="sans-serif" font-size="14" lengthAdjust="spacing" textLength="80" x="366" y="763.752">-fecha : date</text><line style="stroke:#181818;stroke-width:0.5;" x1="361" x2="495" y1="770.8281" y2="770.8281"/><text fill="#000000" font-family="sans-serif" font-size="14" lengthAdjust="spacing" textLength="71" x="366" y="789.3613">+registrar()</text></g><!--class Mensaje--><g id="elem_Mensaje"><rect codeLine="62" fill="#F1F1F1" height="118.4375" id="Mensaje" rx="2.5" ry="2.5" style="stroke:#181818;stroke-width:0.5;" width="126" x="565" y="678"/><ellipse cx="598.45" cy="694" fill="#ADD1B2" rx="11" ry="11" style="stroke:#181818;stroke-width:1.0;"/><path d="M601.2156,689.875 Q601.3719,689.6563 601.5594,689.5469 Q601.7469,689.4375 601.9656,689.4375 Q602.3406,689.4375 602.575,689.7031 Q602.8094,689.9531 602.8094,690.5625 L602.8094,692.0156 Q602.8094,692.625 602.575,692.8906 Q602.3406,693.1563 601.9656,693.1563 Q601.6219,693.1563 601.4188,692.9531 Q601.2156,692.7656 601.1063,692.25 Q601.0594,691.8906 600.8719,691.7031 Q600.5438,691.3281 599.9344,691.1094 Q599.325,690.8906 598.7,690.8906 Q597.9344,690.8906 597.2938,691.2188 Q596.6688,691.5469 596.1688,692.2969 Q595.6844,693.0469 595.6844,694.0781 L595.6844,695.1719 Q595.6844,696.4063 596.575,697.2344 Q597.4656,698.0469 599.0594,698.0469 Q599.9969,698.0469 600.6531,697.7969 Q601.0438,697.6406 601.4656,697.2031 Q601.7313,696.9375 601.8719,696.8594 Q602.0281,696.7813 602.2313,696.7813 Q602.5594,696.7813 602.8094,697.0469 Q603.075,697.2969 603.075,697.6406 Q603.075,697.9844 602.7313,698.3906 Q602.2313,698.9688 601.4344,699.2969 Q600.3563,699.75 599.0594,699.75 Q597.5438,699.75 596.3406,699.125 Q595.3563,698.625 594.6688,697.5625 Q593.9813,696.4844 593.9813,695.2031 L593.9813,694.0469 Q593.9813,692.7188 594.5906,691.5781 Q595.2156,690.4219 596.3094,689.8125 Q597.4031,689.1875 598.6375,689.1875 Q599.3719,689.1875 600.0125,689.3594 Q600.6688,689.5156 601.2156,689.875 Z " fill="#000000"/><text fill="#000000" font-family="sans-serif" font-size="14" lengthAdjust="spacing" textLength="53" x="616.55" y="699.7285">Mensaje</text><line style="stroke:#181818;stroke-width:0.5;" x1="566" x2="690" y1="710" y2="710"/><text fill="#000000" font-family="sans-serif" font-size="14" lengthAdjust="spacing" textLength="43" x="571" y="728.5332">-id : int</text><text fill="#000000" font-family="sans-serif" font-size="14" lengthAdjust="spacing" textLength="114" x="571" y="746.1426">-contenido : string</text><text fill="#000000" font-family="sans-serif" font-size="14" lengthAdjust="spacing" textLength="80" x="571" y="763.752">-fecha : date</text><line style="stroke:#181818;stroke-width:0.5;" x1="566" x2="690" y1="770.8281" y2="770.8281"/><text fill="#000000" font-family="sans-serif" font-size="14" lengthAdjust="spacing" textLength="57" x="571" y="789.3613">+enviar()</text></g><!--class ControlTicket--><g id="elem_ControlTicket"><rect codeLine="74" fill="#F1F1F1" height="129.1406" id="ControlTicket" rx="2.5" ry="2.5" style="stroke:#181818;stroke-width:0.5;" width="162" x="374" y="204"/><ellipse cx="409.7" cy="225.3516" fill="#ADD1B2" rx="11" ry="11" style="stroke:#181818;stroke-width:1.0;"/><path d="M412.4656,221.2266 Q412.6219,221.0078 412.8094,220.8984 Q412.9969,220.7891 413.2156,220.7891 Q413.5906,220.7891 413.825,221.0547 Q414.0594,221.3047 414.0594,221.9141 L414.0594,223.3672 Q414.0594,223.9766 413.825,224.2422 Q413.5906,224.5078 413.2156,224.5078 Q412.8719,224.5078 412.6688,224.3047 Q412.4656,224.1172 412.3563,223.6016 Q412.3094,223.2422 412.1219,223.0547 Q411.7938,222.6797 411.1844,222.4609 Q410.575,222.2422 409.95,222.2422 Q409.1844,222.2422 408.5438,222.5703 Q407.9188,222.8984 407.4188,223.6484 Q406.9344,224.3984 406.9344,225.4297 L406.9344,226.5234 Q406.9344,227.7578 407.825,228.5859 Q408.7156,229.3984 410.3094,229.3984 Q411.2469,229.3984 411.9031,229.1484 Q412.2938,228.9922 412.7156,228.5547 Q412.9813,228.2891 413.1219,228.2109 Q413.2781,228.1328 413.4813,228.1328 Q413.8094,228.1328 414.0594,228.3984 Q414.325,228.6484 414.325,228.9922 Q414.325,229.3359 413.9813,229.7422 Q413.4813,230.3203 412.6844,230.6484 Q411.6063,231.1016 410.3094,231.1016 Q408.7938,231.1016 407.5906,230.4766 Q406.6063,229.9766 405.9188,228.9141 Q405.2313,227.8359 405.2313,226.5547 L405.2313,225.3984 Q405.2313,224.0703 405.8406,222.9297 Q406.4656,221.7734 407.5594,221.1641 Q408.6531,220.5391 409.8875,220.5391 Q410.6219,220.5391 411.2625,220.7109 Q411.9188,220.8672 412.4656,221.2266 Z " fill="#000000"/><text fill="#000000" font-family="sans-serif" font-size="12" font-style="italic" lengthAdjust="spacing" textLength="51" x="444.8" y="221.457">&#171;control&#187;</text><text fill="#000000" font-family="sans-serif" font-size="14" lengthAdjust="spacing" textLength="84" x="428.3" y="238.627">ControlTicket</text><line style="stroke:#181818;stroke-width:0.5;" x1="375" x2="535" y1="246.7031" y2="246.7031"/><line style="stroke:#181818;stroke-width:0.5;" x1="375" x2="535" y1="254.7031" y2="254.7031"/><text fill="#000000" font-family="sans-serif" font-size="14" lengthAdjust="spacing" textLength="89" x="380" y="273.2363">+crearTicket()</text><text fill="#000000" font-family="sans-serif" font-size="14" lengthAdjust="spacing" textLength="112" x="380" y="290.8457">+cambiarEstado()</text><text fill="#000000" font-family="sans-serif" font-size="14" lengthAdjust="spacing" textLength="150" x="380" y="308.4551">+asignarTipoProducto()</text><text fill="#000000" font-family="sans-serif" font-size="14" lengthAdjust="spacing" textLength="114" x="380" y="326.0645">+consultarTicket()</text></g><!--class ControlHito--><g id="elem_ControlHito"><rect codeLine="81" fill="#F1F1F1" height="93.9219" id="ControlHito" rx="2.5" ry="2.5" style="stroke:#181818;stroke-width:0.5;" width="138" x="403" y="467"/><ellipse cx="434.2" cy="488.3516" fill="#ADD1B2" rx="11" ry="11" style="stroke:#181818;stroke-width:1.0;"/><path d="M436.9656,484.2266 Q437.1219,484.0078 437.3094,483.8984 Q437.4969,483.7891 437.7156,483.7891 Q438.0906,483.7891 438.325,484.0547 Q438.5594,484.3047 438.5594,484.9141 L438.5594,486.3672 Q438.5594,486.9766 438.325,487.2422 Q438.0906,487.5078 437.7156,487.5078 Q437.3719,487.5078 437.1688,487.3047 Q436.9656,487.1172 436.8563,486.6016 Q436.8094,486.2422 436.6219,486.0547 Q436.2938,485.6797 435.6844,485.4609 Q435.075,485.2422 434.45,485.2422 Q433.6844,485.2422 433.0438,485.5703 Q432.4188,485.8984 431.9188,486.6484 Q431.4344,487.3984 431.4344,488.4297 L431.4344,489.5234 Q431.4344,490.7578 432.325,491.5859 Q433.2156,492.3984 434.8094,492.3984 Q435.7469,492.3984 436.4031,492.1484 Q436.7938,491.9922 437.2156,491.5547 Q437.4813,491.2891 437.6219,491.2109 Q437.7781,491.1328 437.9813,491.1328 Q438.3094,491.1328 438.5594,491.3984 Q438.825,491.6484 438.825,491.9922 Q438.825,492.3359 438.4813,492.7422 Q437.9813,493.3203 437.1844,493.6484 Q436.1063,494.1016 434.8094,494.1016 Q433.2938,494.1016 432.0906,493.4766 Q431.1063,492.9766 430.4188,491.9141 Q429.7313,490.8359 429.7313,489.5547 L429.7313,488.3984 Q429.7313,487.0703 430.3406,485.9297 Q430.9656,484.7734 432.0594,484.1641 Q433.1531,483.5391 434.3875,483.5391 Q435.1219,483.5391 435.7625,483.7109 Q436.4188,483.8672 436.9656,484.2266 Z " fill="#000000"/><text fill="#000000" font-family="sans-serif" font-size="12" font-style="italic" lengthAdjust="spacing" textLength="51" x="461.3" y="484.457">&#171;control&#187;</text><text fill="#000000" font-family="sans-serif" font-size="14" lengthAdjust="spacing" textLength="70" x="451.8" y="501.627">ControlHito</text><line style="stroke:#181818;stroke-width:0.5;" x1="404" x2="540" y1="509.7031" y2="509.7031"/><line style="stroke:#181818;stroke-width:0.5;" x1="404" x2="540" y1="517.7031" y2="517.7031"/><text fill="#000000" font-family="sans-serif" font-size="14" lengthAdjust="spacing" textLength="95" x="409" y="536.2363">+registrarHito()</text><text fill="#000000" font-family="sans-serif" font-size="14" lengthAdjust="spacing" textLength="126" x="409" y="553.8457">+consultarHistorial()</text></g><!--class ControlNotificaciones--><g id="elem_ControlNotificaciones"><rect codeLine="86" fill="#F1F1F1" height="111.5313" id="ControlNotificaciones" rx="2.5" ry="2.5" style="stroke:#181818;stroke-width:0.5;" width="174" x="576" y="458"/><ellipse cx="595.05" cy="479.3516" fill="#ADD1B2" rx="11" ry="11" style="stroke:#181818;stroke-width:1.0;"/><path d="M597.8156,475.2266 Q597.9719,475.0078 598.1594,474.8984 Q598.3469,474.7891 598.5656,474.7891 Q598.9406,474.7891 599.175,475.0547 Q599.4094,475.3047 599.4094,475.9141 L599.4094,477.3672 Q599.4094,477.9766 599.175,478.2422 Q598.9406,478.5078 598.5656,478.5078 Q598.2219,478.5078 598.0188,478.3047 Q597.8156,478.1172 597.7063,477.6016 Q597.6594,477.2422 597.4719,477.0547 Q597.1438,476.6797 596.5344,476.4609 Q595.925,476.2422 595.3,476.2422 Q594.5344,476.2422 593.8938,476.5703 Q593.2688,476.8984 592.7688,477.6484 Q592.2844,478.3984 592.2844,479.4297 L592.2844,480.5234 Q592.2844,481.7578 593.175,482.5859 Q594.0656,483.3984 595.6594,483.3984 Q596.5969,483.3984 597.2531,483.1484 Q597.6438,482.9922 598.0656,482.5547 Q598.3313,482.2891 598.4719,482.2109 Q598.6281,482.1328 598.8313,482.1328 Q599.1594,482.1328 599.4094,482.3984 Q599.675,482.6484 599.675,482.9922 Q599.675,483.3359 599.3313,483.7422 Q598.8313,484.3203 598.0344,484.6484 Q596.9563,485.1016 595.6594,485.1016 Q594.1438,485.1016 592.9406,484.4766 Q591.9563,483.9766 591.2688,482.9141 Q590.5813,481.8359 590.5813,480.5547 L590.5813,479.3984 Q590.5813,478.0703 591.1906,476.9297 Q591.8156,475.7734 592.9094,475.1641 Q594.0031,474.5391 595.2375,474.5391 Q595.9719,474.5391 596.6125,474.7109 Q597.2688,474.8672 597.8156,475.2266 Z " fill="#000000"/><text fill="#000000" font-family="sans-serif" font-size="12" font-style="italic" lengthAdjust="spacing" textLength="51" x="650.95" y="475.457">&#171;control&#187;</text><text fill="#000000" font-family="sans-serif" font-size="14" lengthAdjust="spacing" textLength="133" x="609.95" y="492.627">ControlNotificaciones</text><line style="stroke:#181818;stroke-width:0.5;" x1="577" x2="749" y1="500.7031" y2="500.7031"/><line style="stroke:#181818;stroke-width:0.5;" x1="577" x2="749" y1="508.7031" y2="508.7031"/><text fill="#000000" font-family="sans-serif" font-size="14" lengthAdjust="spacing" textLength="110" x="582" y="527.2363">+enviarMensaje()</text><text fill="#000000" font-family="sans-serif" font-size="14" lengthAdjust="spacing" textLength="112" x="582" y="544.8457">+notificarCliente()</text><text fill="#000000" font-family="sans-serif" font-size="14" lengthAdjust="spacing" textLength="162" x="582" y="562.4551">+notificarRepresentante()</text></g><!--reverse link Usuario to Cliente--><g id="link_Usuario_Cliente"><path codeLine="96" d="M117.2707,159.7345 C105.0307,187.6445 98.46,202.63 87.8,226.91 " fill="none" id="Usuario-backto-Cliente" style="stroke:#181818;stroke-width:1.0;"/><polygon fill="none" points="124.5,143.25,111.7759,157.3247,122.7655,162.1442,124.5,143.25" style="stroke:#181818;stroke-width:1.0;"/></g><!--reverse link Usuario to Representante--><g id="link_Usuario_Representante"><path codeLine="97" d="M191.5718,159.6712 C202.6018,184.2412 207.51,195.15 217.73,217.9 " fill="none" id="Usuario-backto-Representante" style="stroke:#181818;stroke-width:1.0;"/><polygon fill="none" points="184.2,143.25,186.0981,162.1285,197.0456,157.2139,184.2,143.25" style="stroke:#181818;stroke-width:1.0;"/></g><!--link Cliente to Ticket--><g id="link_Cliente_Ticket"><path codeLine="103" d="M96.61,310.26 C114.6,337.81 135.9301,370.4658 159.0401,405.8658 " fill="none" id="Cliente-to-Ticket" style="stroke:#181818;stroke-width:1.0;"/><polygon fill="#181818" points="162.32,410.89,160.7496,401.1671,159.5867,406.7032,154.0507,405.5404,162.32,410.89" style="stroke:#181818;stroke-width:1.0;"/><text fill="#000000" font-family="sans-serif" font-size="13" lengthAdjust="spacing" textLength="25" x="141" y="377.4951">crea</text><text fill="#000000" font-family="sans-serif" font-size="13" lengthAdjust="spacing" textLength="7" x="93.2932" y="331.6962">1</text><text fill="#000000" font-family="sans-serif" font-size="13" lengthAdjust="spacing" textLength="5" x="152.2396" y="400.2206">*</text></g><!--link Representante to Ticket--><g id="link_Representante_Ticket"><path codeLine="104" d="M237.76,319.07 C236.56,345.56 235.3215,373.1861 233.8815,404.9761 " fill="none" id="Representante-to-Ticket" style="stroke:#181818;stroke-width:1.0;"/><polygon fill="#181818" points="233.61,410.97,238.0132,402.1602,233.8363,405.9751,230.0214,401.7982,233.61,410.97" style="stroke:#181818;stroke-width:1.0;"/><text fill="#000000" font-family="sans-serif" font-size="13" lengthAdjust="spacing" textLength="42" x="236" y="377.4951">atiende</text><text fill="#000000" font-family="sans-serif" font-size="13" lengthAdjust="spacing" textLength="7" x="229.9887" y="340.4706">1</text><text fill="#000000" font-family="sans-serif" font-size="13" lengthAdjust="spacing" textLength="5" x="228.765" y="400.3065">*</text></g><!--reverse link Ticket to Hito--><g id="link_Ticket_Hito"><path codeLine="106" d="M305.2391,599.6681 C330.8891,628.1581 351.6,651.16 375.6,677.8 " fill="none" id="Ticket-backto-Hito" style="stroke:#181818;stroke-width:1.0;"/><polygon fill="#181818" points="297.21,590.75,298.2519,597.8854,305.2391,599.6681,304.1973,592.5327,297.21,590.75" style="stroke:#181818;stroke-width:1.0;"/></g><!--reverse link Ticket to Mensaje--><g id="link_Ticket_Mensaje"><path codeLine="107" d="M307.3505,568.8225 C334.4605,586.8025 356.22,600.33 386,617 C440.99,647.79 457.47,650.15 514,678 C530.53,686.14 548.33,695.1 564.83,703.49 " fill="none" id="Ticket-backto-Mensaje" style="stroke:#181818;stroke-width:1.0;"/><polygon fill="#181818" points="297.35,562.19,300.1394,568.8398,307.3505,568.8225,304.5611,562.1728,297.35,562.19" style="stroke:#181818;stroke-width:1.0;"/></g><!--reverse link Ticket to Producto--><g id="link_Ticket_Producto"><path codeLine="109" d="M235.7123,629.0694 C236.9323,649.8794 237.48,659.11 238.57,677.75 " fill="none" id="Ticket-backto-Producto" style="stroke:#181818;stroke-width:1.0;"/><polygon fill="#181818" points="235.01,617.09,231.368,623.3138,235.7123,629.0694,239.3543,622.8456,235.01,617.09" style="stroke:#181818;stroke-width:1.0;"/><text fill="#000000" font-family="sans-serif" font-size="13" lengthAdjust="spacing" textLength="7" x="228.2022" y="639.0854">1</text><text fill="#000000" font-family="sans-serif" font-size="13" lengthAdjust="spacing" textLength="7" x="230.7254" y="667.0438">1</text></g><!--reverse link Producto to TipoProducto--><g id="link_Producto_TipoProducto"><path codeLine="110" d="M242,808.46 C242,828.14 242,837.89 242,856.82 " fill="none" id="Producto-backto-TipoProducto" style="stroke:#181818;stroke-width:1.0;"/><polygon fill="none" points="242,796.46,238,802.46,242,808.46,246,802.46,242,796.46" style="stroke:#181818;stroke-width:1.0;"/><text fill="#000000" font-family="sans-serif" font-size="13" lengthAdjust="spacing" textLength="7" x="234.5953" y="817.7502">1</text><text fill="#000000" font-family="sans-serif" font-size="13" lengthAdjust="spacing" textLength="7" x="234.5078" y="846.1">1</text></g><!--link ControlTicket to Ticket--><g id="link_ControlTicket_Ticket"><path codeLine="116" d="M373.86,322.57 C357.79,334.87 341.67,348.61 328,363 C314.25,377.48 304.6431,389.1903 292.7831,405.9703 " fill="none" id="ControlTicket-to-Ticket" style="stroke:#181818;stroke-width:1.0;"/><polygon fill="#181818" points="289.32,410.87,297.7811,405.8292,292.2059,406.7869,291.2482,401.2117,289.32,410.87" style="stroke:#181818;stroke-width:1.0;"/></g><!--link ControlTicket to Producto--><g id="link_ControlTicket_Producto"><path codeLine="117" d="M421.89,333.2 C409.92,357.28 396.72,385.12 386,411 C348.93,500.47 356.34,529.43 315,617 C305.33,637.49 296.1525,653.7973 284.3725,672.7073 " fill="none" id="ControlTicket-to-Producto" style="stroke:#181818;stroke-width:1.0;"/><polygon fill="#181818" points="281.2,677.8,289.3538,672.276,283.8437,673.5561,282.5636,668.046,281.2,677.8" style="stroke:#181818;stroke-width:1.0;"/></g><!--link ControlTicket to ControlHito--><g id="link_ControlTicket_ControlHito"><path codeLine="118" d="M459.44,333.16 C462.37,375.01 465.7022,422.8346 468.3422,460.6546 " fill="none" id="ControlTicket-to-ControlHito" style="stroke:#181818;stroke-width:1.0;"/><polygon fill="#181818" points="468.76,466.64,472.1236,457.3833,468.4118,461.6521,464.143,457.9404,468.76,466.64" style="stroke:#181818;stroke-width:1.0;"/></g><!--link ControlTicket to ControlNotificaciones--><g id="link_ControlTicket_ControlNotificaciones"><path codeLine="119" d="M509.38,333.16 C542.48,371.91 580.4428,416.358 612.1028,453.418 " fill="none" id="ControlTicket-to-ControlNotificaciones" style="stroke:#181818;stroke-width:1.0;"/><polygon fill="#181818" points="616,457.98,613.1954,448.5389,612.7523,454.1784,607.1128,453.7352,616,457.98" style="stroke:#181818;stroke-width:1.0;"/></g><!--link ControlHito to Hito--><g id="link_ControlHito_Hito"><path codeLine="121" d="M462.83,561.06 C456.08,594.96 448.0214,635.4155 440.7614,671.8855 " fill="none" id="ControlHito-to-Hito" style="stroke:#181818;stroke-width:1.0;"/><polygon fill="#181818" points="439.59,677.77,445.2702,669.7241,440.5662,672.8662,437.4241,668.1622,439.59,677.77" style="stroke:#181818;stroke-width:1.0;"/></g><!--link ControlNotificaciones to Mensaje--><g id="link_ControlNotificaciones_Mensaje"><path codeLine="123" d="M654.26,570.2 C649.07,602.93 643.4487,638.4539 638.1787,671.7239 " fill="none" id="ControlNotificaciones-to-Mensaje" style="stroke:#181818;stroke-width:1.0;"/><polygon fill="#181818" points="637.24,677.65,642.5988,669.3866,638.0223,672.7116,634.6973,668.135,637.24,677.65" style="stroke:#181818;stroke-width:1.0;"/></g><!--SRC=[dLJBZjem5DtxAomsqyu8gTsEw4W8ee8q3HNG3xWuT-Zj13kopIpw-AX-Gt-iTk849uGmRJRWS-rpxjiyaon0mu6B78oPMgjfTxIu54fkw3loTupTVBZqiHkUfDlbV3fFDaFN6EoCrI1ifSA_c2DeKlm7u-uRSyhuFITfmr6gmqwZWzmZalk0uW4exuBEJKTiyCzlQ9lk71y90hr1Gqg-USj-CLQfpt92QJ6ett6X4VIMn3DQTorWIffZRYEyURx6GgDn370YSTwP0frSJXbaNK_SzKB93BiY6lVayw8NP5KiKTsxb9uCZT1K21VMMOwCXKnrqISKNtrwCh38WZRiDEbJkAYT6wSZ77OkTKd9rg2mTmutphQmJoWDVCCuXizQPKTXuo8tqFLY7q2BgAArcg6zz3KfLCtLJji9ZsGzt2CPuBR2Ird1KY5czZ7_Hpdw4jyKFUOF-RiauRiS9RskiYXVg6OV7DtPAjskLu_J-MfzPNp3tFXPKtbepib4LEU7X-59wk-btafUdRtWGbcEFWUw4zKXN3YZqcvAUpXJPUc91FWwekbbhp9xwlKAbU6X3dlbtD3Q6Ayep29P9-biEHsiIRr39p_7utgbjS6Mx1N9TV8udIrNQRBXyuIdoSULEmtgrrjqz7x4n-C7FheTrNlhlcm4rbwKlVV0EfBCEHUGM-UsBrry3lbkxdWYZ_lVkdTOC_OULS4QTzS_nHycOpZ-rZJuoAg_FOR6XtDJrD2NhUtMRAJBAV3NojUilu-zlSxWNm00]--></g></svg>