<?xml version="1.0" encoding="us-ascii" standalone="no"?><svg xmlns="http://www.w3.org/2000/svg" xmlns:xlink="http://www.w3.org/1999/xlink" contentStyleType="text/css" height="850px" preserveAspectRatio="none" style="width:499px;height:850px;background:#FFFFFF;" version="1.1" viewBox="0 0 499 850" width="499px" zoomAndPan="magnify"><defs/><g><!--class Usuario--><g id="elem_Usuario"><rect codeLine="2" fill="#F1F1F1" height="136.0469" id="Usuario" rx="2.5" ry="2.5" style="stroke:#181818;stroke-width:0.5;" width="144" x="177.5" y="7"/><ellipse cx="220.85" cy="23" fill="#A9DCDF" rx="11" ry="11" style="stroke:#181818;stroke-width:1.0;"/><path d="M223.0375,24.7656 L218.8969,24.7656 L218.475,25.7969 L218.8969,25.7969 Q219.5063,25.7969 219.7719,26.0313 Q220.0375,26.2656 220.0375,26.6563 Q220.0375,27.0313 219.7719,27.2656 Q219.5063,27.5 218.8969,27.5 L216.6,27.5 Q215.9906,27.5 215.7406,27.2656 Q215.475,27.0313 215.475,26.6406 Q215.475,26.2656 215.7563,26.0313 Q216.0219,25.7813 216.6469,25.7969 L219.3188,19.1406 L218.2094,19.1406 Q217.6,19.1406 217.3344,18.9063 Q217.0688,18.6719 217.0688,18.2813 Q217.0688,17.9063 217.3344,17.6719 Q217.6,17.4375 218.2094,17.4375 L221.8813,17.4375 L225.2719,25.7969 Q225.8656,25.7969 226.0531,25.9375 Q226.4438,26.2031 226.4438,26.6563 Q226.4438,27.0313 226.1781,27.2656 Q225.9281,27.5 225.3188,27.5 L223.0219,27.5 Q222.4125,27.5 222.1469,27.2656 Q221.8813,27.0313 221.8813,26.6406 Q221.8813,26.2656 222.1469,26.0313 Q222.4125,25.7969 223.0219,25.7969 L223.4438,25.7969 L223.0375,24.7656 Z M222.3188,23.0625 L220.9594,19.6875 L219.5844,23.0625 L222.3188,23.0625 Z " fill="#000000"/><text fill="#000000" font-family="sans-serif" font-size="14" font-style="italic" lengthAdjust="spacing" textLength="49" x="241.15" y="28.7285">Usuario</text><line style="stroke:#181818;stroke-width:0.5;" x1="178.5" x2="320.5" y1="39" y2="39"/><rect fill="none" height="6" style="stroke:#C82930;stroke-width:1.0;" width="6" x="185.5" y="50.3047"/><text fill="#000000" font-family="sans-serif" font-size="14" lengthAdjust="spacing" textLength="38" x="197.5" y="57.5332">id : int</text><rect fill="none" height="6" style="stroke:#C82930;stroke-width:1.0;" width="6" x="185.5" y="67.9141"/><text fill="#000000" font-family="sans-serif" font-size="14" lengthAdjust="spacing" textLength="95" x="197.5" y="75.1426">nombre : string</text><rect fill="none" height="6" style="stroke:#C82930;stroke-width:1.0;" width="6" x="185.5" y="85.5234"/><text fill="#000000" font-family="sans-serif" font-size="14" lengthAdjust="spacing" textLength="80" x="197.5" y="92.752">email : string</text><rect fill="none" height="6" style="stroke:#C82930;stroke-width:1.0;" width="6" x="185.5" y="103.1328"/><text fill="#000000" font-family="sans-serif" font-size="14" lengthAdjust="spacing" textLength="118" x="197.5" y="110.3613">contrase&#241;a : string</text><line style="stroke:#181818;stroke-width:0.5;" x1="178.5" x2="320.5" y1="117.4375" y2="117.4375"/><ellipse cx="188.5" cy="131.7422" fill="#84BE84" rx="3" ry="3" style="stroke:#038048;stroke-width:1.0;"/><text fill="#000000" font-family="sans-serif" font-size="14" lengthAdjust="spacing" textLength="90" x="197.5" y="135.9707">iniciarSesion()</text></g><!--class Cliente--><g id="elem_Cliente"><rect codeLine="10" fill="#F1F1F1" height="83.2188" id="Cliente" rx="2.5" ry="2.5" style="stroke:#181818;stroke-width:0.5;" width="132" x="95.5" y="213"/><ellipse cx="135.7" cy="229" fill="#ADD1B2" rx="11" ry="11" style="stroke:#181818;stroke-width:1.0;"/><path d="M138.4656,224.875 Q138.6219,224.6563 138.8094,224.5469 Q138.9969,224.4375 139.2156,224.4375 Q139.5906,224.4375 139.825,224.7031 Q140.0594,224.9531 140.0594,225.5625 L140.0594,227.0156 Q140.0594,227.625 139.825,227.8906 Q139.5906,228.1563 139.2156,228.1563 Q138.8719,228.1563 138.6688,227.9531 Q138.4656,227.7656 138.3563,227.25 Q138.3094,226.8906 138.1219,226.7031 Q137.7938,226.3281 137.1844,226.1094 Q136.575,225.8906 135.95,225.8906 Q135.1844,225.8906 134.5438,226.2188 Q133.9188,226.5469 133.4188,227.2969 Q132.9344,228.0469 132.9344,229.0781 L132.9344,230.1719 Q132.9344,231.4063 133.825,232.2344 Q134.7156,233.0469 136.3094,233.0469 Q137.2469,233.0469 137.9031,232.7969 Q138.2938,232.6406 138.7156,232.2031 Q138.9813,231.9375 139.1219,231.8594 Q139.2781,231.7813 139.4813,231.7813 Q139.8094,231.7813 140.0594,232.0469 Q140.325,232.2969 140.325,232.6406 Q140.325,232.9844 139.9813,233.3906 Q139.4813,233.9688 138.6844,234.2969 Q137.6063,234.75 136.3094,234.75 Q134.7938,234.75 133.5906,234.125 Q132.6063,233.625 131.9188,232.5625 Q131.2313,231.4844 131.2313,230.2031 L131.2313,229.0469 Q131.2313,227.7188 131.8406,226.5781 Q132.4656,225.4219 133.5594,224.8125 Q134.6531,224.1875 135.8875,224.1875 Q136.6219,224.1875 137.2625,224.3594 Q137.9188,224.5156 138.4656,224.875 Z " fill="#000000"/><text fill="#000000" font-family="sans-serif" font-size="14" lengthAdjust="spacing" textLength="44" x="155.3" y="234.7285">Cliente</text><line style="stroke:#181818;stroke-width:0.5;" x1="96.5" x2="226.5" y1="245" y2="245"/><line style="stroke:#181818;stroke-width:0.5;" x1="96.5" x2="226.5" y1="253" y2="253"/><ellipse cx="106.5" cy="267.3047" fill="#84BE84" rx="3" ry="3" style="stroke:#038048;stroke-width:1.0;"/><text fill="#000000" font-family="sans-serif" font-size="14" lengthAdjust="spacing" textLength="81" x="115.5" y="271.5332">crearTicket()</text><ellipse cx="106.5" cy="284.9141" fill="#84BE84" rx="3" ry="3" style="stroke:#038048;stroke-width:1.0;"/><text fill="#000000" font-family="sans-serif" font-size="14" lengthAdjust="spacing" textLength="106" x="115.5" y="289.1426">consultarTicket()</text></g><!--class Representante--><g id="elem_Representante"><rect codeLine="15" fill="#F1F1F1" height="100.8281" id="Representante" rx="2.5" ry="2.5" style="stroke:#181818;stroke-width:0.5;" width="152" x="262.5" y="204"/><ellipse cx="289.2" cy="220" fill="#ADD1B2" rx="11" ry="11" style="stroke:#181818;stroke-width:1.0;"/><path d="M291.9656,215.875 Q292.1219,215.6563 292.3094,215.5469 Q292.4969,215.4375 292.7156,215.4375 Q293.0906,215.4375 293.325,215.7031 Q293.5594,215.9531 293.5594,216.5625 L293.5594,218.0156 Q293.5594,218.625 293.325,218.8906 Q293.0906,219.1563 292.7156,219.1563 Q292.3719,219.1563 292.1688,218.9531 Q291.9656,218.7656 291.8563,218.25 Q291.8094,217.8906 291.6219,217.7031 Q291.2938,217.3281 290.6844,217.1094 Q290.075,216.8906 289.45,216.8906 Q288.6844,216.8906 288.0438,217.2188 Q287.4188,217.5469 286.9188,218.2969 Q286.4344,219.0469 286.4344,220.0781 L286.4344,221.1719 Q286.4344,222.4063 287.325,223.2344 Q288.2156,224.0469 289.8094,224.0469 Q290.7469,224.0469 291.4031,223.7969 Q291.7938,223.6406 292.2156,223.2031 Q292.4813,222.9375 292.6219,222.8594 Q292.7781,222.7813 292.9813,222.7813 Q293.3094,222.7813 293.5594,223.0469 Q293.825,223.2969 293.825,223.6406 Q293.825,223.9844 293.4813,224.3906 Q292.9813,224.9688 292.1844,225.2969 Q291.1063,225.75 289.8094,225.75 Q288.2938,225.75 287.0906,225.125 Q286.1063,224.625 285.4188,223.5625 Q284.7313,222.4844 284.7313,221.2031 L284.7313,220.0469 Q284.7313,218.7188 285.3406,217.5781 Q285.9656,216.4219 287.0594,215.8125 Q288.1531,215.1875 289.3875,215.1875 Q290.1219,215.1875 290.7625,215.3594 Q291.4188,215.5156 291.9656,215.875 Z " fill="#000000"/><text fill="#000000" font-family="sans-serif" font-size="14" lengthAdjust="spacing" textLength="94" x="305.8" y="225.7285">Representante</text><line style="stroke:#181818;stroke-width:0.5;" x1="263.5" x2="413.5" y1="236" y2="236"/><rect fill="none" height="6" style="stroke:#C82930;stroke-width:1.0;" width="6" x="270.5" y="247.3047"/><text fill="#000000" font-family="sans-serif" font-size="14" lengthAdjust="spacing" textLength="126" x="282.5" y="254.5332">especialidad : string</text><line style="stroke:#181818;stroke-width:0.5;" x1="263.5" x2="413.5" y1="261.6094" y2="261.6094"/><ellipse cx="273.5" cy="275.9141" fill="#84BE84" rx="3" ry="3" style="stroke:#038048;stroke-width:1.0;"/><text fill="#000000" font-family="sans-serif" font-size="14" lengthAdjust="spacing" textLength="113" x="282.5" y="280.1426">responderTicket()</text><ellipse cx="273.5" cy="293.5234" fill="#84BE84" rx="3" ry="3" style="stroke:#038048;stroke-width:1.0;"/><text fill="#000000" font-family="sans-serif" font-size="14" lengthAdjust="spacing" textLength="87" x="282.5" y="297.752">registrarHito()</text></g><!--class Ticket--><g id="elem_Ticket"><rect codeLine="21" fill="#F1F1F1" height="153.6563" id="Ticket" rx="2.5" ry="2.5" style="stroke:#181818;stroke-width:0.5;" width="145" x="177" y="383"/><ellipse cx="226.25" cy="399" fill="#ADD1B2" rx="11" ry="11" style="stroke:#181818;stroke-width:1.0;"/><path d="M229.0156,394.875 Q229.1719,394.6563 229.3594,394.5469 Q229.5469,394.4375 229.7656,394.4375 Q230.1406,394.4375 230.375,394.7031 Q230.6094,394.9531 230.6094,395.5625 L230.6094,397.0156 Q230.6094,397.625 230.375,397.8906 Q230.1406,398.1563 229.7656,398.1563 Q229.4219,398.1563 229.2188,397.9531 Q229.0156,397.7656 228.9063,397.25 Q228.8594,396.8906 228.6719,396.7031 Q228.3438,396.3281 227.7344,396.1094 Q227.125,395.8906 226.5,395.8906 Q225.7344,395.8906 225.0938,396.2188 Q224.4688,396.5469 223.9688,397.2969 Q223.4844,398.0469 223.4844,399.0781 L223.4844,400.1719 Q223.4844,401.4063 224.375,402.2344 Q225.2656,403.0469 226.8594,403.0469 Q227.7969,403.0469 228.4531,402.7969 Q228.8438,402.6406 229.2656,402.2031 Q229.5313,401.9375 229.6719,401.8594 Q229.8281,401.7813 230.0313,401.7813 Q230.3594,401.7813 230.6094,402.0469 Q230.875,402.2969 230.875,402.6406 Q230.875,402.9844 230.5313,403.3906 Q230.0313,403.9688 229.2344,404.2969 Q228.1563,404.75 226.8594,404.75 Q225.3438,404.75 224.1406,404.125 Q223.1563,403.625 222.4688,402.5625 Q221.7813,401.4844 221.7813,400.2031 L221.7813,399.0469 Q221.7813,397.7188 222.3906,396.5781 Q223.0156,395.4219 224.1094,394.8125 Q225.2031,394.1875 226.4375,394.1875 Q227.1719,394.1875 227.8125,394.3594 Q228.4688,394.5156 229.0156,394.875 Z " fill="#000000"/><text fill="#000000" font-family="sans-serif" font-size="14" lengthAdjust="spacing" textLength="38" x="246.75" y="404.7285">Ticket</text><line style="stroke:#181818;stroke-width:0.5;" x1="178" x2="321" y1="415" y2="415"/><rect fill="none" height="6" style="stroke:#C82930;stroke-width:1.0;" width="6" x="185" y="426.3047"/><text fill="#000000" font-family="sans-serif" font-size="14" lengthAdjust="spacing" textLength="38" x="197" y="433.5332">id : int</text><rect fill="none" height="6" style="stroke:#C82930;stroke-width:1.0;" width="6" x="185" y="443.9141"/><text fill="#000000" font-family="sans-serif" font-size="14" lengthAdjust="spacing" textLength="119" x="197" y="451.1426">descripcion : string</text><rect fill="none" height="6" style="stroke:#C82930;stroke-width:1.0;" width="6" x="185" y="461.5234"/><text fill="#000000" font-family="sans-serif" font-size="14" lengthAdjust="spacing" textLength="90" x="197" y="468.752">estado : string</text><rect fill="none" height="6" style="stroke:#C82930;stroke-width:1.0;" width="6" x="185" y="479.1328"/><text fill="#000000" font-family="sans-serif" font-size="14" lengthAdjust="spacing" textLength="75" x="197" y="486.3613">fecha : date</text><line style="stroke:#181818;stroke-width:0.5;" x1="178" x2="321" y1="493.4375" y2="493.4375"/><ellipse cx="188" cy="507.7422" fill="#84BE84" rx="3" ry="3" style="stroke:#038048;stroke-width:1.0;"/><text fill="#000000" font-family="sans-serif" font-size="14" lengthAdjust="spacing" textLength="39" x="197" y="511.9707">abrir()</text><ellipse cx="188" cy="525.3516" fill="#84BE84" rx="3" ry="3" style="stroke:#038048;stroke-width:1.0;"/><text fill="#000000" font-family="sans-serif" font-size="14" lengthAdjust="spacing" textLength="48" x="197" y="529.5801">cerrar()</text></g><!--class Producto--><g id="elem_Producto"><rect codeLine="30" fill="#F1F1F1" height="100.8281" id="Producto" rx="2.5" ry="2.5" style="stroke:#181818;stroke-width:0.5;" width="121" x="21" y="598"/><ellipse cx="50.4" cy="614" fill="#ADD1B2" rx="11" ry="11" style="stroke:#181818;stroke-width:1.0;"/><path d="M53.1656,609.875 Q53.3219,609.6563 53.5094,609.5469 Q53.6969,609.4375 53.9156,609.4375 Q54.2906,609.4375 54.525,609.7031 Q54.7594,609.9531 54.7594,610.5625 L54.7594,612.0156 Q54.7594,612.625 54.525,612.8906 Q54.2906,613.1563 53.9156,613.1563 Q53.5719,613.1563 53.3688,612.9531 Q53.1656,612.7656 53.0563,612.25 Q53.0094,611.8906 52.8219,611.7031 Q52.4938,611.3281 51.8844,611.1094 Q51.275,610.8906 50.65,610.8906 Q49.8844,610.8906 49.2438,611.2188 Q48.6188,611.5469 48.1188,612.2969 Q47.6344,613.0469 47.6344,614.0781 L47.6344,615.1719 Q47.6344,616.4063 48.525,617.2344 Q49.4156,618.0469 51.0094,618.0469 Q51.9469,618.0469 52.6031,617.7969 Q52.9938,617.6406 53.4156,617.2031 Q53.6813,616.9375 53.8219,616.8594 Q53.9781,616.7813 54.1813,616.7813 Q54.5094,616.7813 54.7594,617.0469 Q55.025,617.2969 55.025,617.6406 Q55.025,617.9844 54.6813,618.3906 Q54.1813,618.9688 53.3844,619.2969 Q52.3063,619.75 51.0094,619.75 Q49.4938,619.75 48.2906,619.125 Q47.3063,618.625 46.6188,617.5625 Q45.9313,616.4844 45.9313,615.2031 L45.9313,614.0469 Q45.9313,612.7188 46.5406,611.5781 Q47.1656,610.4219 48.2594,609.8125 Q49.3531,609.1875 50.5875,609.1875 Q51.3219,609.1875 51.9625,609.3594 Q52.6188,609.5156 53.1656,609.875 Z " fill="#000000"/><text fill="#000000" font-family="sans-serif" font-size="14" lengthAdjust="spacing" textLength="57" x="67.6" y="619.7285">Producto</text><line style="stroke:#181818;stroke-width:0.5;" x1="22" x2="141" y1="630" y2="630"/><rect fill="none" height="6" style="stroke:#C82930;stroke-width:1.0;" width="6" x="29" y="641.3047"/><text fill="#000000" font-family="sans-serif" font-size="14" lengthAdjust="spacing" textLength="95" x="41" y="648.5332">idProducto : int</text><rect fill="none" height="6" style="stroke:#C82930;stroke-width:1.0;" width="6" x="29" y="658.9141"/><text fill="#000000" font-family="sans-serif" font-size="14" lengthAdjust="spacing" textLength="95" x="41" y="666.1426">nombre : string</text><rect fill="none" height="6" style="stroke:#C82930;stroke-width:1.0;" width="6" x="29" y="676.5234"/><text fill="#000000" font-family="sans-serif" font-size="14" lengthAdjust="spacing" textLength="86" x="41" y="683.752">marca : string</text><line style="stroke:#181818;stroke-width:0.5;" x1="22" x2="141" y1="690.8281" y2="690.8281"/></g><!--class TipoProducto--><g id="elem_TipoProducto"><rect codeLine="36" fill="#F1F1F1" height="83.2188" id="TipoProducto" rx="2.5" ry="2.5" style="stroke:#181818;stroke-width:0.5;" width="149" x="7" y="760"/><ellipse cx="36.4" cy="776" fill="#ADD1B2" rx="11" ry="11" style="stroke:#181818;stroke-width:1.0;"/><path d="M39.1656,771.875 Q39.3219,771.6563 39.5094,771.5469 Q39.6969,771.4375 39.9156,771.4375 Q40.2906,771.4375 40.525,771.7031 Q40.7594,771.9531 40.7594,772.5625 L40.7594,774.0156 Q40.7594,774.625 40.525,774.8906 Q40.2906,775.1563 39.9156,775.1563 Q39.5719,775.1563 39.3688,774.9531 Q39.1656,774.7656 39.0563,774.25 Q39.0094,773.8906 38.8219,773.7031 Q38.4938,773.3281 37.8844,773.1094 Q37.275,772.8906 36.65,772.8906 Q35.8844,772.8906 35.2438,773.2188 Q34.6188,773.5469 34.1188,774.2969 Q33.6344,775.0469 33.6344,776.0781 L33.6344,777.1719 Q33.6344,778.4063 34.525,779.2344 Q35.4156,780.0469 37.0094,780.0469 Q37.9469,780.0469 38.6031,779.7969 Q38.9938,779.6406 39.4156,779.2031 Q39.6813,778.9375 39.8219,778.8594 Q39.9781,778.7813 40.1813,778.7813 Q40.5094,778.7813 40.7594,779.0469 Q41.025,779.2969 41.025,779.6406 Q41.025,779.9844 40.6813,780.3906 Q40.1813,780.9688 39.3844,781.2969 Q38.3063,781.75 37.0094,781.75 Q35.4938,781.75 34.2906,781.125 Q33.3063,780.625 32.6188,779.5625 Q31.9313,778.4844 31.9313,777.2031 L31.9313,776.0469 Q31.9313,774.7188 32.5406,773.5781 Q33.1656,772.4219 34.2594,771.8125 Q35.3531,771.1875 36.5875,771.1875 Q37.3219,771.1875 37.9625,771.3594 Q38.6188,771.5156 39.1656,771.875 Z " fill="#000000"/><text fill="#000000" font-family="sans-serif" font-size="14" lengthAdjust="spacing" textLength="85" x="53.6" y="781.7285">TipoProducto</text><line style="stroke:#181818;stroke-width:0.5;" x1="8" x2="155" y1="792" y2="792"/><rect fill="none" height="6" style="stroke:#C82930;stroke-width:1.0;" width="6" x="15" y="803.3047"/><text fill="#000000" font-family="sans-serif" font-size="14" lengthAdjust="spacing" textLength="66" x="27" y="810.5332">idTipo : int</text><rect fill="none" height="6" style="stroke:#C82930;stroke-width:1.0;" width="6" x="15" y="820.9141"/><text fill="#000000" font-family="sans-serif" font-size="14" lengthAdjust="spacing" textLength="123" x="27" y="828.1426">nombreTipo : string</text><line style="stroke:#181818;stroke-width:0.5;" x1="8" x2="155" y1="835.2188" y2="835.2188"/></g><!--class Hito--><g id="elem_Hito"><rect codeLine="41" fill="#F1F1F1" height="100.8281" id="Hito" rx="2.5" ry="2.5" style="stroke:#181818;stroke-width:0.5;" width="145" x="177" y="598"/><ellipse cx="233.25" cy="614" fill="#ADD1B2" rx="11" ry="11" style="stroke:#181818;stroke-width:1.0;"/><path d="M236.0156,609.875 Q236.1719,609.6563 236.3594,609.5469 Q236.5469,609.4375 236.7656,609.4375 Q237.1406,609.4375 237.375,609.7031 Q237.6094,609.9531 237.6094,610.5625 L237.6094,612.0156 Q237.6094,612.625 237.375,612.8906 Q237.1406,613.1563 236.7656,613.1563 Q236.4219,613.1563 236.2188,612.9531 Q236.0156,612.7656 235.9063,612.25 Q235.8594,611.8906 235.6719,611.7031 Q235.3438,611.3281 234.7344,611.1094 Q234.125,610.8906 233.5,610.8906 Q232.7344,610.8906 232.0938,611.2188 Q231.4688,611.5469 230.9688,612.2969 Q230.4844,613.0469 230.4844,614.0781 L230.4844,615.1719 Q230.4844,616.4063 231.375,617.2344 Q232.2656,618.0469 233.8594,618.0469 Q234.7969,618.0469 235.4531,617.7969 Q235.8438,617.6406 236.2656,617.2031 Q236.5313,616.9375 236.6719,616.8594 Q236.8281,616.7813 237.0313,616.7813 Q237.3594,616.7813 237.6094,617.0469 Q237.875,617.2969 237.875,617.6406 Q237.875,617.9844 237.5313,618.3906 Q237.0313,618.9688 236.2344,619.2969 Q235.1563,619.75 233.8594,619.75 Q232.3438,619.75 231.1406,619.125 Q230.1563,618.625 229.4688,617.5625 Q228.7813,616.4844 228.7813,615.2031 L228.7813,614.0469 Q228.7813,612.7188 229.3906,611.5781 Q230.0156,610.4219 231.1094,609.8125 Q232.2031,609.1875 233.4375,609.1875 Q234.1719,609.1875 234.8125,609.3594 Q235.4688,609.5156 236.0156,609.875 Z " fill="#000000"/><text fill="#000000" font-family="sans-serif" font-size="14" lengthAdjust="spacing" textLength="24" x="253.75" y="619.7285">Hito</text><line style="stroke:#181818;stroke-width:0.5;" x1="178" x2="321" y1="630" y2="630"/><rect fill="none" height="6" style="stroke:#C82930;stroke-width:1.0;" width="6" x="185" y="641.3047"/><text fill="#000000" font-family="sans-serif" font-size="14" lengthAdjust="spacing" textLength="38" x="197" y="648.5332">id : int</text><rect fill="none" height="6" style="stroke:#C82930;stroke-width:1.0;" width="6" x="185" y="658.9141"/><text fill="#000000" font-family="sans-serif" font-size="14" lengthAdjust="spacing" textLength="119" x="197" y="666.1426">descripcion : string</text><rect fill="none" height="6" style="stroke:#C82930;stroke-width:1.0;" width="6" x="185" y="676.5234"/><text fill="#000000" font-family="sans-serif" font-size="14" lengthAdjust="spacing" textLength="75" x="197" y="683.752">fecha : date</text><line style="stroke:#181818;stroke-width:0.5;" x1="178" x2="321" y1="690.8281" y2="690.8281"/></g><!--class Mensaje--><g id="elem_Mensaje"><rect codeLine="47" fill="#F1F1F1" height="100.8281" id="Mensaje" rx="2.5" ry="2.5" style="stroke:#181818;stroke-width:0.5;" width="135" x="357" y="598"/><ellipse cx="394.5" cy="614" fill="#ADD1B2" rx="11" ry="11" style="stroke:#181818;stroke-width:1.0;"/><path d="M397.2656,609.875 Q397.4219,609.6563 397.6094,609.5469 Q397.7969,609.4375 398.0156,609.4375 Q398.3906,609.4375 398.625,609.7031 Q398.8594,609.9531 398.8594,610.5625 L398.8594,612.0156 Q398.8594,612.625 398.625,612.8906 Q398.3906,613.1563 398.0156,613.1563 Q397.6719,613.1563 397.4688,612.9531 Q397.2656,612.7656 397.1563,612.25 Q397.1094,611.8906 396.9219,611.7031 Q396.5938,611.3281 395.9844,611.1094 Q395.375,610.8906 394.75,610.8906 Q393.9844,610.8906 393.3438,611.2188 Q392.7188,611.5469 392.2188,612.2969 Q391.7344,613.0469 391.7344,614.0781 L391.7344,615.1719 Q391.7344,616.4063 392.625,617.2344 Q393.5156,618.0469 395.1094,618.0469 Q396.0469,618.0469 396.7031,617.7969 Q397.0938,617.6406 397.5156,617.2031 Q397.7813,616.9375 397.9219,616.8594 Q398.0781,616.7813 398.2813,616.7813 Q398.6094,616.7813 398.8594,617.0469 Q399.125,617.2969 399.125,617.6406 Q399.125,617.9844 398.7813,618.3906 Q398.2813,618.9688 397.4844,619.2969 Q396.4063,619.75 395.1094,619.75 Q393.5938,619.75 392.3906,619.125 Q391.4063,618.625 390.7188,617.5625 Q390.0313,616.4844 390.0313,615.2031 L390.0313,614.0469 Q390.0313,612.7188 390.6406,611.5781 Q391.2656,610.4219 392.3594,609.8125 Q393.4531,609.1875 394.6875,609.1875 Q395.4219,609.1875 396.0625,609.3594 Q396.7188,609.5156 397.2656,609.875 Z " fill="#000000"/><text fill="#000000" font-family="sans-serif" font-size="14" lengthAdjust="spacing" textLength="53" x="413.5" y="619.7285">Mensaje</text><line style="stroke:#181818;stroke-width:0.5;" x1="358" x2="491" y1="630" y2="630"/><rect fill="none" height="6" style="stroke:#C82930;stroke-width:1.0;" width="6" x="365" y="641.3047"/><text fill="#000000" font-family="sans-serif" font-size="14" lengthAdjust="spacing" textLength="38" x="377" y="648.5332">id : int</text><rect fill="none" height="6" style="stroke:#C82930;stroke-width:1.0;" width="6" x="365" y="658.9141"/><text fill="#000000" font-family="sans-serif" font-size="14" lengthAdjust="spacing" textLength="109" x="377" y="666.1426">contenido : string</text><rect fill="none" height="6" style="stroke:#C82930;stroke-width:1.0;" width="6" x="365" y="676.5234"/><text fill="#000000" font-family="sans-serif" font-size="14" lengthAdjust="spacing" textLength="75" x="377" y="683.752">fecha : date</text><line style="stroke:#181818;stroke-width:0.5;" x1="358" x2="491" y1="690.8281" y2="690.8281"/></g><!--reverse link Usuario to Cliente--><g id="link_Usuario_Cliente"><path codeLine="53" d="M208.2352,159.2371 C196.6052,182.6971 191.9,192.18 181.67,212.82 " fill="none" id="Usuario-backto-Cliente" style="stroke:#181818;stroke-width:1.0;"/><polygon fill="none" points="216.23,143.11,202.8595,156.5722,213.6109,161.902,216.23,143.11" style="stroke:#181818;stroke-width:1.0;"/></g><!--reverse link Usuario to Representante--><g id="link_Usuario_Representante"><path codeLine="54" d="M291.219,159.2001 C301.309,179.3201 304.12,184.94 313.55,203.73 " fill="none" id="Usuario-backto-Representante" style="stroke:#181818;stroke-width:1.0;"/><polygon fill="none" points="283.15,143.11,285.8557,161.8898,296.5824,156.5104,283.15,143.11" style="stroke:#181818;stroke-width:1.0;"/></g><!--link Cliente to Ticket--><g id="link_Cliente_Ticket"><path codeLine="56" d="M179.1,296.19 C189.83,321.01 201.5087,348.0228 214.2387,377.4628 " fill="none" id="Cliente-to-Ticket" style="stroke:#181818;stroke-width:1.0;"/><polygon fill="#181818" points="216.62,382.97,216.7195,373.1216,214.6356,378.3807,209.3765,376.2968,216.62,382.97" style="stroke:#181818;stroke-width:1.0;"/><text fill="#000000" font-family="sans-serif" font-size="13" lengthAdjust="spacing" textLength="25" x="204.5" y="349.4951">crea</text><text fill="#000000" font-family="sans-serif" font-size="13" lengthAdjust="spacing" textLength="7" x="174.3472" y="317.615">1</text><text fill="#000000" font-family="sans-serif" font-size="13" lengthAdjust="spacing" textLength="5" x="208.1373" y="372.1292">*</text></g><!--link Representante to Ticket--><g id="link_Representante_Ticket"><path codeLine="57" d="M316.84,305.02 C306.6,328.43 296.5547,351.413 285.1547,377.473 " fill="none" id="Representante-to-Ticket" style="stroke:#181818;stroke-width:1.0;"/><polygon fill="#181818" points="282.75,382.97,290.0217,376.3276,284.7539,378.3891,282.6923,373.1213,282.75,382.97" style="stroke:#181818;stroke-width:1.0;"/><text fill="#000000" font-family="sans-serif" font-size="13" lengthAdjust="spacing" textLength="42" x="302.5" y="349.4951">atiende</text><text fill="#000000" font-family="sans-serif" font-size="13" lengthAdjust="spacing" textLength="7" x="306.4591" y="326.4139">1</text><text fill="#000000" font-family="sans-serif" font-size="13" lengthAdjust="spacing" textLength="5" x="280.777" y="372.1292">*</text></g><!--link Ticket to Producto--><g id="link_Ticket_Producto"><path codeLine="59" d="M180.93,537.13 C162.51,557.57 147.0764,574.7026 130.3164,593.3026 " fill="none" id="Ticket-to-Producto" style="stroke:#181818;stroke-width:1.0;"/><polygon fill="#181818" points="126.3,597.76,135.2962,593.7516,129.647,594.0455,129.3531,588.3963,126.3,597.76" style="stroke:#181818;stroke-width:1.0;"/><text fill="#000000" font-family="sans-serif" font-size="13" lengthAdjust="spacing" textLength="7" x="167.5113" y="558.238">1</text><text fill="#000000" font-family="sans-serif" font-size="13" lengthAdjust="spacing" textLength="7" x="125.1078" y="587.0316">1</text></g><!--link Producto to TipoProducto--><g id="link_Producto_TipoProducto"><path codeLine="60" d="M81.5,699.36 C81.5,718.95 81.5,735.15 81.5,753.75 " fill="none" id="Producto-to-TipoProducto" style="stroke:#181818;stroke-width:1.0;"/><polygon fill="#181818" points="81.5,759.75,85.5,750.75,81.5,754.75,77.5,750.75,81.5,759.75" style="stroke:#181818;stroke-width:1.0;"/><text fill="#000000" font-family="sans-serif" font-size="13" lengthAdjust="spacing" textLength="5" x="76.1797" y="720.4301">*</text><text fill="#000000" font-family="sans-serif" font-size="13" lengthAdjust="spacing" textLength="7" x="73.9203" y="749.0163">1</text></g><!--reverse link Ticket to Hito--><g id="link_Ticket_Hito"><path codeLine="62" d="M249.5,549.13 C249.5,569.57 249.5,579.16 249.5,597.76 " fill="none" id="Ticket-backto-Hito" style="stroke:#181818;stroke-width:1.0;"/><polygon fill="#181818" points="249.5,537.13,245.5,543.13,249.5,549.13,253.5,543.13,249.5,537.13" style="stroke:#181818;stroke-width:1.0;"/></g><!--reverse link Ticket to Mensaje--><g id="link_Ticket_Mensaje"><path codeLine="63" d="M329.1436,545.8786 C348.3336,566.3186 360.37,579.16 377.83,597.76 " fill="none" id="Ticket-backto-Mensaje" style="stroke:#181818;stroke-width:1.0;"/><polygon fill="#181818" points="320.93,537.13,322.1206,544.2421,329.1436,545.8786,327.953,538.7664,320.93,537.13" style="stroke:#181818;stroke-width:1.0;"/></g><!--SRC=[dLAxJiGm4Epz5LOgk5CAsXEYeQ51GZm-O6Clnq9YHskd0ZwAR-37M7DEpWbtEeaqaSUxC-lPWIP41XErQI44_HG6OFBwNMdvQarMRpIvc8_ETmsZGD94RfjHx83Q9MYy4-A0trymlreB7na2Vi10tfsTgq-bTkhNBQ6BcDNNsZ02Fv9vmoXb6VCk36qiyAdz7dl680om9v7fGeyYrv85kvn4odllB2v56BUKVE4RYhwKsDKTiyTYC4ozaMVzyIX4i7w9FgDvIVPOY9YbeM7Y_MkHPOfoWZlsTZ2nND44dLvL1soAVHJlwlq1vWGVOCtmaYIPzGzhPYPCPBVe0hpYCRuKBtHqmb9X6nDz-L7NOy3cu2msIeqXh2ugNTTNkbfLuzetlubKyvmTh8Ce95ROCZ8LoN_qMKs6fzRnjjp4rBwICPExvJaRf7u0]--></g></svg>