<?xml version="1.0" encoding="us-ascii" standalone="no"?><svg xmlns="http://www.w3.org/2000/svg" xmlns:xlink="http://www.w3.org/1999/xlink" contentStyleType="text/css" height="704px" preserveAspectRatio="none" style="width:329px;height:704px;background:#FFFFFF;" version="1.1" viewBox="0 0 329 704" width="329px" zoomAndPan="magnify"><defs/><g><!--class Usuario--><g id="elem_Usuario"><rect codeLine="2" fill="#F1F1F1" height="136.0469" id="Usuario" rx="2.5" ry="2.5" style="stroke:#181818;stroke-width:0.5;" width="144" x="94.5" y="7"/><ellipse cx="137.85" cy="23" fill="#A9DCDF" rx="11" ry="11" style="stroke:#181818;stroke-width:1.0;"/><path d="M140.0375,24.7656 L135.8969,24.7656 L135.475,25.7969 L135.8969,25.7969 Q136.5063,25.7969 136.7719,26.0313 Q137.0375,26.2656 137.0375,26.6563 Q137.0375,27.0313 136.7719,27.2656 Q136.5063,27.5 135.8969,27.5 L133.6,27.5 Q132.9906,27.5 132.7406,27.2656 Q132.475,27.0313 132.475,26.6406 Q132.475,26.2656 132.7563,26.0313 Q133.0219,25.7813 133.6469,25.7969 L136.3188,19.1406 L135.2094,19.1406 Q134.6,19.1406 134.3344,18.9063 Q134.0688,18.6719 134.0688,18.2813 Q134.0688,17.9063 134.3344,17.6719 Q134.6,17.4375 135.2094,17.4375 L138.8813,17.4375 L142.2719,25.7969 Q142.8656,25.7969 143.0531,25.9375 Q143.4438,26.2031 143.4438,26.6563 Q143.4438,27.0313 143.1781,27.2656 Q142.9281,27.5 142.3188,27.5 L140.0219,27.5 Q139.4125,27.5 139.1469,27.2656 Q138.8813,27.0313 138.8813,26.6406 Q138.8813,26.2656 139.1469,26.0313 Q139.4125,25.7969 140.0219,25.7969 L140.4438,25.7969 L140.0375,24.7656 Z M139.3188,23.0625 L137.9594,19.6875 L136.5844,23.0625 L139.3188,23.0625 Z " fill="#000000"/><text fill="#000000" font-family="sans-serif" font-size="14" font-style="italic" lengthAdjust="spacing" textLength="49" x="158.15" y="28.7285">Usuario</text><line style="stroke:#181818;stroke-width:0.5;" x1="95.5" x2="237.5" y1="39" y2="39"/><rect fill="none" height="6" style="stroke:#C82930;stroke-width:1.0;" width="6" x="102.5" y="50.3047"/><text fill="#000000" font-family="sans-serif" font-size="14" lengthAdjust="spacing" textLength="38" x="114.5" y="57.5332">id : int</text><rect fill="none" height="6" style="stroke:#C82930;stroke-width:1.0;" width="6" x="102.5" y="67.9141"/><text fill="#000000" font-family="sans-serif" font-size="14" lengthAdjust="spacing" textLength="95" x="114.5" y="75.1426">nombre : string</text><rect fill="none" height="6" style="stroke:#C82930;stroke-width:1.0;" width="6" x="102.5" y="85.5234"/><text fill="#000000" font-family="sans-serif" font-size="14" lengthAdjust="spacing" textLength="80" x="114.5" y="92.752">email : string</text><rect fill="none" height="6" style="stroke:#C82930;stroke-width:1.0;" width="6" x="102.5" y="103.1328"/><text fill="#000000" font-family="sans-serif" font-size="14" lengthAdjust="spacing" textLength="118" x="114.5" y="110.3613">contrase&#241;a : string</text><line style="stroke:#181818;stroke-width:0.5;" x1="95.5" x2="237.5" y1="117.4375" y2="117.4375"/><ellipse cx="105.5" cy="131.7422" fill="#84BE84" rx="3" ry="3" style="stroke:#038048;stroke-width:1.0;"/><text fill="#000000" font-family="sans-serif" font-size="14" lengthAdjust="spacing" textLength="90" x="114.5" y="135.9707">iniciarSesion()</text></g><!--class Cliente--><g id="elem_Cliente"><rect codeLine="10" fill="#F1F1F1" height="83.2188" id="Cliente" rx="2.5" ry="2.5" style="stroke:#181818;stroke-width:0.5;" width="132" x="15.5" y="204"/><ellipse cx="55.7" cy="220" fill="#ADD1B2" rx="11" ry="11" style="stroke:#181818;stroke-width:1.0;"/><path d="M58.4656,215.875 Q58.6219,215.6563 58.8094,215.5469 Q58.9969,215.4375 59.2156,215.4375 Q59.5906,215.4375 59.825,215.7031 Q60.0594,215.9531 60.0594,216.5625 L60.0594,218.0156 Q60.0594,218.625 59.825,218.8906 Q59.5906,219.1563 59.2156,219.1563 Q58.8719,219.1563 58.6688,218.9531 Q58.4656,218.7656 58.3563,218.25 Q58.3094,217.8906 58.1219,217.7031 Q57.7938,217.3281 57.1844,217.1094 Q56.575,216.8906 55.95,216.8906 Q55.1844,216.8906 54.5438,217.2188 Q53.9188,217.5469 53.4188,218.2969 Q52.9344,219.0469 52.9344,220.0781 L52.9344,221.1719 Q52.9344,222.4063 53.825,223.2344 Q54.7156,224.0469 56.3094,224.0469 Q57.2469,224.0469 57.9031,223.7969 Q58.2938,223.6406 58.7156,223.2031 Q58.9813,222.9375 59.1219,222.8594 Q59.2781,222.7813 59.4813,222.7813 Q59.8094,222.7813 60.0594,223.0469 Q60.325,223.2969 60.325,223.6406 Q60.325,223.9844 59.9813,224.3906 Q59.4813,224.9688 58.6844,225.2969 Q57.6063,225.75 56.3094,225.75 Q54.7938,225.75 53.5906,225.125 Q52.6063,224.625 51.9188,223.5625 Q51.2313,222.4844 51.2313,221.2031 L51.2313,220.0469 Q51.2313,218.7188 51.8406,217.5781 Q52.4656,216.4219 53.5594,215.8125 Q54.6531,215.1875 55.8875,215.1875 Q56.6219,215.1875 57.2625,215.3594 Q57.9188,215.5156 58.4656,215.875 Z " fill="#000000"/><text fill="#000000" font-family="sans-serif" font-size="14" lengthAdjust="spacing" textLength="44" x="75.3" y="225.7285">Cliente</text><line style="stroke:#181818;stroke-width:0.5;" x1="16.5" x2="146.5" y1="236" y2="236"/><line style="stroke:#181818;stroke-width:0.5;" x1="16.5" x2="146.5" y1="244" y2="244"/><ellipse cx="26.5" cy="258.3047" fill="#84BE84" rx="3" ry="3" style="stroke:#038048;stroke-width:1.0;"/><text fill="#000000" font-family="sans-serif" font-size="14" lengthAdjust="spacing" textLength="81" x="35.5" y="262.5332">crearTicket()</text><ellipse cx="26.5" cy="275.9141" fill="#84BE84" rx="3" ry="3" style="stroke:#038048;stroke-width:1.0;"/><text fill="#000000" font-family="sans-serif" font-size="14" lengthAdjust="spacing" textLength="106" x="35.5" y="280.1426">consultarTicket()</text></g><!--class Representante--><g id="elem_Representante"><rect codeLine="15" fill="#F1F1F1" height="83.2188" id="Representante" rx="2.5" ry="2.5" style="stroke:#181818;stroke-width:0.5;" width="139" x="183" y="204"/><ellipse cx="203.85" cy="220" fill="#ADD1B2" rx="11" ry="11" style="stroke:#181818;stroke-width:1.0;"/><path d="M206.6156,215.875 Q206.7719,215.6563 206.9594,215.5469 Q207.1469,215.4375 207.3656,215.4375 Q207.7406,215.4375 207.975,215.7031 Q208.2094,215.9531 208.2094,216.5625 L208.2094,218.0156 Q208.2094,218.625 207.975,218.8906 Q207.7406,219.1563 207.3656,219.1563 Q207.0219,219.1563 206.8188,218.9531 Q206.6156,218.7656 206.5063,218.25 Q206.4594,217.8906 206.2719,217.7031 Q205.9438,217.3281 205.3344,217.1094 Q204.725,216.8906 204.1,216.8906 Q203.3344,216.8906 202.6938,217.2188 Q202.0688,217.5469 201.5688,218.2969 Q201.0844,219.0469 201.0844,220.0781 L201.0844,221.1719 Q201.0844,222.4063 201.975,223.2344 Q202.8656,224.0469 204.4594,224.0469 Q205.3969,224.0469 206.0531,223.7969 Q206.4438,223.6406 206.8656,223.2031 Q207.1313,222.9375 207.2719,222.8594 Q207.4281,222.7813 207.6313,222.7813 Q207.9594,222.7813 208.2094,223.0469 Q208.475,223.2969 208.475,223.6406 Q208.475,223.9844 208.1313,224.3906 Q207.6313,224.9688 206.8344,225.2969 Q205.7563,225.75 204.4594,225.75 Q202.9438,225.75 201.7406,225.125 Q200.7563,224.625 200.0688,223.5625 Q199.3813,222.4844 199.3813,221.2031 L199.3813,220.0469 Q199.3813,218.7188 199.9906,217.5781 Q200.6156,216.4219 201.7094,215.8125 Q202.8031,215.1875 204.0375,215.1875 Q204.7719,215.1875 205.4125,215.3594 Q206.0688,215.5156 206.6156,215.875 Z " fill="#000000"/><text fill="#000000" font-family="sans-serif" font-size="14" lengthAdjust="spacing" textLength="94" x="219.15" y="225.7285">Representante</text><line style="stroke:#181818;stroke-width:0.5;" x1="184" x2="321" y1="236" y2="236"/><line style="stroke:#181818;stroke-width:0.5;" x1="184" x2="321" y1="244" y2="244"/><ellipse cx="194" cy="258.3047" fill="#84BE84" rx="3" ry="3" style="stroke:#038048;stroke-width:1.0;"/><text fill="#000000" font-family="sans-serif" font-size="14" lengthAdjust="spacing" textLength="113" x="203" y="262.5332">responderTicket()</text><ellipse cx="194" cy="275.9141" fill="#84BE84" rx="3" ry="3" style="stroke:#038048;stroke-width:1.0;"/><text fill="#000000" font-family="sans-serif" font-size="14" lengthAdjust="spacing" textLength="86" x="203" y="280.1426">cerrarTicket()</text></g><!--class Ticket--><g id="elem_Ticket"><rect codeLine="20" fill="#F1F1F1" height="171.2656" id="Ticket" rx="2.5" ry="2.5" style="stroke:#181818;stroke-width:0.5;" width="145" x="94" y="365"/><ellipse cx="143.25" cy="381" fill="#ADD1B2" rx="11" ry="11" style="stroke:#181818;stroke-width:1.0;"/><path d="M146.0156,376.875 Q146.1719,376.6563 146.3594,376.5469 Q146.5469,376.4375 146.7656,376.4375 Q147.1406,376.4375 147.375,376.7031 Q147.6094,376.9531 147.6094,377.5625 L147.6094,379.0156 Q147.6094,379.625 147.375,379.8906 Q147.1406,380.1563 146.7656,380.1563 Q146.4219,380.1563 146.2188,379.9531 Q146.0156,379.7656 145.9063,379.25 Q145.8594,378.8906 145.6719,378.7031 Q145.3438,378.3281 144.7344,378.1094 Q144.125,377.8906 143.5,377.8906 Q142.7344,377.8906 142.0938,378.2188 Q141.4688,378.5469 140.9688,379.2969 Q140.4844,380.0469 140.4844,381.0781 L140.4844,382.1719 Q140.4844,383.4063 141.375,384.2344 Q142.2656,385.0469 143.8594,385.0469 Q144.7969,385.0469 145.4531,384.7969 Q145.8438,384.6406 146.2656,384.2031 Q146.5313,383.9375 146.6719,383.8594 Q146.8281,383.7813 147.0313,383.7813 Q147.3594,383.7813 147.6094,384.0469 Q147.875,384.2969 147.875,384.6406 Q147.875,384.9844 147.5313,385.3906 Q147.0313,385.9688 146.2344,386.2969 Q145.1563,386.75 143.8594,386.75 Q142.3438,386.75 141.1406,386.125 Q140.1563,385.625 139.4688,384.5625 Q138.7813,383.4844 138.7813,382.2031 L138.7813,381.0469 Q138.7813,379.7188 139.3906,378.5781 Q140.0156,377.4219 141.1094,376.8125 Q142.2031,376.1875 143.4375,376.1875 Q144.1719,376.1875 144.8125,376.3594 Q145.4688,376.5156 146.0156,376.875 Z " fill="#000000"/><text fill="#000000" font-family="sans-serif" font-size="14" lengthAdjust="spacing" textLength="38" x="163.75" y="386.7285">Ticket</text><line style="stroke:#181818;stroke-width:0.5;" x1="95" x2="238" y1="397" y2="397"/><rect fill="none" height="6" style="stroke:#C82930;stroke-width:1.0;" width="6" x="102" y="408.3047"/><text fill="#000000" font-family="sans-serif" font-size="14" lengthAdjust="spacing" textLength="38" x="114" y="415.5332">id : int</text><rect fill="none" height="6" style="stroke:#C82930;stroke-width:1.0;" width="6" x="102" y="425.9141"/><text fill="#000000" font-family="sans-serif" font-size="14" lengthAdjust="spacing" textLength="77" x="114" y="433.1426">titulo : string</text><rect fill="none" height="6" style="stroke:#C82930;stroke-width:1.0;" width="6" x="102" y="443.5234"/><text fill="#000000" font-family="sans-serif" font-size="14" lengthAdjust="spacing" textLength="119" x="114" y="450.752">descripcion : string</text><rect fill="none" height="6" style="stroke:#C82930;stroke-width:1.0;" width="6" x="102" y="461.1328"/><text fill="#000000" font-family="sans-serif" font-size="14" lengthAdjust="spacing" textLength="90" x="114" y="468.3613">estado : string</text><rect fill="none" height="6" style="stroke:#C82930;stroke-width:1.0;" width="6" x="102" y="478.7422"/><text fill="#000000" font-family="sans-serif" font-size="14" lengthAdjust="spacing" textLength="75" x="114" y="485.9707">fecha : date</text><line style="stroke:#181818;stroke-width:0.5;" x1="95" x2="238" y1="493.0469" y2="493.0469"/><ellipse cx="105" cy="507.3516" fill="#84BE84" rx="3" ry="3" style="stroke:#038048;stroke-width:1.0;"/><text fill="#000000" font-family="sans-serif" font-size="14" lengthAdjust="spacing" textLength="39" x="114" y="511.5801">abrir()</text><ellipse cx="105" cy="524.9609" fill="#84BE84" rx="3" ry="3" style="stroke:#038048;stroke-width:1.0;"/><text fill="#000000" font-family="sans-serif" font-size="14" lengthAdjust="spacing" textLength="48" x="114" y="529.1895">cerrar()</text></g><!--class Hito--><g id="elem_Hito"><rect codeLine="30" fill="#F1F1F1" height="100.8281" id="Hito" rx="2.5" ry="2.5" style="stroke:#181818;stroke-width:0.5;" width="145" x="7" y="597"/><ellipse cx="63.25" cy="613" fill="#ADD1B2" rx="11" ry="11" style="stroke:#181818;stroke-width:1.0;"/><path d="M66.0156,608.875 Q66.1719,608.6563 66.3594,608.5469 Q66.5469,608.4375 66.7656,608.4375 Q67.1406,608.4375 67.375,608.7031 Q67.6094,608.9531 67.6094,609.5625 L67.6094,611.0156 Q67.6094,611.625 67.375,611.8906 Q67.1406,612.1563 66.7656,612.1563 Q66.4219,612.1563 66.2188,611.9531 Q66.0156,611.7656 65.9063,611.25 Q65.8594,610.8906 65.6719,610.7031 Q65.3438,610.3281 64.7344,610.1094 Q64.125,609.8906 63.5,609.8906 Q62.7344,609.8906 62.0938,610.2188 Q61.4688,610.5469 60.9688,611.2969 Q60.4844,612.0469 60.4844,613.0781 L60.4844,614.1719 Q60.4844,615.4063 61.375,616.2344 Q62.2656,617.0469 63.8594,617.0469 Q64.7969,617.0469 65.4531,616.7969 Q65.8438,616.6406 66.2656,616.2031 Q66.5313,615.9375 66.6719,615.8594 Q66.8281,615.7813 67.0313,615.7813 Q67.3594,615.7813 67.6094,616.0469 Q67.875,616.2969 67.875,616.6406 Q67.875,616.9844 67.5313,617.3906 Q67.0313,617.9688 66.2344,618.2969 Q65.1563,618.75 63.8594,618.75 Q62.3438,618.75 61.1406,618.125 Q60.1563,617.625 59.4688,616.5625 Q58.7813,615.4844 58.7813,614.2031 L58.7813,613.0469 Q58.7813,611.7188 59.3906,610.5781 Q60.0156,609.4219 61.1094,608.8125 Q62.2031,608.1875 63.4375,608.1875 Q64.1719,608.1875 64.8125,608.3594 Q65.4688,608.5156 66.0156,608.875 Z " fill="#000000"/><text fill="#000000" font-family="sans-serif" font-size="14" lengthAdjust="spacing" textLength="24" x="83.75" y="618.7285">Hito</text><line style="stroke:#181818;stroke-width:0.5;" x1="8" x2="151" y1="629" y2="629"/><rect fill="none" height="6" style="stroke:#C82930;stroke-width:1.0;" width="6" x="15" y="640.3047"/><text fill="#000000" font-family="sans-serif" font-size="14" lengthAdjust="spacing" textLength="38" x="27" y="647.5332">id : int</text><rect fill="none" height="6" style="stroke:#C82930;stroke-width:1.0;" width="6" x="15" y="657.9141"/><text fill="#000000" font-family="sans-serif" font-size="14" lengthAdjust="spacing" textLength="119" x="27" y="665.1426">descripcion : string</text><rect fill="none" height="6" style="stroke:#C82930;stroke-width:1.0;" width="6" x="15" y="675.5234"/><text fill="#000000" font-family="sans-serif" font-size="14" lengthAdjust="spacing" textLength="75" x="27" y="682.752">fecha : date</text><line style="stroke:#181818;stroke-width:0.5;" x1="8" x2="151" y1="689.8281" y2="689.8281"/></g><!--class Mensaje--><g id="elem_Mensaje"><rect codeLine="36" fill="#F1F1F1" height="100.8281" id="Mensaje" rx="2.5" ry="2.5" style="stroke:#181818;stroke-width:0.5;" width="135" x="187" y="597"/><ellipse cx="224.5" cy="613" fill="#ADD1B2" rx="11" ry="11" style="stroke:#181818;stroke-width:1.0;"/><path d="M227.2656,608.875 Q227.4219,608.6563 227.6094,608.5469 Q227.7969,608.4375 228.0156,608.4375 Q228.3906,608.4375 228.625,608.7031 Q228.8594,608.9531 228.8594,609.5625 L228.8594,611.0156 Q228.8594,611.625 228.625,611.8906 Q228.3906,612.1563 228.0156,612.1563 Q227.6719,612.1563 227.4688,611.9531 Q227.2656,611.7656 227.1563,611.25 Q227.1094,610.8906 226.9219,610.7031 Q226.5938,610.3281 225.9844,610.1094 Q225.375,609.8906 224.75,609.8906 Q223.9844,609.8906 223.3438,610.2188 Q222.7188,610.5469 222.2188,611.2969 Q221.7344,612.0469 221.7344,613.0781 L221.7344,614.1719 Q221.7344,615.4063 222.625,616.2344 Q223.5156,617.0469 225.1094,617.0469 Q226.0469,617.0469 226.7031,616.7969 Q227.0938,616.6406 227.5156,616.2031 Q227.7813,615.9375 227.9219,615.8594 Q228.0781,615.7813 228.2813,615.7813 Q228.6094,615.7813 228.8594,616.0469 Q229.125,616.2969 229.125,616.6406 Q229.125,616.9844 228.7813,617.3906 Q228.2813,617.9688 227.4844,618.2969 Q226.4063,618.75 225.1094,618.75 Q223.5938,618.75 222.3906,618.125 Q221.4063,617.625 220.7188,616.5625 Q220.0313,615.4844 220.0313,614.2031 L220.0313,613.0469 Q220.0313,611.7188 220.6406,610.5781 Q221.2656,609.4219 222.3594,608.8125 Q223.4531,608.1875 224.6875,608.1875 Q225.4219,608.1875 226.0625,608.3594 Q226.7188,608.5156 227.2656,608.875 Z " fill="#000000"/><text fill="#000000" font-family="sans-serif" font-size="14" lengthAdjust="spacing" textLength="53" x="243.5" y="618.7285">Mensaje</text><line style="stroke:#181818;stroke-width:0.5;" x1="188" x2="321" y1="629" y2="629"/><rect fill="none" height="6" style="stroke:#C82930;stroke-width:1.0;" width="6" x="195" y="640.3047"/><text fill="#000000" font-family="sans-serif" font-size="14" lengthAdjust="spacing" textLength="38" x="207" y="647.5332">id : int</text><rect fill="none" height="6" style="stroke:#C82930;stroke-width:1.0;" width="6" x="195" y="657.9141"/><text fill="#000000" font-family="sans-serif" font-size="14" lengthAdjust="spacing" textLength="109" x="207" y="665.1426">contenido : string</text><rect fill="none" height="6" style="stroke:#C82930;stroke-width:1.0;" width="6" x="195" y="675.5234"/><text fill="#000000" font-family="sans-serif" font-size="14" lengthAdjust="spacing" textLength="75" x="207" y="682.752">fecha : date</text><line style="stroke:#181818;stroke-width:0.5;" x1="188" x2="321" y1="689.8281" y2="689.8281"/></g><!--reverse link Usuario to Cliente--><g id="link_Usuario_Cliente"><path codeLine="42" d="M124.5539,159.1515 C114.1839,179.7115 111.2,185.62 102.01,203.85 " fill="none" id="Usuario-backto-Cliente" style="stroke:#181818;stroke-width:1.0;"/><polygon fill="none" points="132.66,143.08,119.1968,156.4494,129.9111,161.8535,132.66,143.08" style="stroke:#181818;stroke-width:1.0;"/></g><!--reverse link Usuario to Representante--><g id="link_Usuario_Representante"><path codeLine="43" d="M208.9206,159.1136 C219.4106,179.6736 222.45,185.62 231.75,203.85 " fill="none" id="Usuario-backto-Representante" style="stroke:#181818;stroke-width:1.0;"/><polygon fill="none" points="200.74,143.08,203.576,161.8405,214.2651,156.3868,200.74,143.08" style="stroke:#181818;stroke-width:1.0;"/></g><!--link Cliente to Ticket--><g id="link_Cliente_Ticket"><path codeLine="45" d="M98.5,287.09 C107.85,309.42 117.492,332.4659 128.772,359.3959 " fill="none" id="Cliente-to-Ticket" style="stroke:#181818;stroke-width:1.0;"/><polygon fill="#181818" points="131.09,364.93,131.3024,355.0834,129.1583,360.3182,123.9235,358.1742,131.09,364.93" style="stroke:#181818;stroke-width:1.0;"/><text fill="#000000" font-family="sans-serif" font-size="13" lengthAdjust="spacing" textLength="25" x="117.5" y="331.4951">crea</text><text fill="#000000" font-family="sans-serif" font-size="13" lengthAdjust="spacing" textLength="7" x="93.7359" y="308.8095">1</text><text fill="#000000" font-family="sans-serif" font-size="13" lengthAdjust="spacing" textLength="5" x="122.7136" y="354.0954">*</text></g><!--link Representante to Ticket--><g id="link_Representante_Ticket"><path codeLine="46" d="M235.3,287.09 C225.84,309.42 216.0807,332.4754 204.6707,359.4054 " fill="none" id="Representante-to-Ticket" style="stroke:#181818;stroke-width:1.0;"/><polygon fill="#181818" points="202.33,364.93,209.5241,358.2036,204.2806,360.3262,202.158,355.0826,202.33,364.93" style="stroke:#181818;stroke-width:1.0;"/><text fill="#000000" font-family="sans-serif" font-size="13" lengthAdjust="spacing" textLength="42" x="223.5" y="331.4951">atiende</text><text fill="#000000" font-family="sans-serif" font-size="13" lengthAdjust="spacing" textLength="7" x="224.8716" y="308.8095">1</text><text fill="#000000" font-family="sans-serif" font-size="13" lengthAdjust="spacing" textLength="5" x="200.2985" y="354.0954">*</text></g><!--reverse link Ticket to Hito--><g id="link_Ticket_Hito"><path codeLine="48" d="M123.8316,547.1392 C114.5716,567.8992 109.84,578.49 101.59,596.98 " fill="none" id="Ticket-backto-Hito" style="stroke:#181818;stroke-width:1.0;"/><polygon fill="#181818" points="128.72,536.18,122.6228,540.0301,123.8316,547.1392,129.9289,543.289,128.72,536.18" style="stroke:#181818;stroke-width:1.0;"/></g><!--reverse link Ticket to Mensaje--><g id="link_Ticket_Mensaje"><path codeLine="49" d="M209.6466,547.1175 C219.0166,567.8775 223.81,578.49 232.15,596.98 " fill="none" id="Ticket-backto-Mensaje" style="stroke:#181818;stroke-width:1.0;"/><polygon fill="#181818" points="204.71,536.18,203.5325,543.2943,209.6466,547.1175,210.8242,540.0032,204.71,536.18" style="stroke:#181818;stroke-width:1.0;"/></g><!--SRC=[XP8zKiGm38LxdyAJ2dR71UqEGqD3GyFF0HHRW21hPsIb0Wx56RWO2kliv6S3wVniVK_I2zHP6BnOtq3EzZ5tm9Jikx7wEKl1xYn5ASUOzZMZIbf4yRcek0Tgvg9FKS4PlxzWUhLL7da2liTCAPwTcqzZ3kxN3M4KBEvRwnc17yY_eUYpegMOkqP6-h7y3bl6h0GOGrHgKmou027pASf1MTk0a7HDcWyRC7kcrkiyY-LaWR0eU4B_qkybW63f1secddKtxkk6P3MNF_mdJaVOBSOChxZ6wyF3IF_qhRJXVxdyS6w8RofEGZ5cYBYwgAnpLxRQLCF6TxzvcscA9z-1A2GehIWRzUdNCpwN2SqF]--></g></svg>